<?xml version="1.0" standalone="no"?>
<!DOCTYPE svg PUBLIC "-//W3C//DTD SVG 1.1//EN" "http://www.w3.org/Graphics/SVG/1.1/DTD/svg11.dtd" >
<svg xmlns="http://www.w3.org/2000/svg" xmlns:xlink="http://www.w3.org/1999/xlink" version="1.1">
<metadata>
Created by FontForge 20200314 at Thu May 14 15:49:02 2020
 By www-data
Copyright (c) 2020, Haris Prawoto
gasemraya@gmail.com
</metadata>
<defs>
<font id="LingLengLang" horiz-adv-x="510" >
  <font-face 
    font-family="LingLengLang"
    font-weight="400"
    font-stretch="normal"
    units-per-em="1000"
    panose-1="2 0 5 3 0 0 0 0 0 0"
    ascent="800"
    descent="-200"
    x-height="511"
    cap-height="597"
    bbox="19 -86.1282 851.226 734"
    underline-thickness="50"
    underline-position="-150"
    unicode-range="U+0020-0098"
  />
<missing-glyph horiz-adv-x="364" 
d="M33 0v666h265v-666h-265zM66 33h199v600h-199v-600z" />
    <glyph glyph-name="Ka" unicode="Ka" horiz-adv-x="720" 
d="M576 414q-11 -29 -16 -35q-9 -10 -4 -16t24 -6h26l-4 33q-4 32 -4 43q0 19 -10 5q-6 -7 -12 -24zM649 575q9 -17 13 -70q10 -140 15 -146q2 -2 8 -2q11 0 11 -6t-10 -6q-5 0 -6.5 -4t0.5 -16q4 -20 8 -70q3 -34 1.5 -42.5t-9.5 -11.5q-15 -6 -33 18.5t-27 63.5l-11 45
l-38 -4q-37 -4 -41.5 -7t-30.5 -50.5t-39 -61.5q-22 -25 -59 -6q-15 8 -13 23.5t22 48.5t33 56q13 21 44.5 82.5t70.5 121.5q28 43 37 51.5t24 8.5q13 0 19 -3t11 -13zM450 583q25 -7 40.5 -25t9.5 -34q-5 -13 -58.5 -56.5t-84 -68t-53.5 -42.5l-23 -18l31 -52
q30 -49 67 -97.5t54 -60.5t27 -3.5t15 0.5q4 -7 -7.5 -17t-30 -17.5t-33.5 -7.5q-34 0 -85 37t-95 94q-16 21 -26 33.5t-20 22t-15.5 12.5t-11 0.5t-8 -9.5t-5 -23t-4 -34t-2.5 -47q-6 -107 -16 -117q-6 -6 -16 -6t-35 8l-41 12l6 92q6 93 19 228.5t11 164.5q-2 21 2 25
t29 6q21 1 31.5 -2t20.5 -15q13 -13 15 -28.5t0 -69.5q-3 -73 4 -74q2 0 7 4q13 9 70 50q56 41 114.5 93t61.5 51t35 -9z" />
    <glyph glyph-name="Ki" unicode="Ki" horiz-adv-x="624" 
d="M580 519q8 -8 11 -12.5t6.5 -25t1.5 -53.5q-6 -98 -9 -186q-1 -28 -5.5 -52t-8.5 -33.5t-6 -11.5q-5 -5 -34 1l-30 5l1 90q0 55 4 171l4 114l27 2q28 2 38 -9zM450 583q25 -7 40.5 -25t9.5 -34q-5 -13 -58.5 -56.5t-84 -68t-53.5 -42.5l-23 -18l31 -52q30 -49 67 -97.5
t54 -60.5t27 -3.5t15 0.5q4 -7 -7.5 -17t-30 -17.5t-33.5 -7.5q-34 0 -85 37t-95 94q-16 21 -26 33.5t-20 22t-15.5 12.5t-11 0.5t-8 -9.5t-5 -23t-4 -34t-2.5 -47q-6 -107 -16 -117q-6 -6 -16 -6t-35 8l-41 12l6 92q6 93 19 228.5t11 164.5q-2 21 2 25t29 6q21 1 31.5 -2
t20.5 -15q13 -13 15 -28.5t0 -69.5q-3 -73 4 -74q2 0 7 4q13 9 70 50q56 41 114.5 93t61.5 51t35 -9z" />
    <glyph glyph-name="Ku" unicode="Ku" horiz-adv-x="795" 
d="M740 459q6 -4 7.5 -34t1.5 -131q0 -100 2 -135t9 -55q10 -30 11 -31q0 -3 -7 -4t-18.5 0.5t-23.5 4.5q-22 7 -27 12.5t-13 31.5q-10 36 -14 87l-4 51l-29 -45q-36 -58 -66.5 -73t-71.5 4q-16 8 -23.5 16t-12.5 29t-6 49.5t0 86.5q1 83 3 106t9 28q11 8 28 7t29 -10
q10 -8 11 -16.5t-5 -46.5q-7 -48 -7 -118t6 -85q4 -12 9 -8q4 3 22 31q24 37 65.5 131t37.5 103t4 15q8 5 36 4.5t37 -5.5zM450 583q25 -7 40.5 -25t9.5 -34q-5 -13 -58.5 -56.5t-84 -68t-53.5 -42.5l-23 -18l31 -52q30 -49 67 -97.5t54 -60.5t27 -3.5t15 0.5q4 -7 -7.5 -17
t-30 -17.5t-33.5 -7.5q-34 0 -85 37t-95 94q-16 21 -26 33.5t-20 22t-15.5 12.5t-11 0.5t-8 -9.5t-5 -23t-4 -34t-2.5 -47q-6 -107 -16 -117q-6 -6 -16 -6t-35 8l-41 12l6 92q6 93 19 228.5t11 164.5q-2 21 2 25t29 6q21 1 31.5 -2t20.5 -15q13 -13 15 -28.5t0 -69.5
q-3 -73 4 -74q2 0 7 4q13 9 70 50q56 41 114.5 93t61.5 51t35 -9z" />
    <glyph glyph-name="Ke" unicode="Ke" horiz-adv-x="836" 
d="M790 535q15 -16 20 -33t-2 -26q-7 -8 -42 -15q-57 -11 -113 -25l-28 -7l-4 -37q-4 -38 -1 -41q3 -2 31 3.5t41 10.5q10 5 23 -17q20 -32 7 -46t-73 -24q-40 -7 -42 -9q-4 -4 -6 -47t2 -45q5 -4 80 19l76 23l11 -13q10 -11 18 -25t8 -20t-51 -19q-124 -32 -151 -46
q-32 -17 -62 -7t-33 39q-2 15 14 19q10 3 12.5 10.5t4.5 40.5l2 48h-25q-23 0 -36.5 11.5t-13.5 30.5q0 12 6.5 16.5t35.5 12.5l41 12l7 31q7 30 4.5 36.5t-25.5 4.5q-16 -2 -22 1t-14 14q-19 26 -18 45t20 19q15 0 50 12.5t100 25t98 24.5l33 11zM450 583q25 -7 40.5 -25
t9.5 -34q-5 -13 -58.5 -56.5t-84 -68t-53.5 -42.5l-23 -18l31 -52q30 -49 67 -97.5t54 -60.5t27 -3.5t15 0.5q4 -7 -7.5 -17t-30 -17.5t-33.5 -7.5q-34 0 -85 37t-95 94q-16 21 -26 33.5t-20 22t-15.5 12.5t-11 0.5t-8 -9.5t-5 -23t-4 -34t-2.5 -47q-6 -107 -16 -117
q-6 -6 -16 -6t-35 8l-41 12l6 92q6 93 19 228.5t11 164.5q-2 21 2 25t29 6q21 1 31.5 -2t20.5 -15q13 -13 15 -28.5t0 -69.5q-3 -73 4 -74q2 0 7 4q13 9 70 50q56 41 114.5 93t61.5 51t35 -9z" />
    <glyph glyph-name="Ko" unicode="Ko" horiz-adv-x="756" 
d="M574 511q-32 -15 -30 -22q2 -4 20 -3q50 3 58 -7.5t-22 -42.5q-24 -25 -34.5 -45t-23.5 -62t-13 -94q0 -40 6 -61t22 -34q7 -5 12.5 -2.5t20.5 19.5q38 44 59 168q9 52 8 114t-10 73q-9 10 -29 9.5t-44 -10.5zM660 539q37 -13 49 -23t17 -34q6 -23 6 -88.5t-6 -101.5
q-16 -113 -68 -163.5t-121 -19.5q-54 25 -73 72q-8 18 -9.5 61t3.5 76q6 36 25.5 91t27.5 60q15 9 11 14q-2 3 -9 0q-5 -2 -4 3q5 15 36 41q3 3 6 5q22 17 46.5 18.5t62.5 -11.5zM450 583q25 -7 40.5 -25t9.5 -34q-5 -13 -58.5 -56.5t-84 -68t-53.5 -42.5l-23 -18l31 -52
q30 -49 67 -97.5t54 -60.5t27 -3.5t15 0.5q4 -7 -7.5 -17t-30 -17.5t-33.5 -7.5q-34 0 -85 37t-95 94q-16 21 -26 33.5t-20 22t-15.5 12.5t-11 0.5t-8 -9.5t-5 -23t-4 -34t-2.5 -47q-6 -107 -16 -117q-6 -6 -16 -6t-35 8l-41 12l6 92q6 93 19 228.5t11 164.5q-2 21 2 25
t29 6q21 1 31.5 -2t20.5 -15q13 -13 15 -28.5t0 -69.5q-3 -73 4 -74q2 0 7 4q13 9 70 50q56 41 114.5 93t61.5 51t35 -9z" />
    <glyph glyph-name="La" unicode="La" horiz-adv-x="532" 
d="M184 592q8 -12 9.5 -28t-1.5 -52q-8 -92 -10.5 -215t3.5 -129q8 -8 53 9q46 19 102 38.5t62 19.5q7 0 31.5 -34.5t24.5 -44.5q0 -4 -13.5 -12t-33.5 -16q-137 -53 -225 -103q-63 -37 -76 -37q-22 0 -41 15t-30 41q-17 39 -14.5 49t28.5 10h29l-2 247q-2 206 4 234
q5 25 23 27q4 1 29 1q21 0 30.5 -4t17.5 -16zM388 428q-11 -29 -16 -35q-9 -10 -4 -16t24 -6h26l-4 33q-4 32 -4 43q0 19 -10 5q-6 -7 -12 -24zM461 589q9 -17 13 -70q10 -140 15 -146q2 -2 8 -2q11 0 11 -6t-10 -6q-5 0 -6.5 -4t0.5 -16q4 -20 8 -70q3 -34 1.5 -42.5
t-9.5 -11.5q-15 -6 -33 18.5t-27 63.5l-11 45l-38 -4q-37 -4 -41.5 -7t-30.5 -50.5t-39 -61.5q-22 -25 -59 -6q-15 8 -13 23.5t22 48.5t33 56q13 21 44.5 82.5t70.5 121.5q28 43 37 51.5t24 8.5q13 0 19 -3t11 -13z" />
    <glyph glyph-name="Li" unicode="Li" horiz-adv-x="482" 
d="M184 611q8 -12 9.5 -28t-1.5 -52q-8 -92 -10.5 -215t3.5 -129q8 -8 53 9q46 19 102 38.5t62 19.5q7 0 31.5 -34.5t24.5 -44.5q0 -4 -13.5 -12t-33.5 -16q-137 -53 -225 -103q-63 -37 -76 -37q-22 0 -41 15t-30 41q-17 39 -14.5 49t28.5 10h29l-2 247q-2 206 4 234
q5 25 23 27q4 1 29 1q21 0 30.5 -4t17.5 -16zM337 639q8 -7 11 -12t6 -25t2 -54q-6 -97 -9 -185q-1 -28 -6 -52t-9 -33.5t-6 -12.5q-4 -4 -34 1l-29 6v89q0 56 5 172l4 114l27 1q27 2 38 -9z" />
    <glyph glyph-name="Lu" unicode="Lu" horiz-adv-x="565" 
d="M184 611q8 -12 9.5 -28t-1.5 -52q-8 -92 -10.5 -215t3.5 -129q8 -8 53 9q46 19 102 38.5t62 19.5q7 0 31.5 -34.5t24.5 -44.5q0 -4 -13.5 -12t-33.5 -16q-137 -53 -225 -103q-63 -37 -76 -37q-22 0 -41 15t-30 41q-17 39 -14.5 49t28.5 10h29l-2 247q-2 206 4 234
q5 25 23 27q4 1 29 1q21 0 30.5 -4t17.5 -16zM511 604q6 -4 7.5 -34t1.5 -131q0 -100 2 -135t9 -54q10 -31 10 -32q1 -3 -6 -4t-18.5 0.5t-23.5 4.5q-22 7 -27.5 13t-12.5 32q-10 35 -14 86l-4 51l-29 -45q-37 -57 -67.5 -72t-70.5 4q-16 7 -24 15t-12.5 29t-5.5 49.5
t0 86.5q1 84 3 106.5t9 27.5q11 9 28 8t29 -11q10 -8 10.5 -16.5t-4.5 -46.5q-7 -48 -7.5 -117.5t6.5 -85.5q4 -11 9 -8q4 4 22 31q24 37 65 131t38 103q-4 10 4 15t36 4.5t37 -5.5z" />
    <glyph glyph-name="Le" unicode="Le" horiz-adv-x="606" 
d="M184 611q8 -12 9.5 -28t-1.5 -52q-8 -92 -10.5 -215t3.5 -129q8 -8 53 9q46 19 102 38.5t62 19.5q7 0 31.5 -34.5t24.5 -44.5q0 -4 -13.5 -12t-33.5 -16q-137 -53 -225 -103q-63 -37 -76 -37q-22 0 -41 15t-30 41q-17 39 -14.5 49t28.5 10h29l-2 247q-2 206 4 234
q5 25 23 27q4 1 29 1q21 0 30.5 -4t17.5 -16zM560 716q15 -16 20 -33t-2 -25q-7 -9 -42 -15q-57 -11 -113 -25l-28 -7l-4 -38q-4 -37 -1 -40t31 2.5t41 10.5q10 5 23 -16q20 -33 7 -47t-73 -24q-40 -7 -42 -9q-4 -4 -6 -47t2 -45q5 -3 80 19l76 23l11 -13q10 -10 18 -24
t8 -21q0 -6 -51 -19q-124 -32 -151 -46q-32 -17 -62 -6.5t-33 39.5q-2 14 14 18q10 3 12.5 10.5t4.5 40.5l2 48h-25q-23 0 -36.5 11.5t-13.5 30.5q0 12 6.5 16.5t35.5 13.5l41 12l7 30q7 31 4.5 37t-25.5 4q-16 -1 -22 1.5t-14 13.5q-19 26 -18 45t20 19q15 0 50 12.5
t99.5 25t98.5 24.5l33 11z" />
    <glyph glyph-name="Lo" unicode="Lo" horiz-adv-x="529" 
d="M184 611q8 -12 9.5 -28t-1.5 -52q-8 -92 -10.5 -215t3.5 -129q8 -8 53 9q46 19 102 38.5t62 19.5q7 0 31.5 -34.5t24.5 -44.5q0 -4 -13.5 -12t-33.5 -16q-137 -53 -225 -103q-63 -37 -76 -37q-22 0 -41 15t-30 41q-17 39 -14.5 49t28.5 10h29l-2 247q-2 206 4 234
q5 25 23 27q4 1 29 1q21 0 30.5 -4t17.5 -16zM348 681q-32 -15 -30 -22q1 -4 19 -3q51 3 59 -7.5t-22 -42.5q-24 -26 -35 -45.5t-23 -61.5q-13 -42 -13 -94q0 -40 6 -61t22 -34q7 -6 12.5 -3t19.5 20q39 44 60 168q9 52 8 113.5t-11 73.5q-8 10 -28 9.5t-44 -10.5zM434 709
q37 -13 48.5 -23t17.5 -34q5 -23 5 -88.5t-5 -102.5q-16 -112 -68.5 -162.5t-120.5 -19.5q-54 25 -73 72q-8 18 -9.5 61t3.5 76q6 36 25.5 91t27.5 60q15 9 11 14q-2 3 -9 0q-5 -2 -4 3q4 15 35 41q3 3 6 5q22 17 47 18.5t63 -11.5z" />
    <glyph glyph-name="Pa" unicode="Pa" horiz-adv-x="658" 
d="M213 486q-8 -7 -13 -53t-4 -88.5t8 -42.5q23 0 81 40t101 86q62 66 21 72q-16 2 -103.5 -4t-90.5 -10zM356 614q41 -4 65.5 -19.5t63.5 -62.5q50 -62 19 -122q-22 -43 -110 -108t-165 -96l-36 -14l6 -58q9 -89 -1 -105q-6 -9 -40 -3t-53 19q-11 9 -14 15.5t-5 32.5t0 78
q3 110 8 201l4 91l-23 10q-24 10 -39 42q-12 25 -12 30.5t12 14.5q33 25 137.5 42.5t182.5 11.5zM514 246q-11 -29 -16 -35q-10 -10 -4.5 -16t24.5 -6h25l-4 32q-3 33 -3 43q-1 20 -11 6q-5 -8 -11 -24zM587 406q9 -17 13 -69q10 -141 15 -146q1 -2 7 -2q12 0 12 -6t-10 -6
q-6 0 -7 -4t1 -16q4 -20 8 -70q2 -34 1 -42.5t-9 -12.5q-15 -5 -33 19.5t-28 63.5l-11 45l-37 -5q-38 -4 -42.5 -6.5t-30 -50.5t-38.5 -61q-22 -25 -60 -6q-14 7 -12.5 22.5t22.5 49.5q19 33 33 55q12 22 43.5 83.5t71.5 121.5q28 43 36.5 51.5t24.5 8.5q13 0 19 -3.5
t11 -13.5z" />
    <glyph glyph-name="Pi" unicode="Pi" horiz-adv-x="644" 
d="M213 486q-8 -7 -13 -53t-4 -88.5t8 -42.5q23 0 81 40t101 86q62 66 21 72q-16 2 -103.5 -4t-90.5 -10zM356 614q41 -4 65.5 -19.5t63.5 -62.5q50 -62 19 -122q-22 -43 -110 -108t-165 -96l-36 -14l6 -58q9 -89 -1 -105q-6 -9 -40 -3t-53 19q-11 9 -14 15.5t-5 32.5t0 78
q3 110 8 201l4 91l-23 10q-24 10 -39 42q-12 25 -12 30.5t12 14.5q33 25 137.5 42.5t182.5 11.5zM612 473q7 -7 8 -22t-2 -69q-5 -80 -9 -195t-8.5 -119.5t-33.5 0.5l-46 6v89q0 89 4 203l4 114l45 2q27 2 38 -9z" />
    <glyph glyph-name="Pu" unicode="Pu" horiz-adv-x="699" 
d="M213 486q-8 -7 -13 -53t-4 -88.5t8 -42.5q23 0 81 40t101 86q62 66 21 72q-16 2 -103.5 -4t-90.5 -10zM356 614q41 -4 65.5 -19.5t63.5 -62.5q50 -62 19 -122q-22 -43 -110 -108t-165 -96l-36 -14l6 -58q9 -89 -1 -105q-6 -9 -40 -3t-53 19q-11 9 -14 15.5t-5 32.5t0 78
q3 110 8 201l4 91l-23 10q-24 10 -39 42q-12 25 -12 30.5t12 14.5q33 25 137.5 42.5t182.5 11.5zM645 335q5 -4 7 -34t2 -130q0 -101 2 -136t9 -54q10 -31 10 -32q1 -3 -6.5 -4t-18.5 0.5t-23 4.5q-22 7 -27.5 13t-12.5 32q-10 35 -14 86l-4 51l-29 -45q-37 -57 -67.5 -72
t-70.5 4q-12 6 -32 -1q-7 -2 -9 9q-2 14 -1 84q1 83 3 105.5t9 28.5q11 8 28 7t29 -11q10 -8 10.5 -16.5t-4.5 -46.5q-12 -87 -1 -114q4 -11 9 -8q4 4 21 31q25 37 66 131t38 103q-4 10 4 15t36 5t37 -6z" />
    <glyph glyph-name="Pe" unicode="Pe" horiz-adv-x="825" 
d="M213 486q-8 -7 -13 -53t-4 -88.5t8 -42.5q23 0 81 40t101 86q62 66 21 72q-16 2 -103.5 -4t-90.5 -10zM356 614q41 -4 65.5 -19.5t63.5 -62.5q50 -62 19 -122q-22 -43 -110 -108t-165 -96l-36 -14l6 -58q9 -89 -1 -105q-6 -9 -40 -3t-53 19q-11 9 -14 15.5t-5 32.5t0 78
q3 110 8 201l4 91l-23 10q-24 10 -39 42q-12 25 -12 30.5t12 14.5q33 25 137.5 42.5t182.5 11.5zM779 407q15 -16 20 -33t-2 -26q-7 -8 -42 -15q-57 -11 -112 -25l-29 -7l-4 -37q-3 -33 0 -36q2 -2 30 3.5t41 10.5q10 5 23 -17q20 -32 7 -46t-73 -24q-40 -7 -42 -9
q-4 -4 -6 -35t2 -33q5 -4 80 19l76 24l11 -5q10 -11 18 -25t8 -20t-51 -19q-90 -24 -150 -55q-33 -17 -63 -7t-33 39q-2 15 14 19q11 3 13.5 10.5t3.5 40.5l2 24h-25q-23 0 -36.5 11.5t-13.5 30.5q0 12 6.5 16.5t35.5 12.5l41 12l7 31q6 27 5 32q-3 6 -26 4q-16 -2 -22 1
t-14 14q-18 26 -17.5 45t19.5 19q15 0 50 12.5t100 25t98 24.5l33 11z" />
    <glyph glyph-name="Po" unicode="Po" horiz-adv-x="577" 
d="M213 486q-8 -7 -13 -53t-4 -88.5t8 -42.5q23 0 81 40t101 86q62 66 21 72q-16 2 -103.5 -4t-90.5 -10zM356 614q41 -4 65.5 -19.5t63.5 -62.5q50 -62 19 -122q-22 -43 -110 -108t-165 -96l-36 -14l6 -58q9 -89 -1 -105q-6 -9 -40 -3t-53 19q-11 9 -14 15.5t-5 32.5t0 78
q3 110 8 201l4 91l-23 10q-24 10 -39 42q-12 25 -12 30.5t12 14.5q33 25 137.5 42.5t182.5 11.5zM391 233q-32 -15 -30 -21q1 -5 19 -4q51 4 59 -7t-22 -42q-4 -5 -14.5 -22t-23.5 -43.5t-21 -52.5t-5 -49.5t21 -33.5q7 -5 12.5 -2.5t19.5 18.5q9 10 24.5 41t31 73.5
t18 81.5t-16.5 65q-8 10 -28 9.5t-44 -11.5zM477 261q37 -13 48.5 -23t17.5 -34q11 -46 10 -90.5t-12 -78.5t-29.5 -62t-43.5 -41.5t-54 -17t-60 12.5q-54 24 -73 71q-20 56 -2 115t49 78q15 10 11 15q-2 2 -9 -1q-5 -2 -4 3q4 15 35 42q3 2 6 5q22 16 47 17.5t63 -11.5z
" />
    <glyph glyph-name="Ta" unicode="Ta" horiz-adv-x="822" 
d="M552 556q15 -30 16 -51.5t-13.5 -26t-64 -9.5t-81.5 -9l-31 -5l5 -169q5 -170 7 -199l2 -28l-51 -3l-50 -2l-5 43q-12 106 -12 244l-1 102l-64 -7q-69 -10 -107.5 -6.5t-53.5 17.5t-21 49q-9 48 9 48q6 0 14 -4q32 -17 142 0q58 9 186.5 23t142.5 21q8 3 14.5 -3
t16.5 -25zM648 363q-13 -29 -20 -35q-21 -19 15 -22h10h32l-5 32q-5 32 -5 43q0 20 -12 6q-7 -8 -15 -24zM740 523q11 -17 15 -69q13 -138 18 -145q2 -3 11 -3q14 0 14 -6.5t-12 -6.5q-7 0 -9 -4t1 -16q5 -20 10 -69q3 -34 1.5 -43t-11.5 -12q-19 -5 -41.5 19t-34.5 63
l-13 45l-47 -4q-47 -4 -52.5 -7t-38 -50.5t-48.5 -61.5q-28 -24 -74 -5q-19 7 -16.5 22.5t27.5 49.5q25 33 42 55q16 22 55 83t89 122q35 42 46 51t30 9q16 0 23.5 -3.5t14.5 -13.5z" />
    <glyph glyph-name="Ti" unicode="Ti" horiz-adv-x="592" 
d="M552 556q15 -30 16 -51.5t-13.5 -26t-64 -9.5t-81.5 -9l-31 -5l5 -169q5 -170 7 -199l2 -28l-51 -3l-50 -2l-5 43q-12 106 -12 244l-1 102l-64 -7q-69 -10 -107.5 -6.5t-53.5 17.5t-21 49q-9 48 9 48q6 0 14 -4q32 -17 142 0q58 9 186.5 23t142.5 21q8 3 14.5 -3
t16.5 -25zM536 424q9 -7 10.5 -22t-2.5 -69q-6 -80 -11 -195t-11 -119.5t-42 0.5l-37 6v89q1 90 6 204l5 114l34 1q34 2 48 -9z" />
    <glyph glyph-name="Tu" unicode="Tu" horiz-adv-x="844" 
d="M552 556q15 -30 16 -51.5t-13.5 -26t-64 -9.5t-81.5 -9l-31 -5l5 -169q5 -170 7 -199l2 -28l-51 -3l-50 -2l-5 43q-12 106 -12 244l-1 102l-64 -7q-69 -10 -107.5 -6.5t-53.5 17.5t-21 49q-9 48 9 48q6 0 14 -4q32 -17 142 0q58 9 186.5 23t142.5 21q8 3 14.5 -3
t16.5 -25zM781 431q8 -4 10 -34t2 -131q0 -100 2.5 -135t10.5 -55q14 -30 14 -31q0 -3 -9 -4t-23 0t-29 5q-27 7 -34 12.5t-16 31.5q-12 36 -17 87l-5 51l-36 -45q-46 -58 -84.5 -73t-88.5 4q-20 8 -29.5 15.5t-16 28.5t-7.5 50t0 87q1 83 3.5 106t11.5 28q14 8 35.5 7
t36.5 -10q12 -8 13 -16.5t-6 -46.5q-8 -48 -8.5 -118t7.5 -85q5 -12 11 -8t27 31q30 37 82 131t47 103q-4 9 6 14q10 6 45 5.5t45 -5.5z" />
    <glyph glyph-name="Te" unicode="Te" horiz-adv-x="875" 
d="M552 556q15 -30 16 -51.5t-13.5 -26t-64 -9.5t-81.5 -9l-31 -5l5 -169q5 -170 7 -199l2 -28l-51 -3l-50 -2l-5 43q-12 106 -12 244l-1 102l-64 -7q-69 -10 -107.5 -6.5t-53.5 17.5t-21 49q-9 48 9 48q6 0 14 -4q32 -17 142 0q58 9 186.5 23t142.5 21q8 3 14.5 -3
t16.5 -25zM823 482q19 -16 25.5 -33t-2.5 -26q-9 -8 -53 -15q-72 -11 -140 -24l-36 -8l-5 -37q-5 -37 -1 -41q3 -2 38.5 3.5t51.5 10.5q12 5 28 -16q25 -33 8.5 -47t-91.5 -24q-49 -7 -51 -9q-5 -4 -8 -47t2 -45q7 -3 101 19l94 23l15 -13q12 -10 21.5 -24.5t9.5 -20.5
t-63 -19q-155 -32 -188 -46q-41 -17 -78.5 -6.5t-41.5 39.5q-1 8 2.5 12t14.5 6q14 3 17 10.5t5 40.5l2 48h-31q-28 0 -45 11.5t-17 30.5q0 12 8 16.5t44 12.5l52 12l8 31q9 30 6 36.5t-32 4.5q-19 -2 -27 1t-18 14q-23 26 -22 45t24 19q19 0 63 12.5t125 25t122 24.5l42 11
z" />
    <glyph glyph-name="To" unicode="To" horiz-adv-x="792" 
d="M552 556q15 -30 16 -51.5t-13.5 -26t-64 -9.5t-81.5 -9l-31 -5l5 -169q5 -170 7 -199l2 -28l-51 -3l-50 -2l-5 43q-12 106 -12 244l-1 102l-64 -7q-69 -10 -107.5 -6.5t-53.5 17.5t-21 49q-9 48 9 48q6 0 14 -4q32 -17 142 0q58 9 186.5 23t142.5 21q8 3 14.5 -3
t16.5 -25zM571 410q-40 -15 -38 -22q2 -4 25 -3q74 4 75 -12q1 -12 -29 -38t-43.5 -45.5t-29.5 -61.5q-17 -42 -17 -94q0 -40 8 -61t28 -34q8 -6 15 -3t25 20q48 44 75 168q11 52 10 113.5t-13 73.5q-11 10 -36 9.5t-55 -10.5zM678 438q47 -13 61.5 -23t21.5 -34
q7 -23 7 -88.5t-7 -102.5q-20 -112 -85.5 -162.5t-150.5 -19.5q-67 25 -92 72q-9 18 -11.5 61t4.5 76q8 36 32 91t34 60q19 9 14 14q-3 3 -11 0q-7 -2 -5 3q5 13 41 39q5 4 11 7q27 17 58 18.5t78 -11.5z" />
    <glyph glyph-name="Va" unicode="Va" horiz-adv-x="646" 
d="M467 566q27 -15 20 -41t-56 -96q-58 -84 -97.5 -154t-72.5 -123.5t-28.5 -71.5t-6.5 -19q-34 -3 -73 14q-20 8 -27.5 21.5t-23.5 66.5q-21 73 -26 102t-13 132q-6 75 -10.5 99t-15.5 35q-13 13 -13 17t11 12q23 17 60.5 8t45.5 -33q6 -18 16.5 -148t16.5 -135.5t26 19.5
q24 30 84.5 121.5t78.5 126.5q23 46 46 56t58 -9zM502 307q-11 -29 -16 -35q-9 -10 -4 -16t24 -6h26l-4 33q-4 32 -4 43q0 19 -10 5q-6 -8 -12 -24zM575 467q9 -17 13 -69q10 -140 15 -146q1 -2 8 -2q11 0 11 -6t-10 -6q-6 0 -7 -4t1 -16q4 -20 8 -70q2 -34 1 -42.5
t-9 -11.5q-15 -6 -33 18.5t-28 63.5l-11 45l-37 -4q-38 -5 -42 -7.5t-30 -50t-39 -61.5q-22 -25 -59 -6q-15 8 -13 23t22 49q20 33 33 55t44.5 83.5t70.5 121.5q28 43 37 51.5t24 8.5q13 0 19 -3.5t11 -13.5z" />
    <glyph glyph-name="Vi" unicode="Vi" horiz-adv-x="594" 
d="M467 566q27 -15 20 -41t-56 -96q-58 -84 -97.5 -154t-72.5 -123.5t-28.5 -71.5t-6.5 -19q-34 -3 -73 14q-20 8 -27.5 21.5t-23.5 66.5q-21 73 -26 102t-13 132q-6 75 -10.5 99t-15.5 35q-13 13 -13 17t11 12q23 17 60.5 8t45.5 -33q6 -18 16.5 -148t16.5 -135.5t26 19.5
q24 30 84.5 121.5t78.5 126.5q23 46 46 56t58 -9zM561 471q8 -8 9 -22.5t-2 -68.5q-5 -80 -9 -195t-8.5 -120t-33.5 1l-30 6l1 89q0 89 4 203l4 114l27 2q28 2 38 -9z" />
    <glyph glyph-name="Vu" unicode="Vu" horiz-adv-x="762" 
d="M467 566q27 -15 20 -41t-56 -96q-58 -84 -97.5 -154t-72.5 -123.5t-28.5 -71.5t-6.5 -19q-34 -3 -73 14q-20 8 -27.5 21.5t-23.5 66.5q-21 73 -26 102t-13 132q-6 75 -10.5 99t-15.5 35q-13 13 -13 17t11 12q23 17 60.5 8t45.5 -33q6 -18 16.5 -148t16.5 -135.5t26 19.5
q24 30 84.5 121.5t78.5 126.5q23 46 46 56t58 -9zM707 356q6 -4 7.5 -34t1.5 -131q0 -100 2 -135t9 -55q11 -30 11 -31q0 -3 -7 -4t-18.5 0t-23.5 5q-22 6 -27 12t-13 32q-9 36 -14 87l-4 51l-29 -45q-36 -58 -66.5 -73t-71.5 4q-16 8 -23.5 15.5t-12.5 28.5t-6 50t0 87
q1 83 3 106t9 28q11 8 28 7t29 -10q10 -8 11 -16.5t-5 -46.5q-6 -48 -6.5 -118t5.5 -85q4 -12 9 -8q4 3 22 31q24 37 65.5 131t37.5 103t4 14q8 6 36 5.5t37 -5.5z" />
    <glyph glyph-name="Ve" unicode="Ve" horiz-adv-x="846" 
d="M467 566q27 -15 20 -41t-56 -96q-58 -84 -97.5 -154t-72.5 -123.5t-28.5 -71.5t-6.5 -19q-34 -3 -73 14q-20 8 -27.5 21.5t-23.5 66.5q-21 73 -26 102t-13 132q-6 75 -10.5 99t-15.5 35q-13 13 -13 17t11 12q23 17 60.5 8t45.5 -33q6 -18 16.5 -148t16.5 -135.5t26 19.5
q24 30 84.5 121.5t78.5 126.5q23 46 46 56t58 -9zM800 504q15 -16 20 -33t-2 -26q-7 -8 -42 -15q-58 -11 -113 -25l-28 -7l-4 -37q-4 -38 -1 -41t31 2.5t41 11.5q10 4 23 -17q20 -32 6.5 -46t-73.5 -25q-39 -7 -41 -9q-4 -4 -6 -47t1 -45q6 -3 81 20l75 23l12 -13
q10 -11 18 -25t8 -21q0 -5 -51 -19q-124 -32 -151 -45q-32 -17 -62 -7t-33 39q-2 15 13 19q11 2 13.5 9.5t3.5 41.5l2 47h-25q-22 0 -35.5 11.5t-13.5 31.5q0 12 6 16.5t35 12.5l42 12l7 31q6 30 4 36.5t-26 3.5q-15 -1 -21.5 1.5t-14.5 14.5q-18 26 -17.5 44.5t20.5 18.5
q14 0 49.5 12.5t100 25.5t97.5 24l34 12z" />
    <glyph glyph-name="Vo" unicode="Vo" horiz-adv-x="715" 
d="M467 566q27 -15 20 -41t-56 -96q-58 -84 -97.5 -154t-72.5 -123.5t-28.5 -71.5t-6.5 -19q-34 -3 -73 14q-20 8 -27.5 21.5t-23.5 66.5q-21 73 -26 102t-13 132q-6 75 -10.5 99t-15.5 35q-13 13 -13 17t11 12q23 17 60.5 8t45.5 -33q6 -18 16.5 -148t16.5 -135.5t26 19.5
q24 30 84.5 121.5t78.5 126.5q23 46 46 56t58 -9zM534 422q-33 -15 -30 -21q1 -5 19 -3q51 3 59 -7.5t-22 -42.5q-24 -26 -35 -45.5t-24 -61.5t-13 -94q0 -40 6.5 -61t22.5 -34q7 -6 12 -3t20 20q39 43 60 168q9 51 8 113t-11 74q-8 10 -28.5 9.5t-43.5 -11.5zM620 451
q37 -13 48.5 -23.5t17.5 -34.5q5 -23 5 -88.5t-5 -101.5q-16 -113 -68.5 -163t-120.5 -19q-54 24 -74 71q-7 18 -9 61.5t4 76.5q6 36 25 90.5t28 60.5q15 9 10 14q-2 2 -8 0t-4 2q4 16 35 42q3 3 6 5q22 17 47 18.5t63 -11.5z" />
    <glyph glyph-name=".notdef" horiz-adv-x="364" 
d="M33 0v666h265v-666h-265zM66 33h199v600h-199v-600z" />
    <glyph glyph-name=".null" horiz-adv-x="0" 
 />
    <glyph glyph-name="nonmarkingreturn" horiz-adv-x="333" 
 />
    <glyph glyph-name="space" unicode=" " horiz-adv-x="300" 
 />
    <glyph glyph-name="exclam" unicode="!" horiz-adv-x="215" 
d="M93 179q-27 16 -30.5 20t2.5 17q10 23 13.5 213t-5.5 215q-4 14 0.5 16t37.5 0q29 -1 39.5 -6t23.5 -25q14 -20 16 -35.5t-1 -66.5q-5 -74 -13 -152t-8 -146l-1 -68h-22q-23 0 -52 18zM82 -15q-32 11 -39 22q-21 30 -19 38.5t28 8.5q16 0 37 11.5t33 27.5q10 12 32 18.5
t27 -1.5q8 -13 7.5 -42.5t-8.5 -45.5q-17 -32 -40 -41t-58 4z" />
    <glyph glyph-name="ampersand" unicode="&#x26;" horiz-adv-x="455" 
d="M360 275q37 -11 58 -56.5t11 -61.5q-36 -55 -123 -81.5t-134 2.5q-65 39 -65 111q1 41 7 62q4 14 0.5 20t-22.5 15q-29 13 -51 51q-16 28 -17 34.5t10 15.5q49 37 106 68q25 14 109 70q60 40 76 46.5t33 -0.5q23 -10 32 -19t5.5 -26.5t-20 -41t-50.5 -65.5
q-66 -82 -64 -94q1 -1 18 -7t17 -15q1 -11 -7.5 -25t-16.5 -22t-9 -8l-50 21l-22 -49q-16 -35 -20.5 -64.5t3.5 -38.5q6 -5 34 1t59 19q48 21 71 40t12 43q0 3 1 9l3 18t4 20zM172 358q14 23 7 23q-6 0 -32 -16q-36 -28 -9 -32q19 0 34 25z" />
    <glyph glyph-name="parenleft" unicode="(" 
d="M245 90q0 20 58 57t116 58t58 1t-58 -57t-116 -58t-58 -1zM235 534q0 34 78 12q83 -23 142 -71q36 -29 36 -51q0 -34 -78 -12q-83 23 -142 71q-36 29 -36 51zM19 315q0 23 69 40t165 17t165 -17t69 -40t-69 -40t-165 -17t-165 17t-69 40z" />
    <glyph glyph-name="parenright" unicode=")" 
d="M265 90q0 -20 -58 1t-116 58t-58 57t58 -1t116 -58t58 -57zM275 534q0 -35 -81 -81q-83 -47 -141 -49q-34 -1 -34 20q0 35 81 81q83 47 141 49q34 1 34 -20zM491 315q0 -23 -69 -40t-165 -17t-165 17t-69 40t69 40t165 17t165 -17t69 -40z" />
    <glyph glyph-name="zero" unicode="0" horiz-adv-x="414" 
d="M138 143q15 8 51.5 59.5t57.5 93.5q17 34 32 85.5t15 77.5q0 14 -3.5 17t-14.5 0q-19 -6 -76 -40q-40 -24 -50 -35t-18 -40q-11 -44 -17.5 -98t-5.5 -91t10 -37q4 0 19 8zM109 87q-19 11 -42 33.5t-32 40.5q-23 43 -1 162t68 208q9 17 15.5 19.5t29.5 -0.5q33 -6 45 4
q20 17 99.5 -7.5t93.5 -51.5q13 -24 -3.5 -100t-48.5 -141q-13 -26 -46 -72.5t-51 -63.5q-27 -27 -64 -36t-63 5z" />
    <glyph glyph-name="one" unicode="1" horiz-adv-x="227" 
d="M137.5 66.5q-16.5 6.5 -27.5 19.5q-13 16 -14.5 76t8.5 147q15 131 -2 118q-2 -2 -5 -6q-6 -10 -29 -9t-36 10q-11 8 -6 19t37 53q45 61 46 71q0 10 17 13.5t37.5 -1.5t29.5 -16q10 -12 10 -89t-11 -183q-12 -110 -7 -170q3 -44 1.5 -52t-14.5 -8q-18 1 -34.5 7.5z" />
    <glyph glyph-name="two" unicode="2" horiz-adv-x="467" 
d="M83 45.5q-23 8.5 -36.5 23.5t-13.5 32q0 6 4 10.5t9 4.5q13 0 8 12q-5 14 -9 24q-3 6 2.5 11t17.5 9q25 9 25 15.5t27 35.5q105 113 175.5 209t58.5 108q-10 10 -70.5 -25t-117 -81t-56.5 -62q0 -9 -11.5 -10t-26 5t-24.5 16q-21 20 -21 43q0 10 7 10q6 0 39 29
q98 88 193 120.5t148 -3.5q28 -19 31 -34q7 -36 -30 -100t-136 -187q-71 -90 -68 -93q4 -4 73 14.5t77 24.5q10 8 23.5 2t24.5 -24q18 -28 3 -42.5t-83 -34.5q-84 -25 -137 -45q-58 -22 -70.5 -24t-35.5 6.5z" />
    <glyph glyph-name="three" unicode="3" horiz-adv-x="437" 
d="M57 65q-13 14 -26 50q-11 31 -4.5 41t33.5 4q21 -4 44 5q44 16 139.5 87t95.5 86q-4 10 -31 7t-69 -19t-69 -35q-23 -15 -29.5 -16t-22.5 11q-20 15 -28 39q-5 15 -3 22t15 17q19 15 63 53.5t70 60.5t20 27q-4 5 -37.5 -11.5t-81.5 -46.5q-29 -19 -41 -22.5t-24 1.5
q-23 11 -18.5 30.5t34.5 42.5q40 30 95 57t86 32t62.5 -7t46.5 -35q8 -12 8 -19.5t-8 -22.5q-12 -24 -49 -58q-39 -36 -27 -41q4 -2 15 -2q15 0 47.5 -21t40.5 -36q9 -16 9 -42q0 -27 -52.5 -77.5t-145.5 -113.5q-75 -50 -107 -60t-51 12z" />
    <glyph glyph-name="four" unicode="4" horiz-adv-x="429" 
d="M358 54q-35 5 -51 36.5t-20 100.5q-1 41 -2 42t-92 -31q-75 -26 -104 -29.5t-48 12.5q-11 9 -14.5 20t-2.5 33q1 23 7.5 38t28.5 41q35 41 35 45t42.5 60t62.5 100q12 27 19 34t18 4q24 -7 39.5 -20t15.5 -26q0 -42 -120 -201q-25 -33 -20 -43q1 -1 3 -1q7 0 67.5 26.5
t65.5 31.5q7 7 17.5 81t10.5 121q0 26 3.5 36.5t14.5 15.5q17 9 37 4q17 -4 24 -15t8 -41t-5 -84q-6 -61 -5.5 -86.5t6.5 -40.5q7 -17 6 -23t-11 -13q-15 -11 -16 -54q-1 -33 4.5 -82t12.5 -71q4 -15 -5 -20t-32 -1z" />
    <glyph glyph-name="five" unicode="5" horiz-adv-x="450" 
d="M91 46q-19 13 -30 39l-11 25l45 23q37 18 67.5 42.5t95.5 87.5q42 40 62.5 68t13.5 34q-4 5 -53.5 -14t-69.5 -33q-23 -16 -23 -27t-15.5 -16t-20.5 -17q-4 -12 -18.5 -11.5t-27.5 11.5q-9 9 -10.5 29t0.5 86q3 74 1.5 88.5t-13.5 14.5q-15 0 -37.5 20t-22.5 32
q0 13 35 15q25 2 30 6.5t5 24.5q0 19 4 24.5t19 7.5q22 2 44 -20l22 -22l62 15q62 14 105 18q39 3 43.5 -6.5t-22.5 -38.5q-35 -38 -148 -56q-25 -3 -30 -8t-5 -24q0 -28 -4 -39t3 -22q5 -7 14.5 -6.5t36.5 9.5q48 16 91 10.5t70 -32.5q27 -26 27 -44q0 -28 -62 -103.5
t-135.5 -139.5t-100.5 -64q-18 0 -37 13z" />
    <glyph glyph-name="six" unicode="6" horiz-adv-x="434" 
d="M249 156q31 34 26 39q-4 4 -45.5 -35.5t-41.5 -47.5q0 -14 37 20q12 11 24 24zM94 51q-48 27 -64 90.5t10 122.5q25 58 122.5 186t129.5 146q19 10 25.5 10t21.5 -10q22 -14 22 -26.5t-93 -131.5q-62 -80 -106 -147.5t-38 -73.5q3 -3 59 50q25 24 36 34.5t25.5 21.5
t20 13.5t16.5 3.5t17.5 -1t21.5 -7q37 -12 63.5 -33t26.5 -39q0 -25 -34.5 -77t-70.5 -82q-65 -53 -114.5 -64.5t-96.5 14.5z" />
    <glyph glyph-name="seven" unicode="7" horiz-adv-x="469" 
d="M76 86q-13 13 -16 22.5t0 24.5q7 34 45 107.5t83 141.5q2 2 5 7q43 64 40 72.5t-66 -4.5q-5 -1 -8 -2q-57 -12 -80 -12q-20 0 -37.5 16t-17.5 34q0 11 4 13t16 -1q15 -3 75 7.5t73 19.5q9 5 62 14.5t100 20.5q33 7 43.5 6t26.5 -12q24 -18 21 -29t-35 -19
q-27 -6 -37.5 -17.5t-39.5 -65.5q-41 -73 -96 -163.5t-85 -145.5q-12 -23 -24.5 -39.5t-18.5 -16.5q-12 0 -33 21z" />
    <glyph glyph-name="eight" unicode="8" horiz-adv-x="461" 
d="M172 358q14 23 7 23q-6 0 -32 -16q-36 -28 -9 -32q19 0 34 25zM267 137q38 17 60.5 39t22.5 44q0 20 -19 29.5t-71 14.5l-47 5l-22 -49q-16 -35 -20.5 -64.5t3.5 -38.5q6 -5 34 1t59 19zM172 78q-65 39 -65 111q1 41 7 62q4 14 0.5 20t-22.5 15q-29 13 -51 51
q-16 28 -17 34.5t10 15.5q49 37 106 68q25 14 109 70q60 40 76 46.5t33 -0.5q23 -10 32 -19t5.5 -26.5t-20 -41t-50.5 -65.5q-66 -82 -64 -93.5t35 -22.5t74 -42.5t56 -57.5q11 -18 11.5 -25t-8.5 -21q-36 -55 -123 -81.5t-134 2.5z" />
    <glyph glyph-name="nine" unicode="9" horiz-adv-x="390" 
d="M233 423q74 81 45 86q-1 1 -3 1q-19 0 -86.5 -80t-67.5 -102q0 -15 63 45q24 23 49 50zM225 72q-17 15 -20 26t1 50q4 54 21 107t13.5 56.5t-63.5 -46.5q-51 -44 -76.5 -49.5t-49.5 20.5q-21 22 -26 43q-10 39 49 140q27 46 85.5 104.5t83.5 63.5q32 8 68 -18t29 -52
q-4 -17 13 -41q18 -25 11.5 -80.5t-41.5 -160.5q-38 -115 -38 -134q0 -18 -8.5 -34.5t-18.5 -16.5t-33 22z" />
    <glyph glyph-name="less" unicode="&#x3c;" 
d="M140 171q0 13 10 23t23 10t23 -10t10 -23t-10 -23t-23 -10t-23 10t-10 23zM82 465q0 19 13.5 32t33.5 13t33.5 -13t13.5 -32t-13.5 -32t-33.5 -13t-33.5 13t-13.5 32zM245 90q0 20 58 57t116 58t58 1t-58 -57t-116 -58t-58 -1zM235 534q0 34 78 12q83 -23 142 -71
q36 -29 36 -51q0 -34 -78 -12q-83 23 -142 71q-36 29 -36 51zM19 315q0 23 69 40t165 17t165 -17t69 -40t-69 -40t-165 -17t-165 17t-69 40z" />
    <glyph glyph-name="greater" unicode="&#x3e;" 
d="M370 171q0 -13 -10 -23t-23 -10t-23 10t-10 23t10 23t23 10t23 -10t10 -23zM428 465q0 -19 -13.5 -32t-33.5 -13t-33.5 13t-13.5 32t13.5 32t33.5 13t33.5 -13t13.5 -32zM265 90q0 -20 -58 1t-116 58t-58 57t58 -1t116 -58t58 -57zM275 534q0 -35 -81 -81
q-83 -47 -141 -49q-34 -1 -34 20q0 35 81 81q83 47 141 49q34 1 34 -20zM491 315q0 -23 -69 -40t-165 -17t-165 17t-69 40t69 40t165 17t165 -17t69 -40z" />
    <glyph glyph-name="question" unicode="?" horiz-adv-x="564" 
d="M82.5 208q-26.5 24 -26.5 34q0 37 234 233q126 106 125 123q0 5 -8 5q-14 0 -130 -37.5t-137 -47.5q-26 -14 -42 -14q-13 0 -32 20t-19 33q0 14 165 62q61 17 73.5 23.5t79.5 17.5q41 7 61 7t42 -6q27 -9 49.5 -29.5t22.5 -38.5q0 -17 -44 -66t-118 -115
q-96 -84 -172 -156t-86.5 -72t-37 24zM74 -13q-12 7 -23.5 20t-15.5 25q-12 28 -11 32.5t19 4.5q17 0 52 19.5t35 29.5q0 5 24 15t38 10q23 0 1 -61q-25 -68 -58 -96q-5 -4 -10 -6q-19 -9 -23 -8.5t-28 15.5z" />
    <glyph glyph-name="at" unicode="@" horiz-adv-x="654" 
d="M283 91q29 15 96 52q22 12 25 17t-6 18q-13 18 -13 36.5t-6.5 18.5t-58.5 -53t-68 -53t-44 27.5t-28 56.5q0 31 28 82.5t66 94t66 50.5q28 7 61 -1.5t38 -24.5t-3.5 -24.5t-20.5 1.5t-28 1q-17 -9 -42.5 -39t-37.5 -54q-6 -13 -4 -14q3 0 35 34q35 38 51.5 44t50.5 -9
l30 -12l-6 -62q-6 -61 3 -61q10 0 30.5 45.5t36.5 100.5q12 45 13.5 65t-4.5 53q-9 49 -22.5 69t-37.5 20q-25 0 -38 -13t-31.5 -8.5t-81 -37t-62.5 -48.5t-25 -30q-46 -43 -92 -132t-47 -136q0 -21 12 -45.5t27 -33.5q13 -8 66.5 -6t71.5 11zM172 28q-42 12 -78.5 43
t-56.5 70q-15 29 -13 75t20 87q21 48 51.5 90t83.5 97q77 78 131 105.5t122 20.5q77 -7 134 -66.5t63 -139.5q3 -31 -1.5 -53.5t-20.5 -65.5q-40 -109 -82 -146q-13 -12 -24 -15t-32 -1q-35 4 -45 -10q-12 -17 -56.5 -47t-72.5 -40t-63 -11t-60 7z" />
    <glyph glyph-name="A" unicode="A" horiz-adv-x="458" 
d="M274 350q-15 -39 -22 -47q-13 -14 -5.5 -21.5t32.5 -7.5h34l-5 43q-6 43 -6 57q0 24 -11 10q-8 -10 -17 -34zM371 563q12 -22 17 -92q13 -182 19 -193q2 -4 11 -4q16 0 16 -8.5t-14 -8.5q-7 0 -9 -5t1 -21q5 -27 10 -93q4 -45 2.5 -57t-12.5 -16q-20 -7 -44 25.5
t-37 84.5l-14 60l-50 -6q-50 -6 -56 -9.5t-40.5 -67t-51.5 -81.5q-14 -16 -35 -18t-44 10q-20 10 -17.5 30.5t29.5 65.5q26 45 44 74q17 29 59 110.5t94 162.5q38 57 49.5 68.5t32.5 11.5q17 0 25 -4.5t15 -18.5z" />
    <glyph glyph-name="B" unicode="B" horiz-adv-x="504" 
d="M251.5 261q-63.5 -32 -76.5 -32q-5 0 -16 11.5t-21 26.5l-25 39v-76q0 -76 8 -71.5t10 -8.5q1 -4 4 -5.5t11 1t19.5 8.5t32.5 17q64 33 113 67t58 50q7 14 1 14q-5 1 -24 -3q-31 -6 -94.5 -38zM265 459q-54 -19 -98 -49.5t-49 -51.5q-5 -24 0 -31q2 -4 18.5 4.5t38.5 25
t40 32.5t53 40q46 35 49 46q-4 0 -52 -16zM109 562q21 -20 21 -49.5t3 -29.5t75 38q42 23 67 31.5t57 11.5l53 4l32 -34q30 -32 31.5 -52t-24.5 -55l-26 -35l38 -35q34 -31 41.5 -54t-7.5 -53q-24 -51 -118 -117t-155 -74q-19 -3 -30 0.5t-27 17.5q-13 10 -24.5 14.5
t-19 1.5t-7.5 -12q0 -8 -22 -16.5t-35 3.5q-8 8 -9.5 45.5t0.5 162.5q4 195 4 249v53l31 2q18 2 28.5 -2t22.5 -16z" />
    <glyph glyph-name="C" unicode="C" horiz-adv-x="436" 
d="M292 622q31 -9 55 -32q53 -49 0 -152q-26 -53 -38 -66t-29 -9q-30 8 -33 18t14 47q18 39 27 80t0 46q-19 12 -64.5 -51.5t-68.5 -136.5q-28 -84 -35 -171.5t12 -106.5q17 -17 109 80q130 138 153 150l18 10l-12 -39q-13 -39 -14.5 -51.5t-5.5 -16.5t-20 -37
q-19 -36 -54.5 -80t-62.5 -64q-35 -25 -61.5 -28.5t-58.5 12.5q-40 21 -57.5 42t-30.5 67q-14 47 -12.5 83t21.5 128q22 97 35 132t37 64q50 60 88.5 77.5t87.5 4.5z" />
    <glyph glyph-name="D" unicode="D" horiz-adv-x="471" 
d="M222 492q-41 -15 -51 -22q-9 -5 -14.5 -119t2.5 -125q6 -9 20 6t12 15q-1 0 6 7.5t19.5 20.5t27.5 28q45 47 87.5 108.5t42.5 80.5q0 14 -21.5 19t-57 0t-73.5 -19zM366 569q40 -20 58 -43t22 -60t-16 -81q-22 -46 -83 -126t-122 -143.5t-83 -67.5t-54 13q-19 9 -26.5 18
t-10.5 23q-3 26 2.5 34t3.5 149q-1 98 -3.5 123t-15.5 41q-17 22 -16 37.5t20 30.5q13 10 16.5 19t2.5 25q-2 17 1 22.5t14 6.5q18 3 44 -10q17 -10 30 -10t52 9q60 14 93 12t71 -22z" />
    <glyph glyph-name="E" unicode="E" horiz-adv-x="519" 
d="M466 607q20 -22 26.5 -44.5t-2.5 -33.5t-56 -20q-77 -15 -150 -34l-38 -9l-5 -50q-6 -50 -1 -54q3 -4 40.5 3.5t54.5 15.5q13 5 31 -23q26 -43 8.5 -61.5t-97.5 -32.5q-52 -10 -55 -12q-5 -6 -8 -63t2 -60q7 -4 108 26l100 31l16 -18q13 -14 23.5 -32.5t10.5 -27.5
q0 -8 -68 -25q-166 -43 -201 -62q-43 -22 -83 -8.5t-44 52.5q-2 11 2 16.5t16 8.5q14 3 17.5 13t5.5 55l2 63h-33q-30 0 -48 15.5t-18 40.5q0 17 8.5 23t46.5 17l56 16l9 40q9 41 6 49.5t-35 5.5q-20 -2 -28.5 1.5t-19.5 18.5q-24 35 -23 60t26 25q20 0 67 16.5t133.5 33.5
t130.5 33l44 15z" />
    <glyph glyph-name="F" unicode="F" horiz-adv-x="516" 
d="M473 588q13 -21 18 -46.5t-4 -32.5q-9 -8 -79 -17.5t-149 -26.5l-80 -17l3 -29q3 -30 4 -58q0 -18 3.5 -22t15.5 0q19 5 84.5 17.5t111.5 25.5q41 12 56 8.5t20 -26.5q10 -36 -29.5 -58.5t-170.5 -54.5l-78 -19l-1 -86v-24q0 -69 -4 -80t-29 -9h-9q-39 3 -40.5 15.5
t-7.5 83.5q-3 52 -7 62t-22 13q-21 4 -39 30t-18 51t13 29q7 2 12 -6q6 -10 29 -5q15 4 17.5 9t-0.5 22q-5 25 -5 51q0 16 -4.5 23t-19.5 12q-42 16 -42 85v8q-1 18 14 23.5t103 19.5q25 4 39 7q103 17 193.5 28.5t90.5 12t1.5 -2t4 -7t5.5 -9.5z" />
    <glyph glyph-name="G" unicode="G" horiz-adv-x="531" 
d="M292 651q34 -16 43 -32q10 -20 9.5 -78.5t-11.5 -96.5q-25 -86 -79 -42q-13 10 -14 20t8 52q22 101 16 108q-1 2 -8 1q-14 -3 -58 -78t-60 -124q-11 -33 -15 -63.5t-5 -87.5q0 -96 6 -102t51 37.5t41 50.5q-5 7 -24 7q-14 0 -38 19t-24 30q0 9 19 16q124 45 213 59
q64 10 68.5 17t36.5 7q22 0 27.5 -4.5t9.5 -24.5q6 -28 1 -41q-5 -11 -33 -24t-48 -13q-14 0 -19.5 -19t-19.5 -122q-19 -142 -25.5 -149.5t-46.5 12.5l-39 20l-3 55l-2 55l-36 -28q-44 -34 -76 -35.5t-77 28.5q-32 21 -45 55t-13 96q0 102 44.5 225.5t99.5 174.5
q33 30 58.5 33.5t67.5 -14.5z" />
    <glyph glyph-name="H" unicode="H" horiz-adv-x="496" 
d="M165 592q10 -11 11.5 -31t-2.5 -92q-4 -75 -2.5 -91t11.5 -16q18 0 87 14t74 19q7 6 6 101v95l28 5q26 5 44 -4t23 -30q5 -20 2 -92q-3 -43 -0.5 -63.5t11.5 -40.5q14 -33 13 -42.5t-20 -18.5l-21 -10l4 -127q3 -92 1 -110.5t-14 -23.5q-20 -8 -39 -1t-25 24
q-8 21 -13 126t-14 105q-22 0 -90 -13.5t-73 -18.5q-9 -9 1.5 -91t5.5 -95t-48 -10q-14 0 -21.5 1t-14.5 6t-10 10.5t-5 20t-2.5 29.5l-1.5 45q0 48 -4 62.5t-21 34.5q-47 53 0 69l25 9l-1 122q-1 122 4 130q8 12 43.5 9t47.5 -16z" />
    <glyph glyph-name="I" unicode="I" horiz-adv-x="156" 
d="M121 585q9 -10 10.5 -30t-2.5 -92q-6 -107 -11.5 -260t-11.5 -159.5t-45 1.5l-39 7v120q0 119 6 270l5 152l37 3q36 2 51 -12z" />
    <glyph glyph-name="J" unicode="J" horiz-adv-x="333" 
d="M299 600q13 -5 9.5 -26.5t-20.5 -41.5q-15 -18 -16.5 -29.5t4.5 -57.5q9 -61 8.5 -144t-8.5 -124q-21 -98 -72.5 -128t-150.5 -2l-31 9v47q1 47 12 105.5t24 83.5q11 20 14.5 21.5t11.5 -10.5q12 -17 19.5 -112.5t12.5 -100.5q8 -8 24 25q11 20 19 47q15 45 15 176v132
l-21 2q-34 4 -46.5 11t-21.5 27q-16 34 -9 45t55 29q42 15 94 20t74 -4z" />
    <glyph glyph-name="K" unicode="K" horiz-adv-x="524" 
d="M448 583q25 -7 40.5 -25t9.5 -34q-5 -13 -58.5 -56.5t-84 -68t-53.5 -42.5l-23 -18l31 -52q30 -49 67 -97.5t54 -60.5t27 -3.5t15 0.5q4 -7 -7.5 -17t-30 -17.5t-33.5 -7.5q-34 0 -85 37t-95 94q-16 21 -26 33.5t-20 22t-15.5 12.5t-11 0.5t-8 -9.5t-5 -23t-4 -34
t-2.5 -47q-6 -107 -16 -117q-6 -6 -16 -6t-35 8l-41 12l6 92q6 93 19 228.5t11 164.5q-2 21 2 25t29 6q21 1 31.5 -2t20.5 -15q13 -13 15 -28.5t0 -69.5q-3 -73 4 -74q2 0 7 4q13 9 70 50q56 41 114.5 93t61.5 51t35 -9z" />
    <glyph glyph-name="L" unicode="L" horiz-adv-x="480" 
d="M182 611q8 -12 9.5 -28t-1.5 -52q-8 -92 -10.5 -215t3.5 -129q8 -8 53 9q46 19 102 38.5t62 19.5q7 0 31.5 -34.5t24.5 -44.5q0 -4 -13.5 -12t-33.5 -16q-137 -53 -225 -103q-63 -37 -76 -37q-22 0 -41 15t-30 41q-17 39 -14.5 49t28.5 10h29l-2 247q-2 206 4 234
q5 25 23 27q4 1 29 1q21 0 30.5 -4t17.5 -16z" />
    <glyph glyph-name="M" unicode="M" horiz-adv-x="607" 
d="M551 609q10 -3 18 -11.5t11 -16.5q12 -34 -13 -237q-9 -74 -9 -194.5t-9 -126.5t-45.5 5.5t-47.5 23.5q-9 10 -9.5 35t5.5 115q9 135 6 153q-2 14 -21 -21q-11 -19 -28 -53q-46 -93 -51 -108t-33 -14t-68 18q-28 11 -35 17.5t-4 18.5q3 13 -23.5 89t-38.5 89
q-15 17 -17 -199q-2 -127 -9 -147q-5 -13 -12.5 -15.5t-35.5 -0.5q-40 4 -52 14.5t-5 34.5q11 40 20 223t1 217q-5 19 -1.5 25t24.5 14q28 12 64.5 12t53.5 -12q18 -13 35 -48t44 -116q30 -90 37 -102q5 -9 25 25q9 15 22 41q40 77 43 85t43.5 76t34.5 77q-9 16 19.5 21
t60.5 -7z" />
    <glyph glyph-name="N" unicode="N" horiz-adv-x="497" 
d="M441 588q24 -12 29.5 -39.5t-2.5 -91.5q-23 -175 -32 -328l-4 -89h-27q-26 0 -56.5 13t-30.5 24q0 4 -6 9t-14 7q-12 3 -16.5 9t-4.5 21q0 25 -33 90q-40 79 -91 212q-2 6 -4.5 9.5t-5 5t-4.5 -0.5q-5 -6 -10 -175l-4 -170l-20 -3q-20 -3 -52 7l-31 9l5 125
q5 125 11.5 193t-0.5 98q-7 33 8.5 42.5t69.5 6.5q39 -2 51.5 -6.5t31.5 -25.5q27 -29 45 -77q81 -217 93 -217q7 7 17 134.5t5 137.5q-8 14 -8 39q0 15 4.5 22t16.5 12q21 8 36 7.5t33 -10.5z" />
    <glyph glyph-name="O" unicode="O" horiz-adv-x="416" 
d="M182 568q-44 -20 -40 -29q2 -6 26 -4q68 4 78.5 -10t-29.5 -56q-32 -35 -46.5 -61t-31.5 -82t-17 -126q0 -53 8 -81t29 -45q9 -8 16.5 -4t27.5 26q51 59 79 224q12 69 11 151.5t-14 98.5q-12 13 -38.5 12.5t-58.5 -14.5zM296 605q50 -17 65.5 -30.5t23.5 -45.5
q7 -30 7 -117.5t-7 -135.5q-22 -151 -91.5 -218t-161.5 -25q-33 15 -59 40.5t-38 54.5q-10 24 -12.5 81.5t5.5 101.5q8 48 33.5 121t36.5 80q19 12 14 19q-2 4 -12 0q-6 -3 -5 3q4 17 42 51q7 7 14 12q29 22 62 24t83 -16z" />
    <glyph glyph-name="P" unicode="P" horiz-adv-x="538" 
d="M211 486q-8 -7 -13 -53t-4 -88.5t8 -42.5q23 0 81 40t101 86q62 66 21 72q-16 2 -103.5 -4t-90.5 -10zM354 614q41 -4 65.5 -19.5t63.5 -62.5q50 -62 19 -122q-22 -43 -110 -108t-165 -96l-36 -14l6 -58q9 -89 -1 -105q-6 -9 -40 -3t-53 19q-11 9 -14 15.5t-5 32.5t0 78
q3 110 8 201l4 91l-23 10q-24 10 -39 42q-12 25 -12 30.5t12 14.5q33 25 137.5 42.5t182.5 11.5z" />
    <glyph glyph-name="Q" unicode="Q" horiz-adv-x="472" 
d="M212 518q-31 -20 -61.5 -111t-36.5 -180q-3 -46 -1 -61t12 -28l16 -20l31 28q23 21 26.5 30.5t-1.5 46.5q-6 48 -25 68q-18 18 -18 23t20 12q18 7 47.5 0t47.5 -23q9 -8 14 -4.5t17 26.5q16 31 33 97t12 79q-4 14 -8 27q-3 8 -13 9.5t-42 -1.5q-51 -5 -70 -18zM229 629
q23 -7 32.5 -14.5t68.5 -25.5q56 -18 87 -45.5t31 -60.5q0 -46 -46 -166.5t-70 -134.5q-18 -12 13 -99q16 -47 12.5 -61t-32.5 -18q-24 -4 -33.5 3t-26.5 40q-20 36 -36 34q-55 -8 -72.5 -7t-44.5 15q-36 20 -61 51q-16 19 -21.5 35t-7.5 51q-2 45 10 115t31 120
q11 29 11 37t-10 19.5t-9 16t18 16.5q24 18 59 53q27 27 45 32t52 -6z" />
    <glyph glyph-name="R" unicode="R" horiz-adv-x="512" 
d="M247 518q-64 -17 -71 -24t-5 -49l3 -41l90 55q89 55 93 65q7 24 -110 -6zM387 602q40 -11 73 -48.5t27 -64.5q-5 -19 -52.5 -59t-102.5 -72q-55 -33 -55 -39q0 -5 65.5 -91.5t73.5 -91.5t21 -29q9 -18 7 -24.5t-20 -24.5q-30 -30 -45 -24q-4 1 -4 7q0 8 -50.5 59.5
t-103.5 115.5t-61 64q-4 0 -4.5 -30.5t3 -73.5t8.5 -79q3 -20 0.5 -26t-17.5 -9q-21 -6 -56 5l-35 11l-6 66q-6 66 1 193q6 95 4.5 115t-16.5 42q-20 29 -20 41q0 15 107 42t172 28q70 2 86 -3z" />
    <glyph glyph-name="S" unicode="S" horiz-adv-x="407" 
d="M353 657q18 -13 24 -27t5.5 -41t-8.5 -94q-15 -117 -22 -122q-6 -4 -38.5 1t-38.5 11q-5 5 -15 44l-10 39l-47 -49q-41 -42 -68 -77t-27 -46q0 -10 84 -14q73 -3 112 -18t59 -48q22 -36 15 -62.5t-50 -69.5t-85 -73.5t-69 -38.5q-14 -4 -22.5 -1.5t-20.5 16.5
q-15 15 -27 34.5t-12 27.5q0 4 67 51q122 86 122 103q0 7 -90 7q-63 0 -80 3t-34 17q-24 21 -41.5 62t-12.5 64q17 69 123 154q1 1 4 3q93 74 107.5 89.5t10.5 33.5v1q-3 14 0 19t14 9q43 11 71 -8z" />
    <glyph glyph-name="T" unicode="T" horiz-adv-x="590" 
d="M550 556q15 -30 16 -51.5t-13.5 -26t-64 -9.5t-81.5 -9l-31 -5l5 -169q5 -170 7 -199l2 -28l-51 -3l-50 -2l-5 43q-12 106 -12 244l-1 102l-64 -7q-69 -10 -107.5 -6.5t-53.5 17.5t-21 49q-9 48 9 48q6 0 14 -4q32 -17 142 0q58 9 186.5 23t142.5 21q8 3 14.5 -3
t16.5 -25z" />
    <glyph glyph-name="U" unicode="U" horiz-adv-x="468" 
d="M403 576q8 -5 10.5 -45t2.5 -175q0 -134 2.5 -180.5t11.5 -71.5q14 -42 14 -43q1 -4 -8.5 -5.5t-25 0.5t-30.5 7q-30 9 -37 16.5t-16 42.5q-14 47 -19 115l-6 68l-38 -60q-49 -76 -89.5 -96.5t-95.5 5.5q-17 8 -26 16.5t-16.5 24.5t-9.5 40t-4 64t0 96q2 111 4.5 141.5
t11.5 37.5q15 11 38 9.5t39 -14.5q13 -10 14 -21.5t-6 -62.5q-9 -63 -9.5 -156.5t7.5 -114.5q6 -14 11 -11q6 4 30 42q32 50 87.5 175t50.5 138q-5 12 5 19q11 7 48.5 6.5t48.5 -7.5z" />
    <glyph glyph-name="V" unicode="V" horiz-adv-x="511" 
d="M465 566q27 -15 20 -41t-56 -96q-58 -84 -97.5 -154t-72.5 -123.5t-28.5 -71.5t-6.5 -19q-34 -3 -73 14q-20 8 -27.5 21.5t-23.5 66.5q-21 73 -26 102t-13 132q-6 75 -10.5 99t-15.5 35q-13 13 -13 17t11 12q23 17 60.5 8t45.5 -33q6 -18 16.5 -148t16.5 -135.5t26 19.5
q24 30 84.5 121.5t78.5 126.5q23 46 46 56t58 -9z" />
    <glyph glyph-name="W" unicode="W" horiz-adv-x="598" 
d="M143 572q10 -10 9.5 -31t-12.5 -84q-7 -38 -4.5 -147t11.5 -124q0 -1 1 -3q5 -9 11 -2q10 10 75 114q10 16 15 25q27 43 28 52.5t2 20t54 11t59 -10.5q6 -9 4 -51q-1 -44 8.5 -105.5t22.5 -91.5l15 -33l10 36q9 30 7.5 175t-10.5 164q-6 14 -22.5 19t-7.5 14
q10 10 64.5 8t65.5 -12q11 -11 19 -155q7 -117 3.5 -164.5t-21.5 -82.5q-29 -58 -88 -57q-52 0 -90.5 29.5t-54.5 81.5q-13 42 -17 54.5t-17 -12.5q-59 -112 -147 -99q-54 8 -78.5 44.5t-32.5 123.5q-7 71 0.5 172.5t20.5 114.5t49 15.5t48 -9.5z" />
    <glyph glyph-name="X" unicode="X" horiz-adv-x="539" 
d="M500.5 582.5q14.5 -8.5 14.5 -20.5q0 -7 -56.5 -85.5t-108.5 -144.5q-6 -8 29.5 -63t75.5 -100q24 -27 28 -35.5t-5 -17.5q-7 -7 -35.5 -13t-50.5 -6t-26 5q-1 9 -2 17q-2 11 -39.5 60.5t-43.5 49.5q-9 0 -54 -55q-60 -74 -88.5 -99.5t-49.5 -25.5q-23 0 -45 9.5
t-22 19.5q0 16 56 93.5t95 115.5q46 45 46 53.5t-35 77.5q-52 104 -88 118q-15 6 10 24q20 15 43 19q35 7 58.5 -12t50.5 -75l32 -67l34 44q35 44 62 81q18 25 28.5 31.5t34.5 7.5q37 2 51.5 -6.5z" />
    <glyph glyph-name="Y" unicode="Y" horiz-adv-x="472" 
d="M114 589q10 -12 12 -149q2 -112 8.5 -149.5t24.5 -37.5q16 0 52 52t81 139q28 55 35.5 75.5t0.5 24.5q-15 9 12 18q20 7 48 7q23 0 32.5 -4t18.5 -16q9 -14 9.5 -43t-5.5 -136q-8 -136 -20.5 -189.5t-43 -87.5t-68 -47t-93.5 -8q-88 7 -88 22q0 6 9 32l9 26l18 -20
q15 -17 27.5 -14.5t40.5 25.5q39 35 66 87t27 92q0 17 -2 17.5t-12 -12.5q-15 -17 -34 -43q-26 -33 -54 -46.5t-67 -10.5q-44 4 -75 29q-28 22 -39 63t-12 132q-2 82 -8 125t3 52t43.5 7.5t43.5 -12.5z" />
    <glyph glyph-name="Z" unicode="Z" horiz-adv-x="498" 
d="M114 612q6 -2 10.5 -7t4.5 -10q0 -8 15 -9.5t73 2.5q88 5 149 15l61 9l23 -26q24 -26 24 -43.5t-60 -86.5q-128 -148 -186 -219t-58 -78q0 -4 1.5 -6t4.5 -1q6 4 64 26q94 36 118.5 47.5t24.5 19.5q0 5 3.5 8t8.5 3q10 0 28.5 -36.5t15.5 -50.5q-6 -33 -183 -93
q-107 -35 -130 -47q-32 -17 -68 5t-36 58q0 16 7 16t12 33q7 58 146 205q131 137 137 156q3 8 -91 3l-93 -5l-27 24q-26 24 -31 58q-4 28 1 32.5t31 -2.5z" />
    <glyph glyph-name="bracketleft" unicode="[" horiz-adv-x="597" 
d="M119 150q0 20 58 37.5t108 17t58 -19.5q0 -20 -58 -37.5t-108 -17t-58 19.5zM96 476q0 27 61 29t121.5 -18.5t60.5 -48.5q0 -27 -60.5 -29t-121.5 18.5t-61 48.5zM219 44q0 20 86.5 68.5t172.5 81t86 12.5t-86 -68.5t-172.5 -81t-86.5 -12.5zM221 610q0 31 89 -2.5
t178.5 -93t89.5 -90.5t-89 2.5t-178.5 93t-89.5 90.5zM19 317q0 22 107.5 38.5t213.5 16.5q96 0 165 -17t69 -40t-69 -40t-165 -17q-103 0 -212 18.5t-109 40.5z" />
    <glyph glyph-name="bracketright" unicode="]" horiz-adv-x="597" 
d="M478 150q-8 -19 -58 -19.5t-108 17t-58 37.5q8 19 58 19.5t108 -17t58 -37.5zM501 476q0 -28 -60.5 -48.5t-121.5 -18.5t-61 29q0 28 61 48.5t121.5 18.5t60.5 -29zM378 44q0 -20 -86 12.5t-172.5 81t-86.5 68.5t86.5 -12.5t172.5 -81t86 -68.5zM376 610q0 -31 -89 -90.5
t-178.5 -93t-89.5 -2.5t89 90.5t178.5 93t89.5 2.5zM578 317q0 -22 -109 -40.5t-212 -18.5q-96 0 -165 17t-69 40t69 40t165 17q106 0 213.5 -16.5t107.5 -38.5z" />
    <glyph glyph-name="a" unicode="a" horiz-adv-x="355" 
d="M211 342q-11 -29 -17 -35q-9 -10 -3.5 -16t24.5 -6h25l-4 33q-4 32 -4 43q0 19 -10 5q-5 -8 -11 -24zM284 502q8 -17 12 -69q11 -140 15 -146q2 -2 8 -2q12 0 12 -6t-10 -6q-6 0 -7.5 -4t1.5 -16q3 -20 7 -70q3 -34 2 -42.5t-9 -11.5q-15 -6 -33.5 18.5t-27.5 63.5
l-11 45l-38 -4q-37 -5 -41.5 -7.5t-30.5 -50t-38 -61.5q-23 -25 -60 -6q-15 8 -13 23t22 49t33 55q13 22 44.5 83.5t71.5 121.5q28 43 36.5 51.5t23.5 8.5q13 0 19.5 -3.5t11.5 -13.5z" />
    <glyph glyph-name="b" unicode="b" horiz-adv-x="390" 
d="M194.5 276q-47.5 -24 -57 -24t-27.5 28l-18 29v-57q0 -57 5.5 -53.5t7.5 -6.5q1 -3 3 -4t8 1t15 6.5t24 12.5q48 25 84.5 50.5t43.5 37.5q6 11 0 11q-4 0 -17 -3q-24 -4 -71.5 -28zM205 424q-40 -14 -73.5 -37t-36.5 -39q-3 -18 0 -23q2 -3 14 3.5t29 18.5t30.5 24.5
t38.5 30.5q37 27 37 34q-3 0 -39 -12zM88.5 501.5q15.5 -15.5 15.5 -37.5t2.5 -22t55.5 29q32 17 51 23.5t42 8.5l40 3l25 -26q22 -23 23 -38.5t-18 -41.5l-20 -26l28 -26q26 -23 31.5 -40.5t-5.5 -39.5q-18 -39 -88.5 -88.5t-116.5 -55.5q-14 -2 -22.5 0.5t-20.5 13.5
q-9 7 -18 10.5t-14.5 1.5t-5.5 -9t-16.5 -13t-25.5 3q-6 6 -7.5 34t0.5 122q3 146 3 186v40l23 2q23 2 38.5 -13.5z" />
    <glyph glyph-name="c" unicode="c" horiz-adv-x="339" 
d="M224 546q24 -6 42 -23q39 -37 0 -115q-20 -39 -29 -49t-21 -7q-23 6 -25 13.5t10 34.5q14 30 20.5 61t0.5 35q-15 9 -49 -39t-51 -102q-21 -64 -26.5 -129.5t9.5 -79.5q12 -13 81 60q98 103 115 113l14 7l-10 -30q-9 -29 -10 -38t-4 -12.5t-16 -27.5q-14 -27 -40.5 -60
t-46.5 -48q-26 -19 -46 -21.5t-44 9.5q-31 16 -43.5 31.5t-23.5 50.5q-10 35 -9 62t17 96q16 72 25.5 98.5t27.5 48.5q38 45 67 58t65 3z" />
    <glyph glyph-name="d" unicode="d" horiz-adv-x="365" 
d="M172 449q-31 -12 -38 -16q-7 -5 -11 -90t1 -94q5 -6 16 5t9 11q-1 0 4.5 5.5t14.5 15.5t20 21q35 35 66.5 81t31.5 61q0 10 -16.5 14t-43 0t-54.5 -14zM280 507q30 -16 43.5 -33t16.5 -44q3 -28 -12 -61q-25 -54 -107.5 -151t-108.5 -102q-16 -3 -41 9q-14 7 -19.5 14
t-7.5 18q-3 19 1.5 25t3.5 112q-1 73 -3.5 92t-11.5 30q-13 17 -12 28.5t15 23.5q16 12 14 32q-1 13 1 17t10 6q14 1 33 -9q13 -6 23 -6.5t39 6.5q45 10 69.5 8.5t53.5 -15.5z" />
    <glyph glyph-name="e" unicode="e" horiz-adv-x="401" 
d="M355 535q15 -16 20 -33t-2 -26q-7 -8 -42 -15q-58 -11 -113 -25l-28 -7l-4 -37q-4 -38 -1 -41q3 -2 31 3.5t41 10.5q10 5 23 -17q20 -32 6.5 -46t-73.5 -24q-39 -7 -41 -9q-4 -4 -6 -47t1 -45q6 -4 81 19l75 23l12 -13q10 -11 18 -25t8 -20t-51 -19q-124 -32 -151 -46
q-32 -17 -62 -7t-33 39q-2 15 13 19q11 3 13.5 10.5t4.5 40.5l1 48h-24q-23 0 -36.5 11.5t-13.5 30.5q0 12 6 16.5t36 12.5l41 12l7 31q7 30 4.5 36.5t-26.5 4.5q-15 -2 -21.5 1t-13.5 14q-19 26 -18 45t20 19q15 0 50 12.5t99.5 25t98.5 24.5l33 11z" />
    <glyph glyph-name="f" unicode="f" horiz-adv-x="399" 
d="M360 521q10 -16 13.5 -35t-2.5 -24q-7 -6 -59.5 -13t-111.5 -20l-60 -13l2 -22q2 -22 3 -43q0 -14 2.5 -17t11.5 0q14 4 63.5 13.5t84.5 18.5q30 9 41 6.5t16 -19.5q6 -27 -23.5 -44t-127.5 -41l-58 -14l-1 -64v-19q0 -51 -3 -59.5t-22 -7.5q-4 1 -7 1q-29 2 -30 11
t-5 63q-3 39 -6 46.5t-16 9.5q-16 3 -29.5 22.5t-13.5 38.5q0 21 11 22q4 1 8 -5q5 -8 21 -4q12 3 14 7t-1 17q-3 19 -3 38q0 12 -4 17t-15 9q-31 12 -31 64v6q0 14 10.5 18t76.5 14q19 3 30 5q77 13 145 22l68 9l1 -2t3 -5t4 -7z" />
    <glyph glyph-name="g" unicode="g" horiz-adv-x="409" 
d="M224 568q26 -12 33 -24q7 -15 6.5 -59t-8.5 -72q-19 -65 -59 -32q-10 8 -10.5 15t6.5 39q16 79 11 82q-1 1 -5 0q-11 -2 -44 -58t-45 -93q-14 -42 -14.5 -113.5t4.5 -76.5q4 -5 37.5 28t30.5 38t-17 5q-11 0 -29 14t-18 23q0 7 14 12q93 34 160 44q48 7 51.5 12.5
t27.5 5.5q17 0 21 -3t7 -18q4 -22 0 -32q-3 -8 -24 -17.5t-37 -9.5q-10 0 -14 -14.5t-15 -91.5q-14 -106 -19 -111.5t-34 8.5l-30 15l-2 41l-2 42l-27 -21q-33 -25 -57 -26.5t-57 21.5q-25 16 -34.5 41t-9.5 72q0 76 33.5 169t74.5 131q24 22 43.5 25t50.5 -11z" />
    <glyph glyph-name="h" unicode="h" horiz-adv-x="383" 
d="M129 524q8 -9 9 -24t-2 -69q-3 -56 -2 -68t9 -12q13 0 65 10.5t56 14.5q5 4 4 76v71l21 4q19 4 32.5 -3t17.5 -22.5t1.5 -69t8.5 -78t10 -32t-15 -13.5l-16 -8l3 -95q2 -69 1 -83t-10 -18q-16 -5 -30 -0.5t-19 18.5q-6 16 -9.5 94.5t-10.5 78.5q-16 0 -67.5 -10
t-55.5 -14q-6 -7 2 -68.5t4.5 -71t-36.5 -7.5q-28 1 -34 13t-7 71q0 36 -3 47t-16 25q-35 40 0 53l19 6l-1 92q-1 91 3 97q6 9 32.5 7t35.5 -12z" />
    <glyph glyph-name="i" unicode="i" horiz-adv-x="129" 
d="M96 518q7 -7 8 -22t-2 -69q-4 -80 -8 -195t-9 -119.5t-34 1.5l-29 5v89q0 90 4 204l5 114l27 1q27 2 38 -9z" />
    <glyph glyph-name="j" unicode="j" horiz-adv-x="261" 
d="M230 530q9 -4 6.5 -20t-14.5 -31q-12 -14 -13 -22.5t4 -43.5q6 -45 6 -107.5t-7 -93.5q-15 -73 -54 -95.5t-113 -1.5l-23 7v35q1 35 9 79t18 63q8 15 10.5 16t9.5 -8q9 -13 14 -84.5t9 -75.5q6 -6 19 19q8 15 14 35q11 34 11 133v98l-15 2q-26 3 -35.5 8t-16.5 20
q-12 26 -7 34t42 22q31 11 70 14.5t56 -2.5z" />
    <glyph glyph-name="k" unicode="k" horiz-adv-x="404" 
d="M341 517q19 -5 31 -18.5t7 -25.5q-4 -10 -44 -42.5t-62.5 -51t-40.5 -32.5l-17 -13l23 -39q23 -37 50.5 -73t39.5 -45q14 -9 21.5 -3t10.5 0q3 -5 -5.5 -12.5t-22.5 -13t-25 -5.5q-25 0 -63.5 28t-71.5 70q-16 21 -25 32t-17.5 16.5t-12 4t-7 -13t-4.5 -27.5t-3 -46
q-4 -80 -12 -87.5t-38 1.5l-31 9l4 69q5 70 15 171.5t8 123.5q-2 15 1.5 18.5t22.5 4.5q25 2 39 -12q9 -10 10.5 -21.5t0.5 -52.5q-2 -55 3 -55q1 0 5 2q10 7 52 38q43 31 86.5 69.5t45.5 38.5q2 -1 26 -7z" />
    <glyph glyph-name="l" unicode="l" horiz-adv-x="372" 
d="M142 538q10 -15 6 -60q-6 -69 -8 -161.5t3 -96.5q6 -6 39 7q109 43 124 43q5 0 23.5 -25.5t18.5 -33.5q0 -7 -36 -21q-102 -39 -169 -77q-47 -28 -56 -28q-17 0 -31.5 11.5t-22.5 30.5q-13 29 -11 37t21 8h23l-2 185v28q-2 126 2.5 147.5t33.5 20.5h6q16 0 23 -3t13 -12z
" />
    <glyph glyph-name="m" unicode="m" horiz-adv-x="467" 
d="M419 537q17 -6 22 -21q8 -26 -10 -178q-7 -56 -7 -146.5t-7 -94.5t-34 4t-36 18q-6 7 -6.5 26t3.5 86q7 101 5 115q-1 10 -16 -16q-8 -13 -21 -40q-35 -69 -38 -80q-4 -11 -25 -10.5t-51 12.5q-21 9 -26 14t-3 14q3 9 -17 66.5t-30 66.5q-11 13 -13 -149q-1 -96 -6 -110
q-4 -10 -9.5 -12t-26.5 0q-30 3 -39 10.5t-4 25.5q9 30 15.5 167.5t0.5 163.5q-3 14 -0.5 18t17.5 11q21 9 48.5 8.5t40.5 -9.5t25.5 -35t33.5 -87q22 -68 28 -77q4 -6 18 18q7 12 17 31q30 58 32.5 64.5t32.5 57t26 57.5q-8 12 16 16q21 3 44 -5z" />
    <glyph glyph-name="n" unicode="n" horiz-adv-x="384" 
d="M336 521q18 -9 22.5 -29.5t-2.5 -68.5q-17 -132 -23 -247l-4 -66h-20q-20 0 -42.5 9.5t-22.5 17.5q0 9 -15 13q-9 2 -12.5 6.5t-3.5 15.5q0 19 -24 68q-30 59 -69 159q-1 4 -3 7t-4 3.5t-3 -0.5q-4 -4 -7 -132l-4 -127l-15 -2q-15 -2 -38 5l-24 7l4 94q4 93 9 144.5
t-1 73.5q-5 25 6.5 32t51.5 5q30 -1 39.5 -5t23.5 -19q20 -22 33 -58q61 -162 70 -163q5 6 12.5 101.5t3.5 102.5q-5 11 -5 30q0 11 3 16t13 9q27 10 51 -2z" />
    <glyph glyph-name="o" unicode="o" horiz-adv-x="323" 
d="M142 506q-32 -15 -30 -22q1 -4 19 -3q51 3 59 -7.5t-22 -42.5q-24 -25 -34.5 -45t-23.5 -62t-13 -94q0 -40 6 -61t22 -34q7 -5 12.5 -2.5t19.5 19.5q39 44 60 168q9 52 8 114t-11 73q-8 10 -28 9.5t-44 -10.5zM228 534q37 -13 48.5 -23t17.5 -34q5 -23 5 -88.5t-5 -101.5
q-16 -113 -68.5 -163.5t-120.5 -19.5q-54 25 -73 72q-8 18 -9.5 61t3.5 76q6 36 25.5 91t27.5 60q15 9 11 14q-2 3 -9 0q-5 -2 -4 3q4 15 35 41q3 3 6 5q22 17 47 18.5t63 -11.5z" />
    <glyph glyph-name="p" unicode="p" horiz-adv-x="415" 
d="M163 444q-5 -5 -9 -39.5t-3.5 -66.5t6.5 -32q17 0 60.5 30t75.5 65q47 50 16 54q-12 2 -77.5 -3t-68.5 -8zM271 540q31 -3 49.5 -14.5t47.5 -47.5q37 -45 14 -91q-17 -32 -83 -81t-123 -71l-27 -11l4 -44q7 -67 0 -78q-5 -7 -30.5 -2.5t-39.5 14.5q-12 9 -13.5 20.5
t-0.5 73.5q2 83 5 151l4 68l-18 7q-17 8 -29 32q-9 19 -9 23t9 11q25 19 103 32t137 8z" />
    <glyph glyph-name="q" unicode="q" horiz-adv-x="365" 
d="M164 468q-22 -15 -45 -83t-28 -135q-2 -34 -0.5 -45.5t9.5 -21.5l12 -15l23 21q17 16 19.5 23.5t-1.5 34.5q-4 36 -19 51q-13 13 -13 17t15 9q14 6 36 0.5t35 -17.5q7 -6 11 -3t12 20q12 23 25 72.5t9.5 59.5t-6.5 20q-2 6 -9.5 7t-31.5 -1q-38 -4 -53 -14zM177 552
q17 -5 24.5 -11t51.5 -19q42 -14 65 -34.5t23 -45.5q0 -35 -34.5 -125t-51.5 -101q-14 -8 9 -74q12 -35 9.5 -45.5t-24.5 -13.5q-18 -3 -25 2t-20 30q-15 27 -26 26q-42 -7 -55.5 -6t-33.5 12q-27 14 -46 38q-12 14 -15.5 26t-5.5 38q-2 34 7 86.5t24 89.5q8 22 8 28
t-7.5 14.5t-6.5 12t14 13.5q17 13 44 39q20 20 33.5 23.5t38.5 -3.5z" />
    <glyph glyph-name="r" unicode="r" horiz-adv-x="395" 
d="M191 468q-48 -12 -53.5 -17.5t-3.5 -36.5l2 -31l67 41q68 41 70 49q6 17 -82 -5zM296 532q30 -9 55 -37t19 -49q-3 -13 -38.5 -43.5t-77 -54.5t-41.5 -29q0 -4 49.5 -69t55.5 -68.5t15 -21.5q7 -13 5.5 -18t-14.5 -19q-26 -25 -35 -17q-2 1 -2 5q0 5 -38 44t-77.5 87
t-46.5 48q-3 0 -3 -23t2.5 -55.5t6.5 -58.5q2 -16 0 -20t-13 -7q-16 -4 -42 4l-26 9l-5 49q-4 49 1 145q5 71 3.5 86t-12.5 31q-15 22 -15 31q0 11 80.5 31t128.5 22q53 1 65 -2z" />
    <glyph glyph-name="s" unicode="s" horiz-adv-x="317" 
d="M270 573q19 -14 21.5 -33t-5.5 -89q-11 -87 -16 -91q-5 -3 -29.5 0.5t-28.5 8.5q-4 4 -11 33l-8 29l-35 -37q-31 -32 -51 -58t-20 -34t63 -11q54 -2 83.5 -13.5t44.5 -35.5q16 -28 11 -47.5t-38 -51.5q-71 -72 -115 -84q-11 -3 -17 -1t-16 12q-10 11 -19.5 26t-9.5 20
q0 3 51 39q91 64 91 77q0 5 -67 5q-47 0 -60 2.5t-26 13.5q-18 15 -31 46t-9 48q13 51 92 115q1 1 3 2q69 56 80.5 68t8.5 25v1q-3 10 -1 14t11 6q33 9 53 -5z" />
    <glyph glyph-name="t" unicode="t" horiz-adv-x="454" 
d="M418 497q11 -23 12 -39t-10 -19.5t-48 -7t-61 -6.5l-24 -4l4 -127q4 -127 6 -149l1 -21l-38 -2l-38 -2l-4 33q-8 79 -9 183v76l-48 -5q-80 -9 -105 -1t-32 46q-6 35 7 36q4 0 10 -3q24 -13 107 0q43 6 139.5 17t107.5 15q6 3 10.5 -1.5t12.5 -18.5z" />
    <glyph glyph-name="u" unicode="u" horiz-adv-x="363" 
d="M308 512q6 -4 7.5 -34t2.5 -131q0 -100 2 -135t8 -55q11 -30 11 -31q0 -3 -7 -4t-18.5 0.5t-22.5 4.5q-22 7 -27.5 12.5t-12.5 31.5q-10 36 -14 87l-5 51l-28 -45q-37 -58 -67.5 -73t-71.5 4q-16 8 -23.5 16t-12.5 29t-5.5 49.5t-0.5 86.5q1 83 3 106t9 28q12 8 29 7
t28 -10q10 -8 11 -16.5t-4 -46.5q-7 -48 -7.5 -118t5.5 -85q5 -12 9 -8q4 3 22 31q24 37 65.5 131t37.5 103q-3 9 5 15q8 5 36 4.5t36 -5.5z" />
    <glyph glyph-name="v" unicode="v" horiz-adv-x="395" 
d="M355 504q20 -11 14.5 -30.5t-41.5 -72.5q-45 -63 -74 -115t-54 -92.5t-21.5 -54t-4.5 -14.5q-26 -2 -55 11q-15 6 -21 16t-17 50q-16 55 -20 76.5t-10 98.5q-4 57 -7.5 75t-11.5 26q-10 10 -10 12.5t8 8.5q17 13 45.5 6.5t34.5 -24.5q4 -13 12 -110.5t12.5 -101.5
t19.5 14q18 23 63.5 91.5t58.5 94.5q18 34 35 42t44 -7z" />
    <glyph glyph-name="w" unicode="w" horiz-adv-x="460" 
d="M113 509q7 -8 7 -23.5t-9 -62.5q-6 -29 -4 -110.5t9 -93.5q4 -8 7 -5q6 4 69 106q21 32 21.5 39.5t1.5 15t40.5 8t44.5 -7.5q4 -7 3 -39q-2 -33 5.5 -79t17.5 -68l11 -26l8 28q6 22 5 131t-7 123q-5 11 -17.5 14.5t-5.5 10.5t48 6t49 -9q9 -9 15 -116q5 -88 2.5 -123.5
t-16.5 -62.5q-22 -43 -66 -43q-39 1 -67.5 23t-41.5 61q-10 31 -13 40.5t-13 -9.5q-44 -84 -109 -74q-41 6 -59 33.5t-25 92.5q-5 54 0.5 130t15.5 85q10 10 37 12t36 -7z" />
    <glyph glyph-name="x" unicode="x" horiz-adv-x="415" 
d="M380.5 516.5q10.5 -6.5 10.5 -15.5q0 -5 -42 -63.5t-81 -108.5q-5 -6 22 -47.5t57 -74.5q18 -21 21 -27.5t-4 -12.5q-5 -6 -26.5 -10t-38 -4.5t-19.5 4.5l-2 12q-1 8 -29 45.5t-33 37.5q-6 0 -40 -42q-46 -55 -67 -74t-37 -19q-17 0 -33.5 7t-16.5 15q0 11 42 69.5
t72 86.5q34 34 34 40.5t-26 57.5q-40 78 -67 89q-12 5 9 19q15 10 31 13q27 5 44.5 -9t37.5 -56l24 -50l26 33q26 33 46 60q14 19 21.5 24t25.5 6q28 1 38.5 -5.5z" />
    <glyph glyph-name="y" unicode="y" horiz-adv-x="366" 
d="M91 522q8 -9 9 -112q1 -84 6 -112t19 -28q11 0 38 38.5t61 104.5q22 41 27.5 56.5t0.5 18.5q-13 7 11 14q14 5 34 5q17 0 24 -3t14 -13q6 -10 6.5 -32t-3.5 -102q-6 -102 -15.5 -142t-32.5 -65.5t-51 -35t-70 -6.5q-66 6 -66 17q0 4 7 24l7 19l13 -15q11 -12 20.5 -10.5
t30.5 19.5q29 26 49.5 64.5t20.5 69.5q0 12 -1.5 12.5t-9.5 -8.5q-11 -13 -26 -33q-35 -47 -90 -42q-33 2 -56 21q-21 17 -29 47.5t-10 99.5q-1 61 -5.5 93.5t1.5 38.5q8 7 33.5 6t32.5 -9z" />
    <glyph glyph-name="z" unicode="z" horiz-adv-x="385" 
d="M91 539q11 -3 11 -13q0 -6 11.5 -7t54.5 2q66 4 112 11l46 7l17 -20q18 -19 18 -32t-45 -65q-183 -212 -183 -223q0 -3 1.5 -4.5t2.5 -0.5q5 3 48 19q71 28 89.5 36.5t18.5 14.5q0 8 9 8q7 0 21 -27.5t12 -38.5q-5 -24 -138 -69q-80 -27 -97 -36q-24 -12 -51 4.5
t-27 43.5q0 12 5.5 12t8.5 25q6 43 110 153q98 103 103 118q2 5 -68 2l-71 -4l-20 18q-19 18 -23 44q-3 20 1 23.5t23 -1.5z" />
    <glyph glyph-name="braceleft" unicode="{" horiz-adv-x="597" 
d="M166 541q13 23 93.5 11t174.5 -50.5t94 -66.5q-13 -23 -93.5 -11t-174.5 50.5t-94 66.5zM219 44q0 20 86.5 68.5t172.5 81t86 12.5t-86 -68.5t-172.5 -81t-86.5 -12.5zM19 317q0 22 107.5 38.5t213.5 16.5q96 0 165 -17t69 -40t-69 -40t-165 -17q-103 0 -212 18.5
t-109 40.5z" />
    <glyph glyph-name="braceright" unicode="}" horiz-adv-x="597" 
d="M427 541q0 -28 -94 -66.5t-174.5 -50.5t-93.5 11q0 28 94 66.5t174.5 50.5t93.5 -11zM374 44q0 -20 -86 12.5t-172.5 81t-86.5 68.5t86.5 -12.5t172.5 -81t86 -68.5zM574 317q0 -22 -109 -40.5t-212 -18.5q-96 0 -165 17t-69 40t69 40t165 17q106 0 213.5 -16.5
t107.5 -38.5z" />
    </font>
</defs>
</svg>
