<?xml version="1.0" standalone="no"?>
<!DOCTYPE svg PUBLIC "-//W3C//DTD SVG 1.1//EN" "http://www.w3.org/Graphics/SVG/1.1/DTD/svg11.dtd" >
<svg xmlns="http://www.w3.org/2000/svg" xmlns:xlink="http://www.w3.org/1999/xlink" version="1.1">
<metadata>
Created by FontForge 20200314 at Tue May 19 01:25:19 2020
 By www-data
Summer Vibes (c) (MJB Letters). 2019. All Rights Reserved
</metadata>
<defs>
<font id="SummerVibes" horiz-adv-x="323" >
  <font-face 
    font-family="Summer Vibes"
    font-weight="400"
    font-style="italic"
    font-stretch="normal"
    units-per-em="1000"
    panose-1="2 0 5 0 0 0 0 9 0 0"
    ascent="800"
    descent="-200"
    x-height="508"
    cap-height="1079"
    bbox="-125 -311 979 1169"
    underline-thickness="50"
    underline-position="-100"
    slope="-12"
    unicode-range="U+001D-E006"
  />
<missing-glyph horiz-adv-x="500" 
 />
    <glyph glyph-name="l_l" unicode="ll" horiz-adv-x="481" 
d="M440 -311q-17 0 -23 12q-19 50 -35 122q-14 59 -21 118q-22 187 -22 359q-27 -142 -78 -222q-8 -12 -23.5 -33.5t-19.5 -26.5q-18 -25 -55 -25l-12 1q-50 7 -76 42q-22 30 -29 79q-16 109 -16 246q0 39 2 117q7 217 37 367q1 9 16 9l11 -1q22 -5 23 -20q1 -19 1 -58
l-3 -132q-5 -122 -5 -220q0 -73 2 -110q3 -83 12 -165q8 -77 23 -104q3 -5 7 -10l3 -2h-1q6 0 18 5q18 7 34 24q25 27 46 68q9 17 16.5 36t13 34t11 38t9 35.5t8 39.5t6 36.5t6.5 39.5t6 37l20 123l3 29q15 134 34 209q1 8 13 8q9 0 17 -5t8 -12q-2 -32 -7 -113.5t-7 -125.5
q-3 -90 -3 -180q0 -129 7 -242q9 -122 20 -211q6 -51 9 -102q5 -77 5 -93v-11q0 -10 -11 -10z" />
    <glyph glyph-name="e_e" unicode="ee" horiz-adv-x="819" 
d="M189 46q-29 0 -53 8q-33 10 -58 32.5t-37 54.5q-11 30 -11 69q0 28 7 67q27 137 110 203q35 29 60 35q14 2 21 2q16 0 27 -4q16 -5 28 -15q24 -22 24 -44v-2q-1 -21 -24 -52q-28 -38 -71 -65.5t-89 -31.5q-14 -46 -18 -80l-1 -23q0 -45 19 -78l3 -5q0 -1 2 -3q4 -6 6 -8
l6 -8l4 -4q2 -2 3 -2q2 -2 3 -2l3 -1q2 -2 5 -2h-2l4 -1q5 0 7 -1q7 0 10 -1q35 0 106 23q25 8 52 21q5 2 24 11.5t30 13.5l9 2q7 0 14 -5t7 -11q0 -3 -2 -5q-17 -17 -61 -40q-34 -17 -70 -29q-55 -19 -97 -19zM267 473l2 1zM131 326q33 10 55 24q47 30 73 75q14 25 14 34
q0 7 -4 11l-3 2q-2 0 -3 -1q-3 0 -5 -1q-2 0 -2 -1q-2 0 -6 -2q-42 -19 -74 -61q-25 -31 -45 -80zM613 76h-12q-74 4 -113 41q-44 43 -44 117v5q0 55 27 114q28 59 69 100q27 26 53 32q7 2 21 2q28 0 44 -13t18 -55q0 -34 -7 -55q-16 -57 -74 -72q-22 -5 -40 -5q-12 0 -40 4
q-10 -36 -10 -75l1 -25q8 -61 40 -75q30 -13 66 -13h14q85 6 137 83q3 4 9 4t11.5 -4t5.5 -9v-2q-20 -48 -70 -73.5t-106 -25.5zM635 456h-1h1zM520 307q38 0 63 10q48 19 55 79v11q0 18 -3 35q0 1 -3 13v1l-12 -4q-28 -14 -64 -70q-22 -34 -36 -75z" />
    <glyph glyph-name="t_t" unicode="tt" horiz-adv-x="330" 
d="M348 678q5 -6 -5 -8l-5 1q-27 9 -66 7h-2l-2 -1q-9 -233 -10 -301q-2 -102 -2 -153v-72q0 -3 0.5 -14.5t0 -16.5t-1.5 -13.5t-4.5 -15t-8.5 -11.5q-6 -6 -16 -4t-15 9q-13 16 -16 43q-1 14 -1 41q-2 56 -2 84q-3 152 8 315q2 35 8 105q-50 -3 -98 -12q-9 -199 -5 -342
q2 -62 10 -181q4 -61 7 -88q4 -32 5 -48q0 -14 -1 -20q-1 -10 -8 -20q-6 -7 -17 -4t-15 9q-13 16 -15 28q-1 4 -3 12.5t-3 12.5q-1 8 -2 16.5t-2 19t-2 16.5q-4 30 -10 100q-15 166 -7 362q4 73 7 113q-49 -12 -81 -29q-48 -22 -60 -44q-3 -3 -8 -3.5t-9 3t-2 7.5
q14 34 65 61q44 23 98 37q2 24 4 38q8 60 13 90q4 31 10 46q1 3 3 9.5t3 9.5q4 9 13 14q7 4 11 -2q7 -12 8 -24q0 -4 0.5 -12.5t0.5 -12.5q0 -18 -2 -52q-1 -15 -2.5 -45.5t-2.5 -45.5q34 6 65 9q11 1 35 3q1 5 2 14.5t1 14.5q3 27 11 81q0 1 3 18t6 25q1 3 3.5 9t3.5 9
q3 7 12 11q6 4 10 -2q8 -9 9 -20q2 -18 2 -25q1 -15 -1 -45q-2 -60 -4 -91q5 -1 13 -1q52 -7 66 -24z" />
    <glyph glyph-name="s_s" unicode="ss" horiz-adv-x="477" 
d="M77 24q-15 0 -27 8t-12 19q0 6 1.5 10.5t5.5 8.5t7 6l10.5 7t11.5 7q77 54 77 89q-1 12 -4 20q0 1 -1.5 3t-1.5 4q-2 4 -7 9.5t-7 8.5l-26 21q-36 29 -54.5 52t-19.5 56q0 26 20 66q50 95 108 135q14 9 22 10q10 0 19 -6t9 -14q0 -2 -2 -8q-7 -10 -21.5 -30t-20.5 -30
q-2 -3 -12 -19.5t-14 -23.5t-12 -22t-12 -25t-7 -23.5t-3 -24.5q0 -16 20 -38l8 -8q6 -5 22.5 -19t22.5 -19t18 -17.5t16.5 -21.5t9.5 -22t5 -27q0 -47 -72 -103q-20 -16 -31 -23q-1 -1 -6 -4.5t-8 -4.5q-8 -4 -23 -6zM309 27q-14 0 -25 7.5t-11 17.5q0 5 1 9t5.5 8t6.5 5.5
t10 6.5t11 7q71 50 71 82q-1 9 -4 19q0 1 -1.5 2.5t-1.5 3.5q-2 3 -3.5 5.5t-4.5 5.5t-5 6l-24 19q-33 27 -50 48.5t-18 51.5q0 23 18 61q48 88 100 124q12 8 21 10q10 0 17.5 -6t7.5 -13q0 -5 -1 -7q-6 -10 -19.5 -28t-19.5 -28q-2 -4 -13 -21.5t-16 -26.5t-12.5 -24.5
t-11 -28.5t-3.5 -26q0 -15 19 -35q0 -1 7 -8q5 -4 24.5 -20t25 -22t17 -19.5t15.5 -26t5 -28.5q0 -44 -67 -95l-28 -21q-2 -1 -6 -4.5t-7 -4.5q-7 -3 -21 -5z" />
    <glyph glyph-name="f_f" unicode="ff" horiz-adv-x="561" 
d="M152 -311q-9 0 -17 5q-47 32 -66 69q-16 28 -27 81q-10 46 -12 155q0 268 51 460q7 23 10.5 32.5t14.5 23.5t27 16q11 0 20 -7t9 -15l-1 -8q-3 -35 -5 -44q-31 -144 -40 -240l66 -1q94 0 152 1q15 0 16 -12q0 -6 -8 -6q-150 -3 -228 -6q-1 -3 -1 -7q74 -200 74 -332
q0 -59 -11 -128q-6 -21 -6 -23q-1 -14 -18 -14zM140 -235q9 47 10 88q0 98 -43 240l-1 -124q0 -88 13 -144q4 -26 21 -60zM358 -258q-24 0 -43 17q-19 19 -21 57q-3 83 -4 145q0 117 8 209q-14 22 -14 35q2 12 5.5 16.5t13.5 7.5q17 147 44 257l3 12t4 14t5 10q3 3 8 3
q19 0 21 -24l-1 -8l1 -7q0 -2 -2 -4q-3 -15 -7 -55q-16 -122 -20 -189q81 9 148 13q19 0 24 -18q0 -9 -9 -10q-42 -8 -166 -24q-2 -32 -2 -46q60 -128 60 -253q0 -37 -7 -88q-7 -45 -20 -58q-11 -12 -29 -12zM354 -183q9 37 10 107q0 57 -14 116l-1 -66l2 -89z" />
    <glyph glyph-name="o_o" unicode="oo" horiz-adv-x="568" 
d="M146 129h-3q-41 0 -65 34q-13 18 -22 57q-10 57 -10 104q7 210 93 210q15 0 31 -7.5t16 -16.5q0 -12 -14 -12l-5 1q-1 -1 -3.5 -2.5t-4.5 -3.5q-6 -5 -10 -19q-28 -62 -28 -163q0 -50 9 -96q2 -12 4 -18q0 1 2 3q36 47 61 111t25 124q0 56 -26 98t-71 42q-39 0 -60 -32
q-3 -5 -11 -5t-16 5t-8 11l1 4q24 43 81 43q69 -2 109 -51q48 -61 48 -184q0 -117 -69 -206q-24 -31 -54 -31zM425 145h-2q-38 0 -60 31q-13 19 -20 52q-9 48 -9 95q1 36 5.5 67t13.5 60.5t26 47t40 17.5q13 0 27.5 -7t14.5 -15q0 -11 -12 -11l-5 1q-1 -1 -3 -2.5t-4 -3.5
q-7 -4 -9 -17q-26 -57 -26 -149q0 -44 8 -87q2 -11 4 -17q0 1 2 3q33 43 55.5 101.5t22.5 112.5q0 51 -23.5 89.5t-64.5 38.5q-36 0 -55 -29q-3 -4 -10 -4t-14.5 4.5t-7.5 9.5l1 4q22 39 74 39q63 -2 99 -47q45 -57 45 -168q0 -105 -64 -188q-23 -28 -49 -28z" />
    <glyph glyph-name=".notdef" horiz-adv-x="500" 
 />
    <glyph glyph-name=".null" horiz-adv-x="0" 
 />
    <glyph glyph-name=".null" horiz-adv-x="0" 
 />
    <glyph glyph-name="nonmarkingreturn" horiz-adv-x="508" 
 />
    <glyph glyph-name="space" unicode=" " horiz-adv-x="251" 
 />
    <glyph glyph-name="space" unicode="&#xa0;" horiz-adv-x="251" 
 />
    <glyph glyph-name="exclam" unicode="!" horiz-adv-x="149" 
d="M53 233q-11 0 -13 9l-4 24l-4 20l-1 41l3 79q14 336 62 573q1 4 7 4q15 0 15 -8l-17 -163q-15 -161 -23 -289q-5 -72 -6 -145l-3 -71q-1 -31 -11 -70q-1 -4 -5 -4zM61 -2q-3 0 -9 3q-21 15 -21 61v11q0 17 5 39l5 15q4 8 5 9t4 3t4 4q1 1 4 1q7 0 7 -4v-1q0 -2 2 -8
q0 -6 -1 -9q0 -6 -2 -16q-2 -13 -2 -38q2 -24 4 -36q3 -18 3 -19q0 -8 -4 -13z" />
    <glyph glyph-name="quotedbl" unicode="&#x22;" horiz-adv-x="229" 
d="M47 866q-10 0 -12 7q-3 7 -3 18t4 29q5 19 17 43q21 42 58 73q3 3 8 3q6 0 11.5 -3.5t5.5 -7.5q0 -3 -2 -5q-35 -32 -54 -71q-9 -19 -15 -41q-8 -34 -13 -42q-2 -3 -5 -3zM123 874q-13 0 -13 8v1q3 29 27 79q17 35 41 72q2 2 5 2q13 0 13 -8l-1 -2q-19 -34 -36 -72
q-4 -10 -13 -36.5t-15 -39.5q-1 -4 -8 -4z" />
    <glyph glyph-name="numbersign" unicode="#" horiz-adv-x="745" 
d="M186 204q-11 0 -16 5q-16 16 -17 32l-1 8l3 24q4 28 14 84l21 124l-36 -11q-15 -5 -31 -11t-35 -13.5t-30 -11.5l-8 -1q-6 0 -13 5q-4 4 -4 9t4 6q33 17 113 46l46 16l36 187q-17 -3 -29 -7l-69 -13q4 -4 4 -7q0 -4 -5 -4l-43 2q-6 0 -9 -1h-2q-9 0 -15 6q-3 3 -3 7
q0 5 4 6q12 5 38.5 11t29.5 7l67 15q13 2 39 8l15 75l18 75q2 15 8 37q7 29 12 34q1 4 8 4q14 0 16 -9l2 -10l-2 -11q-2 -12 -4 -19q-2 -11 -8 -41l-15 -84l-9 -43q110 22 165 31q6 2 22 4q20 59 40 105q3 6 11 6q6 0 11.5 -4t5.5 -9v-2q-9 -34 -28 -89l61 10q84 14 126 16
q12 0 18 -9l1 -5q0 -5 -7 -7q-24 -7 -136 -24l-72 -12q-20 -64 -48 -176l18 2q22 2 32 2q44 0 73 -16q6 -5 6 -10q0 -7 -8 -7h-4q-27 5 -46 5h-8q-27 -1 -54 -6l-17 -3q-9 -37 -14 -62q-1 -5 -4 -15t-5 -18t-3 -15q-11 -43 -12 -47t-6 -4q-13 0 -13 9t5 57q1 6 3.5 25.5
t4.5 29.5l6 33q-74 -13 -150 -35q-11 -4 -19 -5l-1 -4q-18 -98 -26 -147l-13 -73q0 -3 -2 -14.5t-2 -17.5q2 -21 4 -24q1 -2 1 -5q0 -6 -10 -6zM241 529q86 26 170 40q9 42 31 124l15 51l-182 -34q-10 -49 -34 -181z" />
    <glyph glyph-name="dollar" unicode="$" horiz-adv-x="409" 
d="M194 192q-6 0 -11.5 4t-5.5 8q0 32 4 98l-20 -1q-31 0 -60 12q-61 24 -69 69v2q0 6 8 6q12 0 17 -7q19 -28 36 -38q18 -10 47 -14h8q15 0 35 5q4 44 5 66l18 204q-44 51 -58 99q-9 32 -9 66q0 76 45 181q24 58 66 64q7 60 12 80q1 4 6 4q12 0 14 -9v-10q0 -29 -5 -66
q38 -11 41 -42q0 -4 -6 -4q-10 0 -12 7q-2 21 -24 23q-1 -3 -1 -9l-35 -376q13 -14 36.5 -38t31.5 -32q48 -52 63 -89q5 -15 5 -27q0 -17 -8 -30q-14 -21 -41 -36q-62 -39 -112 -54q-7 -69 -13 -110q0 -6 -8 -6zM210 652l28 273q6 42 8 63q-7 -7 -15 -19q-9 -14 -25 -59
q-14 -39 -20 -70q-9 -43 -9 -74q0 -26 6 -52q7 -30 27 -62zM218 347q22 9 47 23q2 1 13.5 7t16.5 9t14 9.5t13.5 12t8.5 13.5t4 16v6q-2 15 -26 50q-15 21 -33 39l-39 41l-3 -29q-3 -33 -8 -99t-8 -98z" />
    <glyph glyph-name="percent" unicode="%" horiz-adv-x="440" 
d="M101 185q-22 0 -40 18q-17 17 -17 41l9 48q14 55 25 95q27 98 55 188q61 188 135 368q3 7 10.5 23.5t12 29t6.5 24.5l1 12q0 39 -31 46l-10 1q-31 0 -58 -27q-19 -15 -29 -29q-3 -5 -3 -9t1.5 -8t5 -9.5t4.5 -8.5q9 -22 9 -47q0 -51 -34 -93t-83 -49h-4q-17 0 -21 14
q-3 15 -3 30q0 48 27.5 91.5t69.5 66.5l3 1q-2 3 -4 11l-1 5q0 13 17 26q55 51 96 51q18 0 38 -11q31 -19 31 -61q0 -29 -14 -69q-51 -152 -116 -371q-32 -109 -53 -185q-4 -15 -12.5 -46.5t-12.5 -47.5q-2 -7 -6.5 -23t-7.5 -24q-5 -23 -5 -29l2 -12l1 -2q1 -1 1 -2l5 2
l7 6q12 12 30 36q33 41 57 76q70 96 108 159q4 4 7 4q6 0 12 -4.5t6 -9.5v-1q-14 -76 -22 -114q-4 -16 -4 -24l1 -19q6 4 9 4l18 16q43 41 43 78q0 45 -33 54q-13 4 -13 14v1q1 8 12 8h3q53 -11 63 -67l1 -13q0 -32 -27 -68q-12 -16 -34 -34q-20 -16 -37 -16l-9 1
q-23 7 -28 30l-1 8q0 2 6 35l10 42q-59 -88 -96 -138q-10 -13 -28 -39q-23 -34 -26 -37q-14 -17 -35 -17zM76 826l9 3q57 25 71 92q2 8 2 23q0 19 -6 37q0 3 -2 5q-41 -29 -61 -77q-13 -33 -13 -69v-14z" />
    <glyph glyph-name="ampersand" unicode="&#x26;" 
d="M196 139q-6 0 -10 4q-14 12 -19 20q-19 32 -19 79q0 31 14 95l19 86q-1 -2 -5 -4q-25 -17 -54 -17q-39 0 -64 28q-26 30 -26 81q7 160 103 176q-50 55 -50 113q0 41 25.5 72t66.5 31q34 0 59 -20q24 152 41 227q0 3 5 3q11 0 11 -7q-6 -91 -32 -266q-1 -6 -10 -6
q-19 3 -20 14q-4 14 -16.5 23t-27.5 9q-29 -1 -44.5 -26t-15.5 -55q0 -60 68 -124q7 -5 7 -13q0 -5 -4.5 -8.5t-10.5 -3.5q-5 0 -26 7q-42 0 -65 -46t-23 -105q2 -54 25 -69l2 -2q7 -2 11 -2q26 0 44 21.5t36 62.5t25 52q0 2 2 4q2 5 12 5q12 0 21 -6t9 -14l-1 -4
q-7 -33 -14.5 -70.5t-16.5 -83.5t-14 -71q-15 -69 -19 -123q1 -27 5 -40l2 -22q0 -5 -6 -5z" />
    <glyph glyph-name="quotesingle" unicode="'" horiz-adv-x="119" 
d="M51 910q-6 0 -11.5 4t-6.5 9l-1 9q0 6 5 29l15 70q2 4 4 17q1 4 4.5 9t4.5 9t8 4q14 0 14 -9l1 -20q0 -1 -3 -19l-14 -73q-7 -28 -12 -35q-3 -4 -8 -4z" />
    <glyph glyph-name="parenleft" unicode="(" horiz-adv-x="243" 
d="M103 120q-14 0 -18 9q-12 29 -19 55q-8 28 -12 53q-8 48 -13 108q-5 65 -5 117q0 136 27 268q19 100 50 186q18 50 37 90q24 53 45 85q2 2 5 2q10 0 10 -7v-2q-6 -20 -20 -57t-17 -45q-21 -60 -32 -101q-54 -190 -60 -376l-1 -40q0 -69 8 -151q2 -14 12 -82t11 -104v-1
q0 -7 -8 -7z" />
    <glyph glyph-name="parenright" unicode=")" horiz-adv-x="239" 
d="M149 120q-17 0 -17 12q2 35 5 55q2 18 8 54q10 71 12 104q5 53 5 126q0 128 -21 254q-16 91 -44 184l-30 90l-16 40t-18 47v2q0 4 5 4q9 0 10 -4q25 -38 50 -98q18 -39 40 -102q60 -179 68 -381q1 -20 1 -60q0 -67 -6 -133q-8 -67 -14 -97q-4 -19 -11 -47q-5 -18 -17 -45
q-3 -5 -10 -5z" />
    <glyph glyph-name="asterisk" unicode="*" horiz-adv-x="258" 
d="M117 868q-6 0 -8 6q-1 5 -1 14v14q0 16 1 25q2 32 2 50v9h-1q-20 -24 -29 -36q-24 -34 -26 -35q-3 -3 -8 -3q-15 0 -15 11v2q3 10 26 38l16 20l-27 -7q-9 0 -9 7q0 3 3 4q27 10 49 14l12 12l-31 33q-1 1 -1 3q0 3 3 4l3 1q2 0 8 -3q10 -7 28 -23q0 16 -2 50q0 7 9 7
q13 0 15 -10q2 -22 2 -32h1l7 6q2 1 6 2t5 2h2q8 0 8 -5l-3 -8q0 -2 -6 -7l-19 -18q1 -4 1 -12q56 -6 84 -31q2 -1 2 -3q0 -3 -5 -3h-2q-42 12 -64 16q10 -12 28 -38q1 -2 6 -8.5t8 -13t3 -10.5l-1 -4q-1 -4 -5 -4l-6 2q-6 3 -10.5 8.5t-10.5 15.5t-7 12l-21 29
q-2 -32 -4 -50q-2 -16 -4 -24q-4 -18 -8 -26q-1 -3 -4 -3z" />
    <glyph glyph-name="plus" unicode="+" horiz-adv-x="375" 
d="M202 293q-15 0 -17 12q-4 28 -6 85q-3 84 -3 85v7q-41 2 -128 10q-12 2 -12 11q0 6 8 6q19 1 56 1l75 -1v51q0 55 5 82q0 3 4 3q11 0 13 -7q3 -29 3 -86l2 -43q17 -1 53 -1q12 -1 36 -1q31 -2 39 -7q10 -5 10 -13q0 -5 -5 -9t-17 -4l-19 1q-13 0 -37 2l-59 3v-11
q2 -56 4 -83q0 -9 2 -39t2 -46q0 -8 -9 -8z" />
    <glyph glyph-name="comma" unicode="," horiz-adv-x="161" 
d="M55 5q-13 0 -13 8q1 13 21 52q18 33 19 42q0 6 -3 12q-11 8 -11 9l-6 1l-2 -1l-12 -2q-5 0 -9.5 3.5t-4.5 7.5q1 3 1.5 5t2 3.5t2.5 2t4.5 2t5.5 2.5q5 4 14 4q28 0 45 -17t19 -40q0 -18 -23 -45l-23 -26q-18 -18 -24 -22z" />
    <glyph glyph-name="hyphen" unicode="-" horiz-adv-x="283" 
d="M185 484q-15 0 -45 2q-74 5 -98 9q-9 0 -11 8v1q0 6 7 6l104 -1l52 1q18 2 28 2q17 0 25 -7q5 -3 5 -9v-2l-1 -1q-3 -7 -12 -7q-36 -2 -54 -2z" />
    <glyph glyph-name="hyphen" unicode="&#xad;" horiz-adv-x="283" 
d="M185 484q-15 0 -45 2q-74 5 -98 9q-9 0 -11 8v1q0 6 7 6l104 -1l52 1q18 2 28 2q17 0 25 -7q5 -3 5 -9v-2l-1 -1q-3 -7 -12 -7q-36 -2 -54 -2z" />
    <glyph glyph-name="period" unicode="." horiz-adv-x="135" 
d="M69 13q-14 0 -25.5 8.5t-11.5 21.5v3q2 23 26 23l6 -1q-7 7 -8 11v2q0 7 9 7h1q15 0 26.5 -13t11.5 -28v-2q0 -14 -10.5 -23t-24.5 -9zM64 38l2 1q3 3 5 9h-4l3 -1q-2 0 -4 -2z" />
    <glyph glyph-name="slash" unicode="/" horiz-adv-x="295" 
d="M42 87q-11 0 -11 7v13q0 37 7 86q2 20 19 98q25 107 89 344l47 173q37 132 51 171q1 4 7 4q12 0 12 -9v-1q-7 -46 -44 -199q-36 -153 -86 -345q-2 -10 -18 -73t-24 -97q-11 -51 -19 -86q-1 -5 -9.5 -36t-14.5 -47q-2 -3 -6 -3z" />
    <glyph glyph-name="zero" unicode="0" horiz-adv-x="375" 
d="M95 14q-24 0 -41 17q-22 22 -22 61v9q1 19 13 109q18 111 39 222q29 165 40 224q3 18 10 55.5t10 56.5q2 6 4 20q-18 -6 -40 -23q-4 -4 -9 -4l-8 2q-11 7 -11 12l1 2q11 17 25 26q18 13 48 20v1q4 20 7 30q5 22 7 26t8 4q13 0 13 -10v-6q0 -20 -5 -43q41 0 74 -21
q65 -40 75 -157q4 -50 4 -77q0 -152 -55 -296q-32 -87 -86 -168q-18 -26 -28 -39q-20 -27 -29 -35q-21 -18 -44 -18zM88 45l-1 1v-1h1zM86 46l2 1q3 1 13 8q5 4 27 32q31 41 50 73q43 72 73 157q46 132 46 269q0 25 -4 75q-5 51 -21 81q-9 19 -21 30q-6 6 -12 9l-7 5l-3 1
q-1 0 -1 1q-26 8 -43 8h-5q-3 -17 -60 -391q-30 -187 -33 -206q-10 -68 -12 -102q0 -22 3 -33q1 -3 5 -14q2 0 2 -3q1 0 1 -1z" />
    <glyph glyph-name="one" unicode="1" horiz-adv-x="196" 
d="M105 137q-19 0 -23 13q-8 29 -8 68q0 2 6 95l28 296l15 149q2 26 8 78q-26 -47 -74 -141q-3 -4 -8 -4q-15 0 -15 10v2l80 150l25 52q3 5 11 5q15 0 15 -10v-1q-2 -58 -10 -167l-22 -295l-12 -148q-4 -46 -4 -71q0 -16 2 -48h3q10 0 15 -6q4 -6 4 -9t-4 -6
q-2 -1 -9.5 -4.5t-12.5 -5.5q-6 -2 -10 -2z" />
    <glyph glyph-name="two" unicode="2" horiz-adv-x="366" 
d="M63 49q-9 0 -18 5.5t-10 14.5q-1 4 -1 12q0 23 19 51q7 11 38 54q33 47 72 112q64 110 96 214q28 95 28 161q0 34 -5 58q-11 57 -45 84q-24 19 -57 19l-14 -1q-46 -6 -55 -45q-2 -5 -2 -16q0 -37 24 -40q15 -2 15 -13q0 -8 -11 -8h-3q-24 4 -39.5 23t-15.5 44v8
q2 25 19.5 43t43.5 24q13 4 31 4q33 0 65 -16q46 -23 68 -79q17 -41 17 -99q0 -60 -20 -140q-27 -109 -100 -237q-34 -59 -70 -112q-6 -10 -18.5 -28.5t-16.5 -24.5q-10 -16 -15 -27l22 9q10 4 29 13t28 13q23 10 57 33q11 7 29.5 20.5t22.5 16.5q2 2 6 2q6 0 12.5 -4
t6.5 -9q0 -3 -2 -5q-23 -24 -50 -44q-9 -6 -26.5 -18t-25.5 -18q-13 -9 -59 -30q-24 -10 -64 -23z" />
    <glyph glyph-name="three" unicode="3" horiz-adv-x="551" 
d="M99 98q-11 0 -22 3q-16 5 -28.5 17t-12.5 28l1 9q1 5 8 5q14 0 16 -10q0 -22 17 -22q18 0 43 9q42 13 89 32q87 36 168 84q41 23 67 43q34 26 37 54v3q0 42 -71 65q-20 6 -76 17q-70 16 -80 19q-40 15 -53 42q-5 10 -5 24q0 18 14 50q7 16 32 68.5t36 79t22.5 70
t11.5 81.5v13q-2 22 -6 43q-3 13 -5 14l-2 2h-3l-9 -4q-32 -14 -52 -39q-37 -43 -37 -100l2 -24q0 -6 -7 -6q-15 0 -17 10q-2 12 -2 36q6 76 66 121q31 24 53 24q10 0 17 -4q11 -5 18 -19.5t8.5 -23t3.5 -28.5l1 -23q0 -65 -32 -150q-18 -46 -36 -86q-30 -65 -36 -84
q-4 -11 -4 -24q0 -25 22 -36q15 -6 32 -9l49 -11q5 -1 25.5 -5t27.5 -6l24.5 -7t27 -9t22.5 -11t23 -15q30 -26 31 -55v-7q0 -32 -29 -59q-15 -15 -67 -49q-26 -16 -80 -46q-81 -43 -170 -75q-55 -19 -73 -19z" />
    <glyph glyph-name="four" unicode="4" horiz-adv-x="442" 
d="M307 -61h-3q-16 3 -28 15q-10 10 -12 31l-1 21q0 12 2 32.5t2 26.5q3 73 11 206q-22 -15 -66 -47q-51 -38 -84 -56q-23 -14 -47 -14q-27 0 -40 20q-6 9 -6 19q0 5 8 34q12 40 17 60q22 80 32 120q53 217 84 488q0 8 10 8q6 0 11 -3.5t5 -7.5v-1q-9 -133 -30 -265
q-18 -117 -45 -231q-16 -68 -28 -116q-12 -44 -16 -56q-6 -20 -8 -30v-11q1 0 1 1l7 1q6 2 16 8q18 10 42 25q16 11 44.5 31t34.5 24q44 29 60 37l5 80q2 36 9 150.5t10 176.5q0 9 12 9q20 0 20 -13l-8 -172q-6 -142 -10 -213q44 17 78 20q3 0 7 -2.5t4 -4.5q0 -3 -4 -4
q-39 -13 -87 -40l-3 -63q-2 -54 -8 -154l-4 -90q0 -8 1 -12q0 -4 2 -10.5t2 -8.5l3 -3q6 -3 6 -9q0 -7 -8 -7z" />
    <glyph glyph-name="five" unicode="5" horiz-adv-x="501" 
d="M102 112h-11q-16 0 -18 12q0 6 6 7q68 14 85 22q8 4 22.5 10t19.5 8q67 33 119 87.5t77 117.5q13 33 13 57q0 26 -14.5 47t-39.5 21q-35 -1 -84 -36q-121 -77 -171 -99l-9 -2q-25 0 -25 18v3l105 433q-54 -19 -119 -34h-3q-9 0 -16 4.5t-7 10.5t8 8q81 18 145 44
q1 3 1.5 9.5t1.5 10t3.5 6.5t6.5 3q6 0 12 -4t6 -9v-1l-1 -2q49 21 137 68l4 1q15 0 15 -9q0 -3 -2 -4q-70 -54 -161 -90q-10 -50 -16 -74l-73 -346q38 18 69 37q13 8 39 26t41.5 28t39 18.5t45.5 8.5q43 0 73 -32t30 -77q0 -61 -57 -142q-48 -68 -131 -116.5t-166 -48.5z
" />
    <glyph glyph-name="six" unicode="6" horiz-adv-x="404" 
d="M127 49q-13 0 -15 9q-4 22 -6 45l-1 24q0 13 2 41q-14 4 -21 8q-37 15 -50 56q-4 16 -4 37q0 11 2 33q3 31 15 88q22 105 43 189q23 83 56 186q1 2 5 14.5t6.5 17.5t6.5 14.5t9 16t11 11.5q17 14 39 14q15 0 29 -9q6 -4 6 -8q0 -7 -10 -7q-5 0 -8 2q-6 2 -8 2
q-10 0 -20 -8q-14 -12 -21 -34q-9 -25 -26 -87q-21 -72 -47 -186q-17 -70 -34 -166q-12 -62 -12 -85q0 -25 8 -44q9 -21 30 -24q8 36 20 72q18 50 36 79q26 46 46 63q27 24 59 24q9 0 14 -1q41 -9 60 -46q10 -19 10 -41q0 -54 -49 -105q-57 -60 -136 -75q-3 0 -8.5 -1
t-10 -1.5t-8.5 -0.5l-4 -35q0 -4 -2.5 -32.5t-3.5 -43.5q0 -6 -8 -6zM152 199l32 9q65 23 106 78q27 34 28 68v4q0 32 -21 47q-6 5 -15 5q-14 0 -31 -13q-19 -14 -42 -51q-39 -66 -56 -141z" />
    <glyph glyph-name="seven" unicode="7" 
d="M122 56q-14 0 -14 10v1q1 15 12 58q8 38 14 57l30 115q53 221 85 413l18 104l1 19q0 35 -19 35h-4q-5 -1 -48 -14q-32 -10 -48 -16q-56 -23 -93 -42q-2 -1 -6 -1q-9 0 -13 4t-4 9q0 4 3 5q58 28 113 47q19 7 57 19q28 7 37 7t18 -3q31 -10 31 -56v-5q-1 -16 -5 -48
q-4 -35 -7 -55q-15 -111 -36 -223q-24 -126 -47 -220l-27 -108q-4 -14 -17 -54q-14 -43 -20 -53q-3 -5 -11 -5z" />
    <glyph glyph-name="eight" unicode="8" horiz-adv-x="485" 
d="M79 99h-2q-33 0 -43 30l-2 14q0 7 5 32l18 64q12 42 38 124q35 99 68 175q-31 4 -42 7q-33 9 -45 32q-7 11 -7 27q0 5 2 17q8 35 58 85q83 80 190 136q56 29 79 29q18 0 32 -10q22 -15 22 -43q0 -16 -7 -35q-5 -15 -25 -48l-34 -59l-68 -120q-10 -16 -14 -24l12 -5
q66 -23 85 -57q8 -13 8 -30q0 -28 -32 -75q-65 -95 -154 -173q-40 -36 -91 -71q-33 -22 -51 -22zM71 126q1 1 4 1l11 6l23 16q97 68 171 155q36 42 69 92q20 28 20 49l-1 7q-1 18 -21 32q-18 12 -45 20q-2 1 -7 2.5t-7 2.5q-5 -10 -41 -71q-43 -73 -73 -114q-2 -3 -7 -3
q-6 0 -11 3.5t-5 7.5v2q4 10 29 59q23 43 71 127l-11 3q-16 4 -48 10q-50 -119 -86 -243q-17 -59 -33 -125q-4 -18 -4 -26q0 -5 2 -13zM264 543l120 205q22 38 25 48q7 16 7 28l-2 12q-3 9 -11 9q-4 0 -16 -4q-18 -8 -52 -26q-54 -29 -97 -63q-43 -32 -87 -76
q-45 -47 -45 -80v-3q1 -18 22 -23q2 0 44 -6q14 31 17 38q3 5 11 5q6 0 12 -3.5t6 -7.5l-16 -38q33 -6 62 -15z" />
    <glyph glyph-name="nine" unicode="9" horiz-adv-x="387" 
d="M145 56q-15 0 -33 5q-9 3 -9 10q0 6 9 6l12 -1q59 0 101 67q24 38 43 134q18 106 25 159q12 91 17 161l1 14q-15 -32 -38 -66q-31 -44 -63 -76q-47 -46 -80 -56q-11 -4 -24 -4q-46 0 -63 37q-6 12 -6 33q0 23 10 61q25 114 75 216q30 58 61 73q18 8 36 8q29 0 47 -17
q3 -3 3 -5q0 -6 -9 -6q-5 0 -8 3q-10 9 -22 9q-26 0 -52 -33q-7 -10 -23 -44q-8 -17 -22 -51q-36 -93 -54 -191q-2 -18 -2 -28v-10q3 -22 12 -26h4q10 0 24 6q17 8 33 23q67 55 111 131q20 35 36 77q17 47 21 77q1 2 1 5q1 11 14 11q8 0 15 -4.5t8 -11.5v-15l-2 -83l-6 -94
q-15 -188 -46 -336q-19 -87 -62 -129q-20 -20 -60 -33q-16 -6 -35 -6z" />
    <glyph glyph-name="colon" unicode=":" horiz-adv-x="135" 
d="M66 371q-11 0 -20 9t-9 22t9 22.5t20 9.5t20 -9.5t9 -22.5t-9 -22t-20 -9zM66 634q-12 0 -20.5 8t-8.5 20t8.5 20t20.5 8t20.5 -8t8.5 -20t-8.5 -20t-20.5 -8z" />
    <glyph glyph-name="semicolon" unicode=";" horiz-adv-x="203" 
d="M129 624q-22 0 -34 16q-9 10 -9 23t9 22q3 4 11 4l8 -1q3 3 7 3h4q29 0 39 -27l2 -9q0 -19 -21 -28q-7 -3 -16 -3zM137 655q1 2 1 6q0 5 -2 7q0 1 -2 3q1 -1 1 -3q0 -1 -1 -2.5t-2 -2.5t-1 -2q5 -2 6 -6zM45 258q-11 0 -11 7l1 3q9 14 40 50q28 32 40 50q22 29 22 49
l-1 7q-4 19 -19 19l-8 -1q-5 0 -11 3t-6 7q0 3 2 4q10 9 22 9q21 0 40 -19q14 -15 14 -36q0 -12 -7 -30q-12 -27 -48 -67t-67 -54z" />
    <glyph glyph-name="semicolon" unicode="&#x37e;" horiz-adv-x="203" 
d="M129 624q-22 0 -34 16q-9 10 -9 23t9 22q3 4 11 4l8 -1q3 3 7 3h4q29 0 39 -27l2 -9q0 -19 -21 -28q-7 -3 -16 -3zM137 655q1 2 1 6q0 5 -2 7q0 1 -2 3q1 -1 1 -3q0 -1 -1 -2.5t-2 -2.5t-1 -2q5 -2 6 -6zM45 258q-11 0 -11 7l1 3q9 14 40 50q28 32 40 50q22 29 22 49
l-1 7q-4 19 -19 19l-8 -1q-5 0 -11 3t-6 7q0 3 2 4q10 9 22 9q21 0 40 -19q14 -15 14 -36q0 -12 -7 -30q-12 -27 -48 -67t-67 -54z" />
    <glyph glyph-name="less" unicode="&#x3c;" horiz-adv-x="361" 
d="M311 411l-7 2q-5 1 -34 17l-96 51q-64 33 -132 63q-8 4 -8 11q0 4 4 7q60 39 133 82q94 54 139 74l4 1q11 0 11 -7q0 -3 -2 -4q-16 -11 -130 -83q-64 -39 -118 -73q59 -26 114 -54q9 -5 31.5 -16.5t34.5 -18.5l33 -18q22 -12 31 -21l2 -4q0 -3 -3 -6t-7 -3z" />
    <glyph glyph-name="equal" unicode="=" horiz-adv-x="382" 
d="M131 639q-52 0 -79 3q-9 0 -13 9l-1 3q0 4 7 6q27 4 137 9l71 3h35q24 0 37 -7q7 -3 7 -10q0 -3 -1 -5q-3 -4 -15 -6q-15 -3 -17 -3q-11 -1 -34 -1zM196 516h-77q-52 2 -77 8q-7 2 -7 9q0 3 4 4q16 3 49 3h24q25 0 73 2q50 2 75 4l58 5q10 0 18 -4q12 -5 12 -11
q0 -1 -2 -5q-6 -7 -36 -10q-26 -2 -38 -2q-39 -3 -76 -3z" />
    <glyph glyph-name="greater" unicode="&#x3e;" horiz-adv-x="379" 
d="M93 386q-7 0 -15.5 4t-8.5 9q0 3 3 6q7 9 15.5 16t25 18.5t18.5 13.5q5 3 59 44l102 76q-151 43 -257 116q-4 4 -4 7q0 4 3 5q2 2 7 2t9 -2q152 -82 272 -112q6 -1 12.5 -5.5t6.5 -9.5q0 -3 -5 -8l-178 -135q-54 -41 -60 -44z" />
    <glyph glyph-name="question" unicode="?" horiz-adv-x="298" 
d="M62 170q-12 0 -15 8q-4 14 -8 41.5t-4 29.5q-5 30 -5 73q1 65 21 140q15 60 42 117q6 12 54 103q70 134 75 213l1 18q0 59 -27 90q-20 22 -47 22q-24 0 -42 -18q-26 -27 -40 -93q-15 -71 -16 -135q0 -4 -5 -4q-9 0 -9 6l-1 41q0 14 2 42q5 39 12 74q16 72 57 95
q18 9 37 9q36 0 66 -25q45 -36 50 -109l1 -25q0 -81 -62 -207q-51 -99 -57 -112q-28 -61 -44 -124q-14 -56 -23 -132l-6 -66l1 -65q0 -7 -8 -7zM81 21q-12 0 -16 8q-5 13 -5 25q0 17 11 50q1 5 9 5q17 0 17 -11v-2q-7 -21 -7 -36v-17q0 -11 -2 -17q-1 -5 -7 -5z" />
    <glyph glyph-name="at" unicode="@" horiz-adv-x="715" 
d="M360 180q-30 0 -67 7q-56 11 -102 37q-49 30 -80 74q-32 46 -51 120q-21 84 -21 158q0 58 15 117q32 121 124 193q81 63 183 63q12 0 36 -2q119 -13 202 -100q78 -86 83 -206v-14q0 -121 -68 -198q-43 -46 -95 -49h-7q-55 0 -87 38q-21 26 -21 64q0 16 4.5 48t4.5 47
q0 20 -3 30q-13 -13 -22.5 -28.5t-22.5 -42t-16 -32.5q-43 -80 -88 -80h-6q-20 2 -31.5 15.5t-11.5 32.5v6q4 37 19 76q28 82 83 121q45 32 94 32q24 0 44 -7q7 -1 7 -7t-8 -6h-12q-60 0 -108 -48q-40 -40 -61 -112q-12 -49 -13 -63l2 -10q7 2 19 12q25 21 61 86
q34 59 67 83q4 2 6 2q11 0 15 -10q10 -18 12 -46v-4q0 -13 -4.5 -46.5t-4.5 -50.5q0 -56 42 -74q15 -7 33 -7q38 0 70.5 30t51.5 71q27 60 27 127q0 74 -32.5 140t-92.5 105q-71 46 -155 46q-11 0 -33 -2q-99 -13 -172 -98q-72 -84 -88 -205q-4 -32 -4 -72q0 -96 29 -179
q22 -60 58 -93q34 -33 81 -50q45 -17 98 -19q16 0 50 2q32 0 51 6h1q4 0 8.5 -3t4.5 -6q0 -2 -4 -3q-3 -1 -21.5 -5.5t-28.5 -6.5q-19 -4 -44 -4zM259 451l1 1h-1v-1z" />
    <glyph glyph-name="A" unicode="A" horiz-adv-x="556" 
d="M498 -16h-4q-30 4 -35 29q-13 66 -19 222q-3 93 -3 185q0 70 2 212q2 65 4 197q1 29 1 85l-182 -641l-32 -115q-21 -73 -36 -93q-26 -37 -71 -37l-12 1q-28 4 -46.5 24t-24.5 48q-5 21 -10 99v30q0 28 2 80q6 118 33 216q13 52 33 106q25 67 40 95q56 106 133 124
q16 4 37 4q49 0 82 -27l27 94q27 94 29 107q1 6 10 6l6 -1q12 -2 15 -13q5 -27 12 -114q3 -37 7 -111q5 -99 9 -398q1 -99 6 -198q2 -28 7.5 -95t7.5 -103q0 -18 -28 -18zM118 63l-2 1zM117 64l-2 1zM117 63l14 1q18 4 32 22q5 6 9 13.5t7 13t6 15.5t4.5 14.5t4.5 16t4 14.5
l126 429q40 140 61 210q-5 5 -15 11q-17 9 -39 9q-48 0 -87 -41q-25 -27 -46 -73q-16 -32 -36 -88q-69 -195 -69 -395q0 -57 4 -101q2 -29 5 -42l8 -21l4 -4q0 -3 3 -3v-1z" />
    <glyph glyph-name="B" unicode="B" horiz-adv-x="586" 
d="M455 142q52 102 42 224q-5 63 -27 111q-22 47 -72 64q-48 16 -104 1q-18 -4 -57 -21q-4 -3 -14 -7.5t-14 -6.5q-1 0 -1 -1q-2 -1 -10 -7t-13 -8q-3 -3 -9 -3q-3 -41 -9 -123.5t-9 -123.5q14 2 16 -8q4 -23 27 -67q3 -6 12.5 -26.5t16.5 -31.5q18 -26 39 -43q12 -8 23 -14
q1 1 5 -2q1 -1 3 -1t3 -1q4 -2 7 -2h1q1 -1 2 -1q22 -3 41 2q20 5 41 20q36 26 60 76zM200 815q-3 -40 -9 -121.5t-9 -122.5q58 53 98 101q51 63 80 140q37 98 -5 157q-19 29 -48 35q-31 8 -66 -16q-12 -7 -32 -27q0 -13 -2 -37q-1 -21 -3.5 -59t-3.5 -50zM149 851q0 9 1 14
q0 -1 -1 -1q-36 -74 -57 -155q-40 -155 -26 -331q5 -73 24 -167q2 -6 4 -18q4 53 5 77q18 258 30 387q5 58 20 194zM518 459q27 -61 32 -128q10 -143 -62 -247q-38 -53 -90 -73q-61 -23 -127 11q-54 28 -89 91q-18 35 -21 59q-1 8 -2 23.5t-2 23.5q-8 -121 -11 -176
q-2 -21 -28 -17t-31 21q-8 27 -6 44q-6 20 -9 40q-43 186 -39 343q3 187 60 334q31 78 66 132q0 5 1 8q1 5 2 15t2 18.5t2 15.5q5 23 7 31q0 8 6 16q6 7 16.5 2.5t12.5 -12.5q3 -16 3 -35q41 34 85 31q41 -2 75.5 -28t49.5 -65q30 -79 -14 -184q-32 -73 -93 -142
q-35 -37 -42 -44q6 1 16 2.5t16 2.5q73 8 131 -22q56 -29 83 -91z" />
    <glyph glyph-name="C" unicode="C" horiz-adv-x="695" 
d="M224 52zM659 377q-4 -7 -11.5 -20.5t-11.5 -19.5q-42 -72 -109 -156q-63 -78 -132 -125q-84 -59 -166 -48q-87 11 -137 85q-70 103 -54 312q16 206 96 383q42 93 88 144q58 61 138 74q15 2 22 -8q9 -11 -5 -15q-19 -3 -32 -10q-54 -28 -100 -100q-33 -52 -69 -149
q-67 -181 -73 -363q-4 -90 9 -154q1 -5 7 -30q4 -14 11 -32l15 -30l1 -1q0 -2 1 -2q4 -6 5 -7l9 -12q1 -1 3 -3.5t3 -3.5t1 -2h1q3 -3 11 -9l6 -6l2 -1q2 -1 13 -7q1 -1 4 -3h2q4 -2 5 -2l9 -3l4 -2q21 -3 34 -3q69 1 147 64q61 48 124 126q52 63 100 149q4 5 12 5.5
t14 -4.5t3 -11z" />
    <glyph glyph-name="D" unicode="D" horiz-adv-x="711" 
d="M605 608q7 93 0 168q-6 71 -28 127q-4 11 -14 31q-1 4 -4 7v1q-2 4 -4 6l-2 4q-2 4 -3 5q-16 24 -39 42l-3 3h-1q-3 2 -7 4q-3 2 -11 6q0 1 -1 1t-2 1l-6 2h2q-2 0 -3 1q-2 0 -7 1.5t-8 2.5q-6 2 -7 2q-2 0 -4.5 0.5t-3.5 0.5q-5 1 -13 1q-20 0 -30 -2q-54 -10 -102 -51
q-6 -120 -9 -181q-9 -229 -10 -395q41 23 91 43q72 28 151 34q13 2 18 -10q3 -9 -9 -10q-31 -3 -70 -11q-73 -15 -140 -50q-28 -16 -41 -25q-1 -144 3 -288q1 -12 -9.5 -16t-22.5 -2t-22.5 9.5t-11.5 18.5q-1 7 -1 18q-2 90 -2 134q-2 24 -8 70q-2 -3 -5 -5
q-55 -50 -96 -113q-57 -88 -32 -150q14 -35 42 -42q24 -7 73 8q64 21 128 65q116 79 190 212q80 146 94 322zM206 652q3 -55 17 -165q4 106 7 159q10 144 25 270q-26 -40 -38 -91q-18 -72 -11 -173zM680 676q1 -88 -16 -185q-35 -183 -139 -316q-103 -130 -256 -187
q-116 -44 -178 -9q-33 19 -46 57.5t-5 77.5q12 64 81 147q40 49 87 85q-18 162 -27 244q-7 69 -8 119.5t12 114t43 110.5q15 22 35 44q2 16 3 25q2 12 21 6q3 0 8 -3q89 69 183 47q73 -17 126 -85q38 -48 60 -135q16 -68 16 -157z" />
    <glyph glyph-name="E" unicode="E" horiz-adv-x="595" 
d="M196 34q-8 0 -19 7l-6 6q-4 -1 -31.5 -4t-42.5 -5h-1q-5 0 -11 5t-6 9q0 5 6 6q36 10 72 18l-3 20q-3 14 -7 49q-2 15 -4 32.5t-4.5 38t-3.5 32.5l-6 71q-25 -6 -29 -6q-26 -6 -38 -6h-4q-3 0 -9.5 3.5t-6.5 6.5q0 2 2 4q11 8 37 16q3 1 38 12q4 0 8 2q-6 108 -6 216v43
q2 100 7 179q3 46 9 91q1 12 5 41q-15 -3 -45 -7q-33 -5 -41 -5l-14 1q-12 3 -12 9l2 4q5 7 25 15l27 9q30 9 60 15q6 2 9 2l2 4q1 4 6 4t11 -4q91 17 197 20l37 1q41 0 74 -4q28 -2 48 -11q20 -7 30 -20q5 -7 6 -12l1 -4v-3q0 -11 -13 -11l-9 2l-4 2q-3 0 -5 1q-4 0 -10 3
l-3 2l2 -2l-2 1l-14 4v1l-24 3q-3 0 -4 1h-16q-21 1 -63 1q-78 0 -147 -7q-50 -6 -75 -10v-17q0 -34 -1 -50l-2 -100l-1 -90q0 -142 10 -271q2 -22 2 -35q10 2 13 2q47 8 84 11q21 3 41 3l24 1q16 0 23 -3q5 -2 10.5 -7t5.5 -10t-6 -8q-10 -5 -26 -5h-15l-41 -3
q-39 -3 -78 -9q-9 -1 -32 -5l11 -113q8 -60 11 -89l6 -41q36 7 81 10q56 6 110 6l26 1l26 -1q21 0 31 -1q5 0 33 -8q16 -6 16 -19q0 -7 -10 -10q-25 -5 -28 -5h-27q-18 1 -53 1q-53 0 -107 -3q-67 -4 -97 -7q-2 -7 -8 -12q-7 -5 -14 -5z" />
    <glyph glyph-name="F" unicode="F" horiz-adv-x="690" 
d="M199 15l-8 1q-13 4 -18 14q-9 15 -11 55q-1 17 -1 51q-1 34 -1 101q0 85 3 169l-14 -4q-7 -2 -20 -5.5t-18 -5.5q-39 -12 -40 -12q-14 0 -14 9q0 3 1 4q2 3 16 12l17 10q21 10 38 17l35 12q2 53 8 159q8 122 14 183q6 58 10 91q2 12 4 32q-32 -16 -60 -36
q-31 -20 -49 -38q-35 -33 -40 -50q-1 -4 -7 -4q-14 0 -14 9v1q5 30 7 36q6 16 18 30q19 22 57 49q47 37 101 62q3 5 10 5h3q116 52 250 52q85 0 156 -20q10 -3 19 -11.5t9 -18.5v-2q-3 -17 -26 -17l-8 1l-17 4h-1q-6 2 -18 4q-18 5 -34 6q-10 2 -34 4l-8 1h-5l-27 1
q-121 0 -230 -44l-6 -3v-14q0 -21 -2 -63q-1 -33 -5 -101q-8 -199 -11 -293q44 6 66 7q14 1 42 1h15q21 0 30 -3q23 -4 27 -19v-3q0 -14 -18 -14l-10 -1q-4 0 -9.5 0.5t-12 1.5t-10.5 1q-26 0 -40 -1q-35 -1 -78 -8h-3q0 -23 -1 -34l-2 -184q-1 -30 -1 -91v-47q0 -16 -2 -24
q-1 -8 -9 -20q-2 -5 -13 -5z" />
    <glyph glyph-name="G" unicode="G" horiz-adv-x="650" 
d="M356 -15q-12 0 -23.5 8t-11.5 18q0 7 5 10.5t14 6t13 5.5q30 17 47.5 33t37.5 47q3 3 5.5 8t6.5 9q35 69 55.5 157.5t26.5 149t14 179.5l8 126q2 48 2 73q-2 83 -8 129.5t-28 107.5q-1 -1 -7 -17q-12 -36 -23.5 -107t-13.5 -83q-50 -260 -225 -524q-57 -86 -112 -86
q-24 0 -45 12q-64 35 -64 138q0 57 25 142t52.5 151.5t68 133.5t98 114.5t129.5 71.5q9 5 22 5l26 2q11 0 22 -11q11 42 16 56q3 8 9 21t8 19q3 6 11 6q11 0 15 -7q61 -92 79 -265q9 -83 9 -167q0 -176 -35 -361q-24 -126 -66 -196q-23 -42 -57.5 -71t-73.5 -38
q-15 -4 -18 -4zM141 280q5 0 13 4q25 11 59 58q21 29 50 75q94 153 149 326q34 109 47 175l10 58q-8 -6 -14.5 -9.5t-14 -8t-14.5 -8.5q-16 -8 -34 -21q-28 -19 -60 -47q-20 -18 -29 -28q-56 -59 -95 -137q-38 -75 -68 -171q-37 -124 -37 -175q0 -22 5 -42q1 -7 7 -23
q1 -1 4 -7t13 -16l-2 1q2 -2 3 -2l1 -1z" />
    <glyph glyph-name="H" unicode="H" horiz-adv-x="580" 
d="M164 48q-24 0 -29 16q-5 18 -5 54t1 79t1 78q0 78 -5 175q-45 -37 -91 -112l-2 -1q-4 0 -4 3q0 28 16 56q31 57 79 93q-10 164 -10 257q0 144 16 227q8 28 24 37q3 3 9 3q13 0 22 -12t11 -26q0 -51 -4 -103t-4 -106q0 -78 8 -234q84 39 194 46q0 158 38 350q13 54 22 71
q1 3 5 3q9 0 9 -6v-9q0 -26 -15 -161q-11 -127 -11 -245q8 1 25 1l30 1q29 0 44 -8q4 -1 8 -6t4 -9q0 -11 -41 -14q-23 0 -35 -1q-23 0 -35 -1q0 -99 14 -242q6 -44 6 -67q0 -12 -2.5 -16t-12.5 -4q-8 0 -16.5 4.5t-9.5 10.5q-5 15 -8.5 31t-6 37.5t-3.5 32t-3 38t-2 31.5
q-3 47 -5 141q-113 -9 -191 -45q8 -152 8 -226v-33q0 -64 -5 -95q-1 -5 -3.5 -21.5t-4 -25t-6 -21t-10.5 -20.5q-4 -6 -14 -6z" />
    <glyph glyph-name="I" unicode="I" 
d="M127 138q-20 0 -31.5 14t-14 26.5t-4.5 34.5q-11 173 -11 298q0 310 59 463q14 37 21 49q-19 -8 -49 -29t-42 -28l-5 -1q-15 0 -15 9q5 21 38 46q48 37 100 51q28 8 43 8q13 0 22 -4q16 -8 16 -17q0 -11 -20 -13q-12 0 -19.5 -1.5t-15.5 -4t-16 -3.5v-9q0 -7 -11 -79
q-30 -236 -30 -437q0 -150 11 -318q1 -7 1 -23q0 -13 -7 -22.5t-20 -9.5zM51 -7q-7 0 -14 4t-7 10q2 18 34 54q66 77 148 98q23 8 38 10q14 0 28.5 -8.5t14.5 -19.5q-3 -10 -8 -14.5t-16 -8t-17 -6.5q-88 -38 -147 -81q-6 -4 -22 -17t-25 -19z" />
    <glyph glyph-name="J" unicode="J" horiz-adv-x="476" 
d="M251 -53q-36 0 -63 17q-65 41 -74 194l-1 35q0 209 121 366q4 5 12 5q9 0 18 -6t9 -13q0 -5 -2 -7q-53 -92 -76.5 -165.5t-23.5 -168.5q0 -43 6 -85q11 -63 23 -90l6 -12l6 -9q3 0 6 -3.5t8 -4.5h9l2 1q1 0 12 3q3 0 6 3l7 3.5t6 4t4 3t4 4t4 5t6 7t7 8.5q20 32 31 87
q48 206 48 406q-2 126 -18 274q-10 80 -16 101q-15 52 -47 70q-16 9 -32 9q-50 0 -102 -75q-24 -35 -60.5 -102.5t-49.5 -88.5q-3 -3 -6 -3q-11 0 -11 8v1q24 66 79 166q30 54 63 86.5t79 33.5q51 0 91.5 -38t58.5 -95q45 -131 45 -342q-2 -224 -39 -396q-9 -40 -13 -56
t-15.5 -47.5t-29.5 -50.5t-43 -31q-26 -12 -55 -12z" />
    <glyph glyph-name="K" unicode="K" horiz-adv-x="463" 
d="M95 86q-26 0 -33 19q-14 32 -18 108q-14 241 -14 469q0 168 14 273q1 5 2.5 21.5t3 24.5t5 20.5t9.5 21.5q2 3 7 3q11 0 16 -9q6 -15 8.5 -32.5t3 -40t1.5 -33.5q1 -8 1 -25v-26q2 -58 3 -118v-115q0 -52 1 -78q66 142 127 243.5t148 210.5q22 28 42 39h2q9 0 9 -5
q-1 -15 -8 -27q-83 -135 -108 -179q-12 -20 -21.5 -36.5t-17 -29.5t-15.5 -28.5t-12.5 -23.5t-13 -24.5t-11.5 -22.5t-12.5 -26t-12.5 -26t-15 -32t-17 -36q-39 -85 -39 -133q0 -71 59 -135q15 -17 36.5 -33t38 -26t45.5 -26t42 -24q13 -9 13 -17q0 -5 -6 -9.5t-13 -4.5
q-5 0 -11 2q-77 32 -127.5 66.5t-93.5 91.5l10 -181q0 -14 -6 -40q-2 -11 -22 -11z" />
    <glyph glyph-name="L" unicode="L" horiz-adv-x="439" 
d="M193 88q-59 0 -94 50q-22 32 -40 106q-24 105 -28 263q-1 45 -1 135v136q0 90 2 135q2 96 18 136q3 7 12 7q18 0 21 -12q13 -34 16 -75q4 -103 4.5 -255t2.5 -221q4 -148 26 -250q8 -44 28 -85q1 -2 3 -5.5t3.5 -5.5t3.5 -2l4 -4q3 0 4 -1.5t4 -1.5l5 -1q4 1 9.5 2t8.5 3
q16 6 43 29q61 53 122 134q4 5 12 5q9 0 18 -6t9 -13q0 -3 -2 -7q-37 -59 -85 -113q-22 -25 -38 -40.5t-41 -29t-50 -13.5z" />
    <glyph glyph-name="M" unicode="M" horiz-adv-x="1009" 
d="M149 43q-34 2 -45 25q-74 182 -74 423q0 240 49 456q2 9 8.5 25t7.5 18q3 8 15 8q10 0 19 -6t10 -13q1 -9 1 -27q2 -10 2 -13q-5 -73 -18 -164q-20 -157 -20 -284q0 -88 8 -153q8 220 61 455q11 46 28 76q16 25 42.5 40.5t55.5 15.5q32 0 66 -24l-2 1q22 -15 36 -50
q15 -33 27 -82q22 -97 23 -286t25 -283q18 43 38 107q19 62 23 79q9 48 16 80q14 71 23 110t28.5 98t43.5 103q9 15 44 55q25 25 52 25q65 -4 89 -64q13 -30 21 -91q7 -53 7 -113q0 -24 -1.5 -71t-1.5 -70q0 -148 40 -235l22 -48q1 0 2 -1.5t2.5 -3.5t2.5 -3q11 -15 22 -28
h1q7 -7 22 -20q9 -7 9 -16q0 -7 -7 -11.5t-15 -4.5q-13 0 -27 10l1 -1l-1 1q-2 2 -3.5 3t-3.5 3l-2 1q-27 19 -52 50q-88 103 -88 311q0 26 1.5 78t1.5 79q0 121 -26 192q-4 8 -6 8l-11 -1q-18 0 -35 -18t-26.5 -35.5t-22.5 -47.5q-6 -16 -12 -32.5t-11 -35t-9 -32.5
t-8.5 -36t-7 -33.5t-6.5 -36t-5.5 -33t-6 -36.5t-5.5 -34q-2 -12 -8 -51t-9 -55t-9.5 -49.5t-13 -53.5t-17 -47t-22.5 -49q-8 -14 -27 -14q-32 0 -45 25q-35 73 -48.5 164.5t-11.5 168t-2 174.5t-21 171q-15 63 -29 87l-8 11l2 -1q-1 1 -7 9q-2 0 -5 1t-7 1q-57 0 -83 -94
q-16 -56 -34 -176q-25 -151 -25 -337q0 -75 5 -128q2 -32 6 -47q9 -30 10 -50q0 -19 -28 -19z" />
    <glyph glyph-name="N" unicode="N" horiz-adv-x="733" 
d="M679 9q-16 0 -29 10q-79 60 -124 146t-68 202q-9 48 -14.5 107t-7 98.5t-2.5 111.5t-2 101q-1 40 -3 64t-10 53t-23 49l-3 -1q-3 -1 -8 -6q-53 -43 -79.5 -107.5t-46.5 -157.5q-34 -166 -34 -340q1 -30 2 -54t1.5 -42t0.5 -50q0 -7 -0.5 -23.5t-1 -23t-1.5 -19t-2.5 -21
t-5 -20t-7.5 -23.5q-5 -14 -26 -14q-16 0 -28 7q-37 24 -61.5 58.5t-36.5 83t-16.5 82t-8.5 91.5q-4 59 -4 132q3 222 34 362q3 14 19 68l-1 1l-2 8q0 14 25 18q14 0 25.5 -9.5t11.5 -22.5q-2 -39 -11.5 -104.5t-12.5 -89.5q-13 -110 -13 -230q0 -163 19 -276
q5 -29 9.5 -42.5t21.5 -49.5q6 23 9.5 51.5t4.5 44.5t1 55.5v47.5q7 227 56 422q39 150 131 222q15 12 36 12q40 0 70 -35q6 -8 11.5 -17t9.5 -16.5t7 -19.5t5.5 -18.5t4 -20.5t2.5 -19t2 -21.5t1 -19.5t0.5 -21t0.5 -19q1 -31 2 -103.5t2 -107.5t7 -98t16 -105.5t29 -97
t47 -103.5q41 -62 88 -111q5 -7 5 -11q0 -18 -24 -18z" />
    <glyph glyph-name="O" unicode="O" horiz-adv-x="701" 
d="M319 7q-81 0 -129.5 61.5t-48.5 147.5q0 32 11 111q43 337 166 516q37 55 103 93q1 1 6 1q19 0 19 -11l-27 -54q-87 -146 -114 -224q-57 -152 -84 -377q-5 -37 -5 -66q1 -31 1.5 -42t9.5 -34t27 -47q5 -3 6.5 -4.5l3.5 -3.5t7 -6l5 -3q9 -3 19 -5q6 0 6 -1q29 1 43 6.5
t38 21.5q43 30 88 94q161 232 161 462q0 119 -43 221q-20 45 -31 58q-60 84 -174 84q-92 0 -175.5 -62.5t-138.5 -153.5q-3 -5 -12 -5q-10 0 -18.5 5.5t-8.5 12.5l1 4q55 103 141 163.5t191 60.5q91 0 159 -45q77 -49 113 -149.5t36 -212.5q0 -222 -110 -413
q-88 -159 -197 -197q-21 -7 -45 -7z" />
    <glyph glyph-name="P" unicode="P" horiz-adv-x="504" 
d="M83 27q-38 4 -43 30q-6 25 -8 108q-2 60 -2 146q0 245 27 531q1 11 3.5 31t4.5 36.5t4 31.5q12 62 34 87q3 3 8 3q15 0 18 -10q11 -30 11 -69q0 -29 -6 -82t-7 -66q0 -7 -1 -10q58 141 110 186q45 37 100 37q62 0 100 -50t38 -119q0 -31 -13 -102q-40 -195 -157 -277
q-68 -49 -129 -49q-51 0 -58 30q0 11 14 15q9 6 18 6q50 12 89.5 37t65.5 57t45 76t29.5 86t18.5 94l1 11l1 2q0 7 1.5 16.5t1.5 14.5q2 24 2 38q-2 41 -15 61.5t-47 20.5q-64 -1 -114 -77q-36 -55 -69 -139q-28 -66 -43 -122q-10 -137 -11 -354q0 -80 2 -151q2 -44 2 -66
q0 -20 -1 -30q-3 -19 -25 -19z" />
    <glyph glyph-name="Q" unicode="Q" horiz-adv-x="628" 
d="M575 33h-4q-37 0 -103 52q-48 38 -87 98q-78 -125 -191 -133q-63 0 -99 58t-36 134q0 53 20 166q51 272 151 465q6 11 22 27q5 5 14 5t18 -5.5t9 -12.5v-12q0 -8 -2 -16t-5.5 -18t-5.5 -16q-2 -7 -19 -55t-19.5 -55.5t-16 -47.5t-16.5 -52t-13.5 -46t-14.5 -52t-11 -48.5
t-12 -57.5t-10 -57q-14 -78 -14 -125q0 -41 7.5 -67t29.5 -54q2 0 2 -2q8 -4 13 -4q98 7 169 140q-20 47 -38 121q-4 24 -4 36v5q0 10 8 10q10 0 14 -6q10 -13 18.5 -29.5t17.5 -37.5t14 -31q1 -1 1 -3q32 71 63 172q43 136 43 242q0 117 -54 203q-29 47 -65 69
q-42 27 -109 29q-17 0 -36.5 -2.5t-33 -5t-37 -9.5t-32 -9.5t-36.5 -12t-33 -11.5h-3q-6 0 -12.5 4.5t-6.5 8.5q0 2 4 5q128 63 223 63q76 0 137.5 -41t97.5 -114q42 -87 42 -196q0 -122 -57 -293q-36 -110 -62 -165q28 -51 69 -100q25 -25 33.5 -32t34.5 -21q4 -2 12 -6.5
t12.5 -7t10.5 -7t8.5 -9t2.5 -9.5q0 -17 -23 -19z" />
    <glyph glyph-name="R" unicode="R" horiz-adv-x="439" 
d="M80 -27q-17 0 -32 9.5t-15 22.5q-2 249 -3 488v112q0 58 1.5 103.5t2.5 69t5 77t6 86.5q1 16 7 44q1 5 7 5q14 0 16 -10q21 -134 26 -345q24 227 94 362q18 33 44 55t55 22q27 0 53 -20t38 -47q24 -60 24 -105q0 -56 -14.5 -109.5t-45 -107t-57 -92.5t-72 -99t-68.5 -94
l-9 -13.5t-9 -14.5t-4.5 -12t-2.5 -17l3 -6q4 -5 14 -14q4 -2 11 -6t11 -6q17 -9 69.5 -35t86.5 -45t66 -40q15 -11 15 -19q-4 -15 -20 -15q-5 0 -13 2q-45 17 -176 81q-70 35 -80 41q-1 -12 -1 -37q0 -84 -6 -250q0 -21 -27 -21zM121 485q8 11 35.5 48t39 52.5t35 50.5
t34.5 55.5t28 54t24.5 59.5t13.5 59t6 64q-1 54 -7 84q-10 39 -33 39q-22 0 -50 -33q-23 -26 -50 -92q-26 -64 -42 -145t-21.5 -136.5t-12.5 -151.5v-8z" />
    <glyph glyph-name="S" unicode="S" horiz-adv-x="679" 
d="M319 20h-2q-30 0 -35 26q0 6 3 9t6.5 4t11 2t11.5 2q78 28 86 116q0 39 -33 76l1 -2l-25 21q-19 12 -37 21l-82 34q-86 41 -138 112t-56 157q0 72 51 159q65 107 183 192t244 103q18 5 58 6q24 0 72 -8q11 -2 11 -9q0 -4 -5 -5q-34 -12 -88.5 -27t-92.5 -29q-2 0 -3 -1
q-2 -1 -3 -1q-7 -3 -21.5 -9.5t-19 -8.5t-15 -7t-16 -8t-16 -9t-20.5 -12.5t-23 -15.5q-63 -41 -116 -103q-105 -120 -105 -225q1 -9 1.5 -14.5t1 -11.5t1 -8.5t2 -8t2 -7.5t2.5 -8t3 -8t4.5 -10.5t5.5 -12.5q4 -6 5 -9q2 -2 2 -4l3 -4q2 -2 2 -4q28 -35 32 -39q0 -1 1 -1
q23 -21 43 -37q27 -17 54 -30l65 -36q56 -35 88.5 -71t32.5 -86q0 -58 -39.5 -102t-97.5 -48z" />
    <glyph glyph-name="T" unicode="T" horiz-adv-x="952" 
d="M492 -35q-33 3 -46 25q-42 74 -42 196l1 83q0 261 -201 426q-38 31 -70 49q-25 14 -37.5 22t-31 23.5t-27 32.5t-8.5 37q0 29 15 54t37.5 43t58.5 33.5t68 26t78 20t76.5 14.5t73.5 11q174 24 349 24q34 0 104 -2q28 0 32 -21q0 -6 -5.5 -10t-11.5 -4q-8 1 -17.5 1.5
t-20.5 1t-17 0.5l-74 1q-115 0 -221 -10q5 -5 5 -13q-1 -16 -13 -64q-19 -90 -25 -145.5t-6 -141.5q0 -106 16.5 -298t18.5 -228q2 -32 2 -48q0 -86 -38 -131q-8 -8 -23 -8zM478 104v14q0 29 -4 85q-5 65 -13.5 161.5t-13.5 169t-6 155.5q0 220 55 348l-89 -12
q-142 -22 -198 -39q-58 -19 -100.5 -54t-42.5 -78q0 -27 21.5 -46t58.5 -37q113 -60 193.5 -168.5t107.5 -242.5q7 -35 13 -100.5t9 -89.5l6 -48z" />
    <glyph glyph-name="U" unicode="U" horiz-adv-x="646" 
d="M588 2q-40 4 -46 32q-47 326 -47 629q0 84 7 203q0 6 1 10q-28 -90 -57 -229.5t-61 -260.5t-82 -224q-3 -5 -13.5 -24.5t-15.5 -26.5t-15.5 -23t-18.5 -23t-20 -16t-25 -12.5t-28 -3.5q-34 1 -60.5 20t-37.5 49q-12 32 -25 108q-11 71 -14 184q0 224 61 457q3 9 9 33.5
t9.5 34.5t10 28.5t14 34.5t18.5 34q3 4 9 4q14 0 14 -10l3 -31q0 -4 -1.5 -12.5t-1.5 -13.5q-5 -51 -35 -226q-35 -194 -35 -345q0 -122 29 -261q8 -22 13 -31l8 -3q20 7 47.5 32.5t40.5 50.5q55 85 93.5 205t57.5 225t54 236t83 228q4 8 16 8q9 0 17 -5t8 -13
q0 -111 -1.5 -200.5t-1.5 -180.5q0 -339 47 -650v-3q0 -18 -28 -18z" />
    <glyph glyph-name="V" unicode="V" horiz-adv-x="479" 
d="M178 57q-27 0 -49 16t-30 41q-10 29 -18 93q-19 119 -27 363.5t-23 353.5q-1 8 -1 24v23q0 16 18 16q42 0 53 -74q19 -106 28.5 -369t35.5 -406q1 -2 1.5 -7t2.5 -9q10 19 26 76l222 834q1 7 11 7q7 0 14 -5t7 -11q-15 -63 -48 -206.5t-55 -233.5l-91 -392q-2 -9 -7 -34
t-9 -37.5t-11.5 -29.5t-20 -24.5t-29.5 -8.5z" />
    <glyph glyph-name="W" unicode="W" horiz-adv-x="911" 
d="M128 21q-38 3 -62.5 24t-31.5 56q-4 16 -4 49q0 246 18 410t73 408q12 47 32 106q5 12 22 12q15 0 27.5 -9t12.5 -21q-1 -7 -10 -56q-5 -23 -21 -94.5t-23 -111.5q-56 -289 -56 -603v-72q2 -28 8 -40q4 4 14 18q93 142 146 255q121 258 196 557q18 64 20 97q1 10 13 10
q7 0 14 -4.5t8 -10.5q2 -10 8.5 -43.5t8.5 -52.5q3 -29 13.5 -137.5t16 -149.5t19.5 -123.5t34 -149t48 -135.5q12 -19 13 -21q3 -6 9 -6q16 0 42 53q26 55 55 156q30 107 38 160q13 87 13 182q0 36 -9 151q0 8 11 8q8 0 16 -4.5t9 -10.5q12 -88 12 -177q-2 -272 -73 -471
q-30 -103 -99 -103q-25 1 -46.5 13.5t-36 29.5t-28 44.5t-20.5 48.5t-16 51q-66 212 -78 482q-60 -233 -152 -439q-73 -171 -130 -277q-16 -32 -26 -41q-21 -18 -48 -18z" />
    <glyph glyph-name="X" unicode="X" horiz-adv-x="724" 
d="M669 59q-8 1 -15.5 3.5t-12.5 4.5t-12 7l-10.5 7.5t-12 10t-12.5 10.5q-180 156 -328 434q-43 -90 -164 -376l-18 -46q-12 -31 -21 -42q-3 -4 -11 -4t-15 4t-7 10q0 10 6 28q4 11 29 74q147 363 169 413l-3 7q-89 181 -123 302q-9 26 -15 52q-9 32 -9 43t7 11t11 -4
q12 -14 22.5 -32.5t22.5 -43.5t18 -36q26 -50 104 -221q13 26 39.5 79.5t39 79t36.5 69t50 87.5q35 59 59 74l2 1q7 0 7 -5q-2 -14 -15 -48q-40 -88 -72 -152q-39 -83 -115 -249q56 -117 116 -206q62 -99 162 -210l11 -11q18 -18 23.5 -23t13.5 -12.5t25 -23.5q1 -1 7 -6
t8.5 -7.5t8 -7.5t8 -8t5.5 -7.5t4.5 -8t1.5 -7.5q0 -14 -25 -14z" />
    <glyph glyph-name="Y" unicode="Y" horiz-adv-x="629" 
d="M249 -43q-14 0 -25.5 8t-11.5 18q0 11 13 16q41 10 88.5 42.5t81.5 73.5q43 52 70.5 115t39.5 138t16 136.5t4 147.5q0 68 -3 136q0 6 -1.5 31.5t-2.5 37t-3.5 32t-7 36t-11.5 29.5q-29 -31 -50 -79t-28 -75.5t-21 -91.5l-17 -65q-3 -12 -12 -35.5t-12 -35.5
q-26 -76 -63 -135q-21 -33 -37 -53.5t-43.5 -39.5t-54.5 -19q-29 0 -56.5 15.5t-44.5 40.5q-27 41 -27 113q5 194 58 349q31 85 63 126q1 1 5 5.5t6.5 7t7 5t9.5 2.5q9 0 17 -5.5t8 -13.5q-2 -20 -8 -44q-1 -3 -5 -18t-7 -23q-78 -203 -79 -409q0 -52 15 -80l3 -8l9 -12
q2 0 10 -8l11 -4l2 -1q26 3 57 36q101 122 141 246q10 31 27.5 113.5t39.5 137t61 93.5q4 4 11 4q11 0 21 -10q50 -50 65 -106q13 -42 15 -61q6 -67 6 -178q0 -260 -46 -396q-38 -109 -115 -189.5t-181 -94.5z" />
    <glyph glyph-name="Z" unicode="Z" horiz-adv-x="515" 
d="M353 -14q-67 0 -113.5 36t-46.5 94q0 26 14 72q17 54 78.5 223.5t95 293.5t44.5 249q3 39 3 41q0 40 -14 64q-11 -5 -26 -17q-161 -116 -292 -313q-33 -55 -47 -73q-1 -3 -6 -3t-9 3t-4 7q1 21 13 43q23 68 83 153q50 71 96 117t120 99q39 30 64 30q44 0 66 -50
q13 -33 13 -73q-4 -95 -31 -219q-10 -47 -25 -101.5t-26.5 -92.5t-35 -103.5t-32.5 -90t-37.5 -100.5t-33.5 -89q-20 -52 -20 -81q1 -27 14 -47q6 -7 10 -11.5t8.5 -7.5t7 -4t9.5 -3.5t11 -4.5l5 -1q18 -3 30 -3q42 1 111 20l7 1q11 0 19.5 -6.5t8.5 -13.5q0 -9 -10 -12
q-68 -26 -122 -26z" />
    <glyph glyph-name="bracketleft" unicode="[" horiz-adv-x="282" 
d="M146 44q-5 0 -17 2q-33 7 -57.5 31.5t-33.5 58.5q-8 29 -8 68q0 1 3 67q4 95 7 145q6 99 24 287q2 21 5 45t7 53.5t6 45.5q15 103 22 128q20 62 65 77q13 5 27 5q36 0 55 -28l1 -4q0 -4 -6 -4q-7 0 -11 4q-10 13 -28 13q-29 0 -48 -23q-8 -9 -13 -19t-8.5 -25t-4.5 -21.5
t-3 -26.5t-2 -22q-32 -323 -43 -523q-3 -46 -7 -131q0 -9 -1 -28t-1 -29q0 -35 8 -62q6 -21 21 -38t34 -17q16 0 46 15q29 13 51 14h1q5 0 9 -3t4 -7q0 -5 -5 -6q-8 -3 -17 -8t-20 -12t-17 -10q-24 -12 -45 -12z" />
    <glyph glyph-name="backslash" unicode="\" horiz-adv-x="364" 
d="M329 90q-10 0 -12 6q-21 38 -26 50l-18 46q-28 77 -35 98q-67 198 -112 348q-8 26 -51 175l-24 88q-9 33 -11 44q-10 35 -10 43v1q0 6 8 6q12 0 16 -6l8 -12l1 -3l-1 -4l9 -35l15 -48q9 -33 29 -99q56 -187 109 -349q19 -58 59 -174q6 -16 15.5 -45t13.5 -41
q9 -24 14 -43q2 -7 4.5 -21.5t3.5 -19.5v-1q0 -4 -5 -4z" />
    <glyph glyph-name="bracketright" unicode="]" horiz-adv-x="190" 
d="M74 83q-22 0 -39 14q-5 3 -5 9q0 4 3 7q5 3 9 3q7 0 13 -4q3 -2 9 -2q8 0 18 8q13 11 19 42q3 17 3 54l10 507q4 149 7 221l1 23q0 39 -16 59q-14 17 -35 17q-16 0 -26 -10l-4 -1q-9 0 -9 6l1 2q13 17 37 17q21 0 42 -12q40 -24 46 -93q2 -20 2 -60l-2 -186l-9 -514
q0 -65 -26 -88q-21 -19 -49 -19z" />
    <glyph glyph-name="asciicircum" unicode="^" horiz-adv-x="240" 
d="M45 893q-15 0 -15 11v2q14 43 40 96q16 30 25 45l12 20q12 19 14 25q3 6 10 6q12 0 18 -10q6 -15 14.5 -44.5t13.5 -42.5l26 -60q7 -12 7 -16v-2q0 -8 -10 -8l-7 2q-19 8 -38 35q-10 15 -20 44q-7 23 -12 50q-1 -2 -5 -11q-14 -22 -24 -43q-19 -36 -41 -94q-2 -5 -8 -5z
" />
    <glyph glyph-name="underscore" unicode="_" horiz-adv-x="475" 
d="M130 49q-44 0 -88 3q-12 2 -12 11q0 5 7 6q37 4 190 9l193 4q18 0 24 -14l1 -4q0 -11 -15 -11z" />
    <glyph glyph-name="grave" unicode="`" horiz-adv-x="116" 
d="M71 911q-7 0 -8 4q-1 3 -4.5 8.5t-4.5 8.5q-2 10 -4 17l-15 70q-5 23 -5 29l1 9q1 5 6.5 9t11.5 4q5 0 8 -4q5 -7 12 -35l14 -73q3 -18 3 -19l-1 -20q0 -8 -14 -8z" />
    <glyph glyph-name="a" unicode="a" horiz-adv-x="423" 
d="M368 17q-12 0 -24.5 6t-15.5 16q-26 92 -26 216l1 36q-3 -6 -7.5 -18t-6.5 -17q-16 -41 -52 -123q0 -1 -5.5 -13.5t-7 -15t-7 -13t-8.5 -14t-9 -11.5t-11.5 -11t-13 -7t-15.5 -5q-5 -1 -15 -1q-32 0 -60 18.5t-43 46.5q-12 24 -12 56q0 29 12 79q14 64 38 132
q43 115 109 126q20 2 29 2q25 0 25 -3q32 -10 49 -25q16 -13 18 -39q0 -4 -5 -4q-9 0 -18.5 10.5t-11.5 11.5l-12 7q-34 0 -54.5 -15.5t-35.5 -48.5q-19 -36 -38 -102q-1 -4 -6 -20.5t-6 -19.5t-4.5 -16t-4.5 -17t-3 -15t-3 -18t-2 -17t-2 -21q0 -17 7 -38q2 -2 2 -4
q3 -3 4 -5t5 -6q2 0 4 -2h7l1 1q1 0 7 3q15 15 21 24q56 80 92 158.5t75 194.5q10 44 22 77q2 8 12 8q8 0 15.5 -4.5t7.5 -10.5q-15 -183 -15 -226q0 -100 22 -285v-1q0 -17 -25 -17z" />
    <glyph glyph-name="b" unicode="b" horiz-adv-x="430" 
d="M116 -49q-77 0 -77 34q0 16 25 16l20 -2q19 1 40 8q86 29 142 117.5t60 196.5q0 37 -10 82q0 10 -7 24q-12 34 -22 49q-2 6 -11.5 11t-17.5 5q-27 0 -58 -48q-59 -82 -90 -194l-6 -152q0 -17 -29 -17q-22 2 -33 12q-12 10 -12 19l18 454q1 16 2 52.5t3 56.5t7.5 49
t16.5 51.5t29 41.5q3 4 11 4q9 0 17 -5t8 -12l-1 -3q-11 -36 -15 -135q-3 -52 -5.5 -147t-4.5 -132v-12q10 27 46 81q24 36 41 49q20 15 48 15q38 0 72.5 -22.5t50.5 -56.5q26 -55 26 -133q0 -83 -37 -165t-104 -137t-143 -55z" />
    <glyph glyph-name="c" unicode="c" horiz-adv-x="492" 
d="M166 0q-44 0 -82 25.5t-49 68.5q-5 16 -5 39q0 58 51 178q24 54 56 107q36 62 63 95q33 40 76 40q23 0 37 -13q3 -2 6 -7t5 -7q16 -20 16 -33t-8 -17q-9 0 -9 6q0 1 1.5 5.5t1.5 7.5q0 2 -0.5 6t-1 5.5t-3 4t-7.5 5.5q-1 -1 -22 -12h1q-37 -33 -87 -118q-52 -91 -81 -175
q-20 -59 -20 -104q2 -13 9 -33q5 -6 7.5 -8.5t5 -6t5.5 -4.5t5 -2.5t7.5 -2.5t9 -2t13 -2.5t16.5 -2.5q45 6 85.5 26t87.5 51t79 47q2 1 7 1q7 0 13.5 -4t6.5 -9q0 -4 -4 -7q-10 -8 -121 -78q-36 -22 -55.5 -33.5t-54 -24t-61.5 -12.5z" />
    <glyph glyph-name="d" unicode="d" horiz-adv-x="478" 
d="M427 2q-18 2 -24 13q-16 26 -20 49q-28 171 -28 361l2 92q-9 -28 -15 -53l2 -5q0 -3 -6 -7q-12 -43 -29 -84q-19 -53 -25 -67q-24 -59 -71 -120q-4 -4 -8.5 -8t-10 -8.5t-8.5 -7.5q-13 -13 -22 -18q-16 -8 -37 -8q-31 0 -58 19t-35 48q-4 15 -4 34q0 38 21 85
q26 61 73 108q74 76 145 76q21 0 38 -6q9 30 27 103.5t31 110.5q9 26 19.5 78.5t13.5 65.5q2 8 12 8q8 0 15.5 -4.5t7.5 -10.5v-1q-2 -17 -7 -94q-6 -147 -6 -211q0 -229 25 -450q0 -7 1.5 -22t1.5 -24q0 -42 -21 -42zM115 184q23 6 25 7q16 9 38 38q77 97 120 234
q-13 -3 -20 -6.5t-17.5 -11t-19.5 -13.5q-55 -43 -85.5 -82t-47.5 -101q-4 -15 -4 -30q0 -10 1 -16q0 -5 6 -18v-1h4z" />
    <glyph glyph-name="e" unicode="e" horiz-adv-x="449" 
d="M189 43q-49 0 -89.5 24.5t-57.5 70.5q-12 31 -12 71q0 75 32 151t85 118q49 37 83 37q28 0 53 -20q25 -19 25 -43q-1 -22 -25 -54q-28 -38 -71 -65.5t-88 -31.5q-16 -44 -20 -107q0 -40 19 -74l3 -5l16 -22q2 0 2 -2l12 -6q16 -3 25 -3q59 0 155 43q8 4 20 10.5
t21.5 10.5t20.5 6q8 0 14.5 -4.5t6.5 -11.5q0 -3 -2 -5q-19 -19 -61 -39q-91 -49 -167 -49zM132 323q91 36 127 100q14 22 14 34q0 13 -7 13q-8 -2 -15 -6q-40 -18 -71 -56t-48 -85z" />
    <glyph glyph-name="f" unicode="f" horiz-adv-x="380" 
d="M152 -311q-9 0 -17 5q-47 32 -66 69q-16 28 -27 81q-10 46 -12 155q0 268 51 460q7 23 10.5 32.5t14.5 23.5t27 16q11 0 20 -7t9 -15v-5l-1 -3l-2 -21q0 -13 -3 -23q-31 -144 -40 -240l66 -1q94 0 152 1q15 0 16 -12q0 -6 -8 -6q-150 -3 -228 -6q-1 -3 -1 -7
q74 -200 74 -332q0 -59 -11 -128q-6 -21 -6 -23q-1 -14 -18 -14zM140 -235q9 47 10 88q0 98 -43 240l-1 -124q0 -88 13 -144q4 -26 21 -60z" />
    <glyph glyph-name="g" unicode="g" horiz-adv-x="362" 
d="M102 -272h-2q-10 0 -19.5 7t-9.5 15q0 10 11 12q40 9 73.5 35.5t51.5 63.5q9 19 25 86q11 46 14 87q6 65 6.5 182t4.5 170q-42 -79 -101 -153q-22 -29 -33 -35q-12 -6 -26 -6q-30 0 -48.5 20.5t-18.5 49.5q0 59 34 129q59 123 157 126q30 0 51 -10q5 10 5 17q2 10 29 93
q2 6 9 6q6 0 11.5 -4t5.5 -9q0 -1 -3 -61q-2 -19 -2 -58l1 -112v-204q-2 -127 -13 -200q-12 -92 -71.5 -166t-141.5 -81zM104 249q70 67 148 218h-3q-18 -2 -29 -7q-63 -29 -98 -131q-17 -47 -18 -80z" />
    <glyph glyph-name="h" unicode="h" horiz-adv-x="434" 
d="M387 74q-4 0 -12 2q-69 21 -98 109q-14 41 -14 119l-1 82q0 5 -1.5 13t-1.5 12q0 -1 -1 -1.5t-3 -1t-4 -1.5q-18 -11 -33 -31q-32 -40 -57.5 -121.5t-33.5 -99.5l-15 -30q-6 -13 -28 -13q-12 0 -24.5 6.5t-15.5 17.5q-4 12 -9 80q-3 78 -5 188q0 165 11 290q4 48 16 103
q1 6 7 15.5t7 13.5q4 7 13 7q19 0 23 -16q1 -5 4.5 -18.5t3.5 -21.5l1 -32q-11 -271 -11 -349q0 -66 3 -134q0 -14 1 -21q3 6 11.5 26.5t12 28.5t11.5 25t14 26.5t15 22t19 22t21 17.5q30 21 45 21q34 0 45 -73q3 -16 7.5 -59t8.5 -70t17 -59.5t33 -49.5q2 -1 6 -5l17 -11
q12 -7 12 -16q-4 -13 -17 -13z" />
    <glyph glyph-name="i" unicode="i" horiz-adv-x="146" 
d="M92 123q-18 0 -31 13t-16 30q-10 68 -12 88.5t-3 92.5q2 59 5 82q7 43 29 43q35 0 35 -55q1 -14 1 -41q5 -128 14 -199l2 -25q0 -29 -24 -29zM88 589h-4q-12 0 -25 7.5t-13 19.5q2 22 4 37q1 6 6 17t6 14q2 6 11 6q11 0 18.5 -10t9 -15.5t5.5 -21.5q4 -24 4 -37
q0 -15 -22 -17z" />
    <glyph glyph-name="j" unicode="j" horiz-adv-x="180" 
d="M2 -275q-39 0 -81 20q-28 12 -40 24q-6 4 -6 9q0 4 4 7.5t9 3.5q13 -2 44 -14t50 -12q37 0 64 39q27 37 27 116v34l2 119q-3 141 -13 292v19q0 73 23 108q14 20 27 20q15 -1 20.5 -6t7.5 -19q-5 -41 -5 -83q0 -28 4 -84q10 -130 11 -278q0 -75 -7 -138q-15 -123 -77 -160
q-27 -17 -64 -17z" />
    <glyph glyph-name="k" unicode="k" horiz-adv-x="338" 
d="M111 -1q-41 2 -47 32q-34 228 -34 478q0 148 14 275q2 32 18 83q1 9 16 9q31 -4 33 -21q4 -32 4 -47q0 -16 -2 -46q-8 -143 -8 -247q0 -91 5 -204q33 94 80 171q2 3 7 12t7 12.5t7 11t8 11t8.5 9t10.5 8t11.5 4.5t13.5 3q25 0 38 -18q7 -10 7 -25q-2 -21 -21 -62
q-37 -74 -92 -129q-20 -22 -22 -29q0 -4 -0.5 -6t-0.5 -5q1 -4 14 -14q11 -8 31.5 -23t32.5 -24t27.5 -23.5t27.5 -28.5q3 -5 3 -10q0 -14 -19 -14q-10 0 -18 5q-14 8 -29.5 19.5t-23.5 18.5t-27.5 25.5t-23.5 21.5q-2 1 -6 5q0 -5 -2 -13q-20 -112 -20 -204q0 -21 -28 -21z
M202 389q31 38 60 98q10 20 10 30l-1 8q-19 -13 -35 -52q-24 -54 -34 -84z" />
    <glyph glyph-name="l" unicode="l" horiz-adv-x="298" 
d="M121 -3q-46 4 -71 49q-19 38 -19 107q-1 25 -1 76q5 482 5 500q2 40 5 60q4 35 13 54q3 7 13 7q18 0 22 -13q13 -37 17 -99q2 -62 2 -94q-1 -302 -2 -444l1 -55q0 -60 18 -105l2 -3q66 55 121 164q2 4 7 4q14 0 14 -9l-1 -2q-34 -73 -104 -172q-11 -15 -17 -19
q-10 -6 -25 -6z" />
    <glyph glyph-name="m" unicode="m" horiz-adv-x="657" 
d="M89 -12q-14 0 -27 7.5t-17 18.5q-15 48 -15 105q8 242 43 495q3 28 19 61q3 4 8 4q18 0 21 -46q2 -12 2 -37q0 -117 -6 -225l22 47q32 55 54 82q21 26 46 26q23 0 33.5 -11.5t23.5 -40.5q5 -8 9 -26q8 -42 10.5 -118t8.5 -110q1 1 4 7q8 17 44.5 102.5t61.5 123.5
q17 27 51 59q13 11 25 11q23 0 38 -17t22.5 -48.5t10.5 -56.5t5 -61q1 -12 1 -18q4 -96 34 -157q6 -10 6 -15q0 -17 -29 -20q-28 0 -44 26q-36 60 -40 177l-2 82q-1 13 -1.5 39t-1.5 39q0 3 -1 5l-4 -4q-9 -9 -21 -31q-30 -46 -56.5 -150.5t-36.5 -129.5q-12 -31 -38 -68
q-5 -8 -22 -8q-19 2 -28 6.5t-18 18.5q-37 63 -41 185q-1 11 -2 60t-5 75l-26 -52q-60 -136 -93 -391q-3 -21 -28 -21z" />
    <glyph glyph-name="n" unicode="n" horiz-adv-x="503" 
d="M93 49q-16 0 -31.5 10t-17.5 23q-14 98 -14 198q0 123 29 300q7 29 15 49q1 5 8 5q21 0 21 -44q1 -10 1 -31l-4 -202q44 131 94 198q12 18 21 25t28 10q29 0 47 -25q8 -13 19 -49q10 -36 18.5 -95t21.5 -99.5t42 -74.5q0 -1 1.5 -2t1.5 -2q12 -10 14 -11q3 -3 13 -8
l14 -5q38 -7 38 -32q0 -19 -28 -19q-53 4 -95 41t-64 89q-13 31 -19 63t-10.5 81t-7.5 70q-18 -34 -28 -62q-49 -116 -68 -186q-24 -90 -35 -194q-1 -21 -25 -21z" />
    <glyph glyph-name="o" unicode="o" horiz-adv-x="299" 
d="M146 129h-3q-41 0 -65 34q-13 18 -22 57q-10 57 -10 104q7 210 93 210q15 0 31 -7.5t16 -16.5q0 -12 -14 -12l-5 1q-1 -1 -3.5 -2.5t-4.5 -3.5q-6 -5 -10 -19q-28 -62 -28 -163q0 -50 9 -96q2 -12 4 -18q0 1 2 3q36 47 61 111t25 124q0 56 -26 98t-71 42q-39 0 -60 -32
q-3 -5 -11 -5t-16 5t-8 11l1 4q24 43 81 43q69 -2 109 -51q48 -61 48 -184q0 -117 -69 -206q-24 -31 -54 -31z" />
    <glyph glyph-name="p" unicode="p" horiz-adv-x="424" 
d="M87 -281q-17 0 -32.5 9.5t-16.5 23.5q-7 132 -8 270q0 234 29 507q4 38 19 83q2 10 18 10q32 -4 33 -23q2 -32 2 -50q0 -27 -4.5 -75.5t-5.5 -63.5q-6 -74 -9 -146q16 61 43 106q2 4 8.5 14.5t9.5 16.5l34 59q14 22 24.5 36t29.5 27.5t39 13.5q48 -4 71 -44
q23 -41 23 -125q0 -49 -11 -99q-21 -94 -73 -105l-23 -2h-4q-27 2 -49 16.5t-22 36.5q0 16 15 16q20 0 25 -15q3 -12 16 -16q25 14 35.5 34t17.5 54q10 45 10 96q0 17 -2 51q-1 5 -2 15.5t-2 16t-3 13.5t-5 13.5t-8 10.5q-12 -1 -21.5 -7t-15 -13t-14.5 -20
q-43 -57 -55 -107q-5 -17 -19.5 -56.5t-21.5 -61.5q-31 -109 -43 -245q-4 -49 -4.5 -139t-1.5 -115q0 -21 -26 -21z" />
    <glyph glyph-name="q" unicode="q" horiz-adv-x="379" 
d="M300 -265q-53 1 -71 77q-18 93 -22 137q-4 60 -4 135q1 90 11 194q-1 -1 -1 -3q-38 -67 -79 -91q-14 -12 -30 -12q-41 0 -66 57q-7 15 -8 46q0 46 18.5 86t56.5 92q2 2 7.5 10t8.5 11.5l9 10.5t10.5 10.5t11 7t12.5 5.5q12 4 27 4q30 0 54 -18q3 10 8 32t8 33
q19 60 20 65q1 6 11 6q8 0 15.5 -4t7.5 -9q0 -3 -1 -7.5t-1 -7.5q-1 -10 -1 -31q0 -25 -4 -66q-6 -73 -17 -175q-17 -161 -17 -282q75 -124 75 -208q-5 -54 -16 -81q-10 -24 -33 -24zM111 213q27 15 54 58q37 61 63 131q3 33 10 62q-6 6 -16 10l-2 -2h-1q-2 0 -4 -3
q-19 -19 -39 -45q-72 -95 -72 -160q0 -7 1 -14t2.5 -15t2.5 -13q0 -6 1 -9zM303 -241l-4 2v-1zM297 -237q5 2 13 11q5 7 9 25q5 23 5 45q-1 78 -49 164q1 -105 7 -176q0 -49 14 -66z" />
    <glyph glyph-name="r" unicode="r" horiz-adv-x="340" 
d="M78 137q-16 0 -32 9t-16 24q6 141 13 249q1 16 6 59q4 32 24 32q33 -5 35 -23q5 -22 5 -25q0 -16 0.5 -29t0.5 -31q-1 -12 -1 -36q24 55 49 97q17 30 28 40q25 22 58 24q22 0 44 -11.5t22 -30.5t-18 -19q-5 0 -12 3t-12 6l-4 3l-1 1q-2 1 -2 2q-1 0 -2 1t-3 1
q-2 -3 -5 -5q-13 -16 -51 -98q-19 -38 -37 -87q-6 -15 -13.5 -41.5t-13 -43t-17.5 -35.5t-29 -31q-7 -5 -16 -5z" />
    <glyph glyph-name="s" unicode="s" horiz-adv-x="256" 
d="M77 24q-15 0 -27 8t-12 19q0 6 1.5 10.5t5.5 8.5t7 6l10.5 7t11.5 7q77 54 77 89q-1 12 -4 20q0 1 -1.5 3t-1.5 4q-2 4 -7 9.5t-7 8.5l-26 21q-36 29 -54.5 52t-19.5 56q0 26 20 66q50 95 108 135q14 9 22 10q10 0 19 -6t9 -14q0 -2 -2 -8q-7 -10 -21.5 -30t-20.5 -30
q-2 -3 -12 -19.5t-14 -23.5t-12 -22t-12 -25t-7 -23.5t-3 -24.5q0 -16 20 -38l8 -8q6 -5 22.5 -19t22.5 -19t18 -17.5t16.5 -21.5t9.5 -22t5 -27q0 -47 -72 -103q-20 -16 -31 -23q-1 -1 -6 -4.5t-8 -4.5q-8 -4 -23 -6z" />
    <glyph glyph-name="t" unicode="t" horiz-adv-x="289" 
d="M154 -39q-19 1 -30 13t-13.5 23t-5.5 33q-3 17 -5 52q-11 121 -11 269q0 187 18 337q-52 -5 -109 -16q-23 -3 -43 -9q-1 0 -13.5 -3t-18.5 -3q-16 0 -16 8q1 5 15 11q28 11 69 24q43 12 119 20q5 45 13 79q1 4 3 15.5t3.5 19t5 16.5t7.5 14q2 2 7 8t7 10q3 6 10 6
q6 0 11.5 -4t5.5 -8q1 -6 4.5 -15.5t4.5 -13.5q1 -8 1 -25q-1 -19 -7 -99q26 0 56 -3q41 -3 41 -21q-2 -11 -17 -11q-44 3 -84 3q-18 -142 -18 -344q0 -59 1.5 -105.5t2.5 -67.5t5 -77.5t6 -83.5v-29q0 -9 -7.5 -16t-17.5 -7z" />
    <glyph glyph-name="u" unicode="u" horiz-adv-x="359" 
d="M306 83q-20 0 -31.5 14.5t-13.5 34.5q-12 95 -18 233q-37 -89 -83 -163q-1 -2 -6 -10t-7 -11t-7 -9t-9 -9t-9.5 -6.5t-11.5 -4.5l-14 -2q-25 0 -43 16t-19 40q-4 39 -4 87q0 64 3.5 98t17.5 88q4 16 17 34q3 5 13 5q24 -5 27 -19q4 -14 4 -22q-7 -190 -7 -224
q63 97 111 190q22 42 27 59q3 8 16 8q26 -4 29 -19q1 -8 5 -25t5 -26q15 -109 27 -247q2 -19 4 -78q0 -32 -23 -32z" />
    <glyph glyph-name="v" unicode="v" horiz-adv-x="275" 
d="M130 133q-38 0 -46 24q-2 6 -19 95q-5 27 -12 61t-10 51t-7 46t-6 64v23q0 25 19 25q23 0 35 -29q25 -83 38 -160q12 -60 17 -90v-1q22 84 29 105q3 10 7.5 29.5t6.5 25.5q16 70 22 106q7 43 15 55q1 4 7 4q17 0 19 -21q0 -7 -2 -15t-5.5 -18t-4.5 -15
q-15 -54 -33 -153.5t-24 -126.5q-9 -58 -26 -77q-7 -8 -20 -8z" />
    <glyph glyph-name="w" unicode="w" horiz-adv-x="543" 
d="M111 159q-11 0 -18 3q-63 26 -63 99q0 87 44 229q9 27 17 43q3 6 7 12.5t9 14.5t8 12q1 2 5 2q13 0 13 -8q0 -43 -10 -111q-14 -115 -20 -175l115 233q6 12 20 12q12 0 24 -8t13 -18q14 -96 54 -196q2 -6 7 -19t6.5 -17t5.5 -13t6 -13t6.5 -11t9 -13.5t10.5 -14.5
q2 -2 4 -2.5t3 -1.5q1 1 4 1q24 5 37 43q10 33 12 81q1 20 1 60q0 115 -17 220q-10 75 -10 91q0 19 23 19q13 0 26 -7t16 -16q13 -37 23 -119q8 -58 11 -138q0 -91 -29 -178q-25 -70 -64 -88q-11 -4 -24 -4q-22 0 -41.5 11t-31 23t-24.5 38.5t-17 37.5t-15 40q-16 40 -29 94
q-82 -195 -100 -234q-7 -14 -27 -14z" />
    <glyph glyph-name="x" unicode="x" horiz-adv-x="360" 
d="M78 76q-13 0 -25 8t-13 19q0 27 15 67q20 58 61 158q-51 71 -72 140q-9 24 -11 42l-3 18q0 9 5.5 15.5t13.5 6.5q11 0 20 -9.5t12.5 -16.5t10.5 -24q3 -6 8.5 -20t9.5 -20q22 -46 35 -68q47 100 82 154q36 56 76 79q2 1 7 1q20 0 20 -12l-1 -3q-8 -19 -29 -53.5
t-28 -48.5q-7 -13 -46 -99l-35 -85q25 -30 46 -51q8 -7 19 -16t16 -13.5t11.5 -12.5t12.5 -18l2 -6q0 -7 -6.5 -12t-14.5 -5q-9 0 -16 3q-9 3 -18 8t-15.5 8.5t-15.5 12t-13 12.5l-15 15l-16 16q-28 -74 -56 -157q-12 -33 -34 -33z" />
    <glyph glyph-name="y" unicode="y" horiz-adv-x="374" 
d="M134 -234h-2q-19 0 -25 18q0 9 10 11q94 13 119 171q11 62 17 98t10 73.5t5.5 57t5 79.5t6.5 109q0 6 1 17t1.5 20t0.5 17l-1 22q-2 22 -10 33q-35 -53 -65 -130q-2 -6 -19.5 -55t-28.5 -73q-18 -38 -41 -48q-12 -6 -20 -6q-47 0 -62 38q-5 12 -5 39q-1 12 -1 35
q1 38 9 76q18 96 57 137q7 7 20 7q15 0 27 -8t12 -20q-3 -15 -7 -24q-33 -90 -38 -125q-5 -33 -5 -94q2 2 3 2q5 7 9.5 16l10 20l8.5 17q12 24 30.5 72t37.5 85t43 65q3 3 11 3q10 -1 18 -4t14.5 -10t11 -12t9 -16.5t7 -17.5t5.5 -20.5t4 -19t3.5 -20.5t2.5 -19
q11 -65 11 -140q-2 -112 -24 -237q-16 -99 -57 -161q-22 -33 -56.5 -54t-72.5 -24z" />
    <glyph glyph-name="z" unicode="z" horiz-adv-x="285" 
d="M110 130q-32 0 -55 18t-25 48q0 22 16 54q13 30 60 109q4 7 14.5 25.5t16.5 27.5q22 35 28 51q3 6 3 15q0 14 -13 14q-14 0 -27 -6t-27 -15.5t-21 -12.5h-2q-8 0 -8 4q5 20 30 33t48 13q22 0 35 -12q16 -15 18 -60l1 -19q0 -20 -7 -42t-15 -37t-22.5 -39.5t-21.5 -37.5
q-2 -5 -9.5 -19.5t-10.5 -21.5t-6.5 -18.5t-3.5 -22.5l5 -1q15 3 39.5 11.5t39.5 8.5q28 0 28 -15q0 -4 -5.5 -6.5t-14.5 -6t-14 -6.5q-6 -3 -15 -10t-12 -9q-5 -5 -10 -6q-22 -9 -37 -9z" />
    <glyph glyph-name="braceleft" unicode="{" horiz-adv-x="237" 
d="M127 17q-23 0 -49 20t-37 51q-10 24 -10 53v7q0 9 3 30t3 32v14q0 11 16 67q6 24 16 72q8 46 11 70q4 36 4 56v9l-3 25l-2 6q-2 6 -4 10q0 1 -2 7h-1v1l-2 2q-20 3 -32 17q-5 7 -5 14q0 10 9 15l13 8l3 3q3 1 4 4q12 12 16 20q13 23 18 51q3 13 3 29q0 33 -14 91
q-17 85 -17 122v12q2 75 29 127q10 16 16 23l9 9q1 1 15 8q19 8 23 9l15 2l11 -1q16 -2 19 -14v-2q0 -10 -12 -10h-4q-11 0 -17 -6l-1 -3q-2 -5 -3 -7q-8 -10 -8 -11q-11 -18 -19 -53t-8 -81q0 -25 3 -50q3 -22 13.5 -65.5t14.5 -66.5q4 -30 4 -45q0 -81 -46 -126
q24 -27 30 -66l1 -21q0 -11 -2 -33q-3 -37 -9 -77q-12 -81 -32 -143q-7 -21 -16 -35q-8 -10 -12 -32q-3 -17 -3 -34q0 -15 3 -29q5 -23 21 -43q10 -15 35 -27q5 -3 5 -8q0 -4 -5 -5z" />
    <glyph glyph-name="bar" unicode="|" horiz-adv-x="179" 
d="M73 12q-25 0 -30 16q-10 40 -12 121l-1 58l1 58q4 116 39 419q13 102 24 209q6 68 10 103q1 6 3.5 44t7.5 58q1 5 10 5h4q9 -3 12 -11q4 -20 6 -61q2 -40 2 -59q0 -53 -5 -118q-4 -61 -10.5 -130t-15.5 -153.5t-13 -130.5q-11 -123 -13 -209l-1 -73v-30q2 -46 2 -70
q0 -22 -1 -33q-1 -13 -19 -13z" />
    <glyph glyph-name="braceright" unicode="}" 
d="M48 5q-7 0 -13 6q-3 3 -3 7t3 5q10 4 20 19q0 1 7 9t9 13q13 22 19 61q4 17 4 39l-1 19q-3 31 -3 63v14q2 88 12 177q0 3 1.5 16t2 17t2 15.5t2.5 17t3 15.5t4.5 16t5.5 14.5t6.5 15.5t8.5 14q16 23 51 40q21 12 26 16l2 1q-34 24 -50 65q-14 37 -18 105l-1 43q0 49 6 97
q9 72 9 77q0 25 -8 42q-14 29 -38 29q-11 0 -20 -9q-4 -2 -6 -2q-5 0 -10 3t-5 6t1 4q16 17 42 17q34 0 59 -22q35 -29 35 -98v-17q-4 -82 -4 -123v-20q2 -78 13 -116q3 -13 9 -23q1 -4 5 -10l4 -7q4 -4 5 -6q1 0 1 -1l7 -6l5 -2l-3 2l9 -4q24 -8 24 -25l-1 -5
q-10 -26 -53 -48q-36 -20 -47 -43q-12 -23 -19 -64q-6 -42 -9 -85q0 -1 -9 -182q0 -9 -1 -19t-2.5 -22.5t-2.5 -19.5q-6 -42 -12 -62q-10 -30 -27 -50q-12 -16 -53 -28z" />
    <glyph glyph-name="asciitilde" unicode="~" horiz-adv-x="422" 
d="M277 532l-23 1q-50 6 -99 41q-7 5 -19 16.5t-16 14.5q-2 2 -14 10l-2 1h-5q-23 0 -35 -10q-13 -11 -20 -31q-1 -2 -4 -2q-5 0 -7 4v5q0 33 41 55q8 4 19 6q14 2 16 2h2q24 0 51 -23q3 -2 19 -15q2 -2 7.5 -6t6.5 -5q14 -8 21 -11l7 -3l14 -4q1 -1 5 -1l12 -2h7l11 1
q21 2 35 7q22 11 33 23q1 1 6.5 7t7.5 10q1 1 4.5 7t6.5 8q3 3 9 3q11 0 13 -8l2 -11q0 -16 -12 -34q-13 -20 -32 -33q-17 -11 -34 -17q-13 -6 -34 -6zM104 616q1 0 1 1h-1v-1z" />
    <glyph glyph-name="exclamdown" unicode="&#xa1;" horiz-adv-x="232" 
d="M71 49q-11 0 -22 7.5t-13 16.5q-5 30 -5 91q-1 29 -1 87q3 164 22 317q10 86 25 158q4 23 11 48t16.5 56.5t13.5 47.5q1 7 10 7q7 0 13.5 -4.5t6.5 -10.5v-2q-2 -13 -4 -28.5t-4.5 -34t-3.5 -28.5q-6 -58 -11 -88q-23 -167 -31 -311q-4 -104 -4 -155q0 -53 1 -79l1 -45
l-2 -34q-1 -16 -19 -16zM149 951q-8 0 -12 4q-13 11 -13 34v11q4 30 8 46q7 27 17 43q5 11 12 21q5 7 17 17q3 3 8 3q13 0 13 -10v-2l-12 -42q-8 -22 -12 -43q-5 -19 -7 -43q-2 -32 -13 -38q-2 -1 -6 -1z" />
    <glyph glyph-name="cent" unicode="&#xa2;" horiz-adv-x="365" 
d="M150 172q-10 0 -19.5 5.5t-10.5 14.5v4q0 2 6 44q3 16 7 46l8 52q-31 0 -58 15q-45 23 -50 75l-1 21q0 28 8 78q7 45 25 94q19 50 43 89q27 44 61 70q18 14 45 17q8 48 14 72q8 39 9 41q5 22 13 24l6 1q8 0 11 -6v-2q0 -3 -1 -4v-8q0 -13 -1 -20l-4 -42q-2 -17 -8 -59
q43 -12 46 -48v-1q0 -4 -6 -4q-11 0 -13 7q-7 23 -30 25l-1 -2l-54 -378q26 14 43 27q2 1 32 26q22 20 33 24q6 2 10 2q7 0 11 -3q9 -7 9 -13v-2q-4 -12 -33 -41q-31 -28 -40 -35q-32 -24 -72 -35q0 -6 -2 -14q-6 -46 -10 -73q-1 -13 -5 -39q-2 -25 -5 -36h-1q-3 -9 -15 -9z
M147 379q42 268 52 326l7 46q-7 -8 -25 -36q-46 -75 -67 -148q-10 -39 -15 -78q-5 -40 -5 -53q0 -14 3 -28q1 -4 5 -12l1 -2l1 -1q3 -3 3 -4q1 0 3 -2l1 -1l4 -3h1l11 -3l8 -1h12z" />
    <glyph glyph-name="sterling" unicode="&#xa3;" horiz-adv-x="718" 
d="M440 35q-49 0 -95 17q-36 13 -60 33q-4 3 -13.5 11t-15.5 12.5t-15 10t-17 9.5q-15 6 -31 6q-13 0 -26 -3q-45 -34 -98 -49l-6 -1q-14 0 -25 11q-5 5 -5 11q0 7 6 10l23 10l22 12q4 1 10 5q71 46 113 132q39 79 57 200l-39 -3q-28 -2 -43 -2h-28q-7 2 -8 3q-3 1 -7 5
l-1 2h-1l-1 5q0 7 8 9q20 5 83 12l42 3v6q8 67 11 95q-62 -2 -93 -2q-38 0 -56 2q-16 2 -16 14q0 8 10 9q14 1 88 4l70 2q14 101 24 154q14 71 33 132q20 71 49 106q36 47 94 55q6 1 18 1q51 0 83 -36q2 -2 2 -5q0 -4 -5 -6l-5 -1q-5 0 -11 4q-14 11 -32 11l-12 -1l-22 -5
q-9 -3 -22 -10q-40 -24 -65 -93q-16 -42 -32 -121q-14 -62 -25 -134q-3 -14 -7 -49q26 0 38 1l63 1q19 0 28 -4q5 -1 9 -5.5t4 -8.5q0 -3 -4 -6q-10 -5 -29 -5h-16q-14 -1 -42 -1q-18 -1 -54 -1l-11 -98l63 3l56 2q22 0 33 -4q15 -5 15 -17q0 -5 -5 -7q-6 -4 -13 -5
t-19.5 -1.5t-13.5 -0.5l-45 -1l-75 -4q-2 -14 -8 -52q-22 -130 -84 -218q-15 -23 -38 -46q22 -5 23 -6q23 -7 70 -39q11 -7 33 -19l15 -7l8 -3q2 -1 7 -2.5t7 -2.5l7 -2h2q21 -4 29 -5h27l18 1q1 1 5 1q60 11 106 43q50 38 73 86q5 10 19 10q6 0 14 -2q21 -8 21 -22l-1 -5
q-26 -65 -89 -106q-71 -45 -154 -45z" />
    <glyph glyph-name="currency" unicode="&#xa4;" horiz-adv-x="422" 
d="M57 285q-13 0 -16 9l-1 6q0 8 14 31l20 37q23 41 32 54q-40 19 -51 68q-3 15 -3 30q0 29 11 69q15 51 49 94l4 5q-12 4 -25 15q-15 10 -26 21t-21 26q-10 17 -10 21l2 5q3 3 6 3l6 -1q8 -4 11 -7l10 -3q4 -1 4 -4q0 -4 -5 -4l3 -3q10 -13 19 -21q14 -14 22 -20
q1 -1 7.5 -5.5t9.5 -7.5q34 34 67 43q8 0 8 -5v-1l-18 -20l17 1q16 0 31 -3q18 -4 28 -8l5 12q2 8 17 37q12 18 20 35q1 2 3.5 6t4 6.5t3.5 6t5 5.5t6 3q1 1 4 1q7 0 9 -5l1 -6q0 -7 -11 -29l-18 -37q-16 -30 -20 -34l-7 -11q34 -18 58 -51q32 -46 32 -105q0 -63 -40 -96
q-16 -12 -24 -16q6 -24 18 -43q5 -11 30 -42l2 -5q0 -5 -5 -7q-2 -1 -5 -1q-7 0 -14 5q-37 29 -50 83q-22 -7 -49 -10q-25 -3 -51 -3q-39 0 -57 5q-4 -12 -26 -58l-17 -37q-13 -28 -22 -33q-2 -1 -7 -1zM167 441q33 0 64 6q46 9 68 35q25 29 25 72q0 55 -32 93
q-13 16 -28 25q-1 0 -3 2q-4 0 -8 4l-2 1q-3 0 -5 2l-10 3q-8 0 -8 2q-16 2 -24 2q-30 0 -59 -12q-6 -8 -8 -12q-31 -43 -41 -92q-6 -22 -6 -47q0 -22 5 -38q5 -21 18 -34q9 -9 31 -11z" />
    <glyph glyph-name="yen" unicode="&#xa5;" horiz-adv-x="438" 
d="M198 23q-10 0 -12 6q-16 33 -19 61q-2 18 -4 58q-2 58 -2 87v31q2 67 7 119q2 22 8 56l1 8q-27 2 -73 8q-2 0 -10 2t-12 2l-10 -2q-8 -3 -9 -6l-1 -3q0 -6 3 -6h2q8 0 8 -4l-1 -2q-4 -3 -9 -3q-9 0 -15.5 9t-6.5 18l1 5q4 16 34 16h10q14 0 40 -2l43 -3q-28 42 -40 103
l-6 47q-8 -1 -22 -2.5t-25.5 -2.5t-21.5 -1h-7q-3 0 -8 3t-5 6t3 4q26 14 83 16h1l-3 41q-4 66 -15 129q-6 44 -24 130l-15 64l-14 65q0 6 8 6q13 0 17 -9q19 -51 25 -72q8 -23 20 -71q34 -128 44 -254l2 -27l40 -3q8 0 22 -2q30 102 59 233q9 40 26 133q8 44 11 66
q2 12 8.5 34t8.5 31q1 5 9 5q6 0 12.5 -3.5t6.5 -7.5v-1q-1 -14 -1 -40q0 -13 -4 -39l-12 -74q-32 -175 -78 -343q7 0 21 -2q11 -1 34 -1l54 -1q4 -1 9.5 -5.5t5.5 -8.5t-4 -5q-20 -8 -46 -8q-4 0 -40 3l-41 4q-19 -69 -44 -145q11 0 16 -1q18 -1 54 -5q37 -2 52 -17l2 -3
l-2 -4q-6 -8 -23 -8h-10l-101 10q0 -9 -1 -13q-2 -38 -4 -57q-4 -52 -4 -118v-31q0 -28 2 -86l5 -70q0 -18 -7 -44q-2 -3 -6 -3zM192 524l32 100q-36 4 -54 4q8 -68 22 -104z" />
    <glyph glyph-name="brokenbar" unicode="&#xa6;" horiz-adv-x="116" 
d="M60 608q-19 0 -24 14q-4 12 -4 28l3 82q2 74 4 109l6 109q2 36 4 54q3 33 12 36l1 6q0 2 3 2q5 0 5 -4l1 -6q10 -8 10 -32v-11q1 -18 1 -55q1 -36 1 -108q0 -35 -2 -107l-1 -55v-27q-2 -22 -5 -27q-5 -8 -15 -8zM63 38q-9 0 -17.5 5.5t-8.5 12.5l6 199l5 99l3 48
q2 33 6 48q1 4 5 4q11 0 13 -8q4 -20 4 -61v-40q0 -65 -1 -98q0 -52 -2 -156q10 -2 10 -9q-1 -15 -13 -39q-3 -5 -10 -5z" />
    <glyph glyph-name="section" unicode="&#xa7;" horiz-adv-x="402" 
d="M209 51q-20 0 -30 2q-38 4 -61 18q-2 0 -2 1l-5 2l-16 8q-16 10 -24 16q-28 19 -38 40l-1 4q0 8 10 11l4 1q8 0 20 -8q7 -5 22 -16.5t24 -16.5q2 -1 11 -5l6 -2l1 -1l-3 1q6 -2 8 -2l8 -2l6 -2l2 -1q4 0 5 -1q10 -2 15 -2l7 -1h30l2 1l7 1l20 5l15 7q44 24 57 80
q3 13 3 29q0 41 -22 79q-4 8 -16 22l-8 9l-6 6q-11 10 -35 28q-11 2 -17 9l-4 5l-6 5l-22 14q-32 22 -47 34q-52 41 -70 87q-12 28 -12 62q0 37 16 66q23 45 65 63q-15 16 -27 42q-17 39 -17 81l1 22q7 68 47 99q28 22 65 22q23 0 46 -9q55 -21 81 -75q11 -20 18 -53
q1 -9 4 -55q0 -5 -7 -5q-10 0 -12 6q-3 8 -23 61q-15 35 -30 54q-10 12 -16 17l-9 5q-3 3 -7 4l-2 1q-4 2 -10 4h-3q-1 1 -5 1l-3 1h-4q-5 0 -7 -1h-1q-11 -2 -18 -7q-7 -4 -14 -15q-11 -13 -21 -43q-6 -21 -6 -44q0 -26 7 -46q5 -20 18 -41q10 -14 16 -20l1 -1
q50 -7 70 -39l1 -2q0 -2 -3 -2l-3 1q-18 13 -36 17l20 -14q26 -16 46 -32q45 -37 60 -78q8 -26 8 -50q0 -11 -4 -35q-16 -70 -76 -101q35 -27 56 -53q40 -50 42 -114v-4q0 -62 -39 -106q-37 -40 -99 -48q-8 -1 -24 -1zM234 404q23 19 36 44q20 37 20 73l-1 14q-3 22 -10 36
l-4 9q-1 0 -3 4l-2 2q0 1 -8 11l-5 5q-14 14 -41 32l-1 1l-7 4q-3 3 -9 7l-26 18q-9 6 -16 13l-14 -9q-44 -36 -44 -97q0 -8 2 -24q4 -28 21 -53q15 -21 33 -36q1 -1 9 -7t13 -9q4 -4 10 -7l2 -2z" />
    <glyph glyph-name="dieresis" unicode="&#xa8;" horiz-adv-x="319" 
d="M81 959h-17q-10 0 -20.5 6t-10.5 16v3q4 19 18 26q3 2 9 4t10 2h4q10 -2 16 -8l5 -3q11 -9 11 -23l-2 -8v-3q0 -4 -2 -6q-8 -6 -21 -6zM256 956l-10 1q-3 -1 -11 -1q-18 0 -21 13l-1 11q-2 10 -2 15q1 12 11 19.5t23 7.5q10 0 17 -4q23 -7 26 -30v-3q0 -17 -15 -25
q-7 -4 -17 -4z" />
    <glyph glyph-name="copyright" unicode="&#xa9;" horiz-adv-x="672" 
d="M256 248q-39 0 -81 11q-61 16 -97 60q-32 41 -42 98q-3 19 -3 38q0 36 11 89q10 51 31 107q41 105 108 191l7 9q-13 4 -13 11q0 3 3 6q15 16 35 27q13 8 25 12q7 9 16 16q19 19 28 27t27.5 20t34.5 17h3q5 0 10.5 -3.5t5.5 -7.5t-6 -6q-20 -6 -44 -28l-22 -21q8 1 25 1
q42 0 92 -15q103 -33 162 -130q43 -74 43 -163q0 -125 -76 -223q-51 -65 -126.5 -104t-156.5 -39zM234 278q83 0 158 48t118 122q44 77 44 164v15q-3 98 -56 169l-16 19q-2 1 -2 2l-2 1l-8 8q-8 8 -17 14l-3 2q-2 0 -2 2q-4 2 -8 5l-25 13q-6 2 -11 4l-25 8l-11 2
q-12 3 -23 3q-2 1 -5 1h-11q-22 0 -43 -3q-22 -2 -41 -9h-1q-101 -119 -147 -264q-28 -88 -28 -149q0 -37 10 -70q15 -49 51 -78q33 -25 91 -29h13zM283 396q-34 0 -61 17t-36 49q-8 30 -8 59q0 40 14 79q26 74 82 108q24 14 49 14q10 0 19 -3q17 -5 26 -19q5 -6 6 -13v-7
l2 -2q2 -2 2 -6q0 -8 -11 -10q-8 0 -13.5 5.5t-5.5 12.5v2q0 19 -14 19q-12 0 -30 -12q-41 -30 -61 -97q-11 -32 -11 -70q0 -23 5 -51q5 -19 9 -25q1 -4 5 -6l5 -3q1 0 1 -1l10 -1q6 0 6 -1q2 1 6 1q5 0 23 5q21 7 51 29l24 19q23 18 25 19l5 1q18 0 18 -12v-2
q-3 -10 -22 -32q-12 -14 -26 -26q-34 -28 -64 -36q-20 -4 -30 -4z" />
    <glyph glyph-name="ordfeminine" unicode="&#xaa;" horiz-adv-x="272" 
d="M212 850l-10 1q-23 5 -24 21q-1 11 -1 32t1 31q0 8 1 12l-4 -3q-23 -20 -52 -20q-10 0 -15 1q-30 6 -51.5 27t-21.5 50v8q4 31 27.5 50.5t54.5 19.5h6q45 -3 73 -39v28q-2 51 -30 67q-8 3 -15 3q-14 0 -26 -9.5t-13 -22.5q0 -2 -3 -2q-6 0 -6 4q0 17 12 29.5t29 14.5l9 1
q28 0 54 -26q27 -28 32 -80q2 -28 2 -42q0 -18 -2 -52q-4 -65 -10 -95q-1 -9 -17 -9zM111 953q7 0 10 1q14 4 36 28q10 10 23 18q-2 23 -16.5 39t-37.5 16q-22 0 -37.5 -18t-15.5 -41v-2q1 -17 12 -29t26 -12z" />
    <glyph glyph-name="guillemotleft" unicode="&#xab;" horiz-adv-x="404" 
d="M212 441h-2q-15 1 -27 7l-21 11q-21 13 -41 31q-33 29 -56 65q-25 45 -25 63q0 12 5 20q7 12 37 37l39 38q2 2 31 28t43 40q0 3 1 4l15 9l5 1q5 0 8 -3t3 -6l2 -4l-2 -5l-119 -117q-30 -30 -32 -33q-3 -6 -3 -11q0 -8 11 -30q10 -20 19 -33q24 -34 52 -56q12 -10 31 -21
l17 -10q3 -2 15 -11q4 -3 4 -6q0 -8 -10 -8zM359 475q-16 0 -44 18q-22 14 -40 28q-45 35 -65 66q-10 13 -10 27q0 6 4 16q6 11 29 41q47 62 69 84q3 3 7 3q5 0 9.5 -3t4.5 -7l-1 -4q-11 -20 -53 -80q-18 -26 -26 -39q-6 -10 -6 -18v-2q1 -6 10 -15q25 -29 61 -57l32 -21
q2 -1 7.5 -4t8.5 -5t7 -5t6.5 -6.5t3.5 -7.5v-1q0 -5 -8 -7z" />
    <glyph glyph-name="logicalnot" unicode="&#xac;" horiz-adv-x="546" 
d="M497 701q-10 0 -15 8q-2 4 -7 23q0 2 -1.5 9.5t-1.5 12.5v11q0 18 -4 26q-1 5 -4 6l-127 -1q-38 0 -57 1q-22 1 -62.5 1.5t-53.5 0.5h-57q-40 0 -59 3q-11 3 -11 11q0 3 5 4q22 5 69 5l317 9q42 0 60 -11q21 -14 25 -37l2 -14l-3 -24q0 -4 -2 -10.5t-3 -10.5q-1 -3 -2 -9
t-2 -9q-2 -5 -6 -5z" />
    <glyph glyph-name="registered" unicode="&#xae;" horiz-adv-x="672" 
d="M256 248q-39 0 -80 11q-60 16 -97 60q-32 39 -42 98q-3 21 -3 42q0 38 10 85q12 54 32 107q37 99 107 191l8 9q-14 4 -14 12q0 2 3 5q16 16 36 27q12 7 24 12l16 16q19 19 28.5 27t27.5 20t35 17h3q5 0 10 -3.5t5 -7.5q0 -5 -5 -6q-20 -6 -44 -28l-23 -21q8 1 25 1
q43 0 93 -15q104 -34 161 -130q43 -74 43 -164q0 -126 -76 -222q-51 -65 -126.5 -104t-156.5 -39zM235 278q82 0 157.5 48t118.5 122q44 79 44 168v11q-3 98 -56 169q-1 1 -7 8t-9 11q-1 0 -3 2l-1 1l-8 8q-12 10 -18 14l-2 2q-1 0 -3 2l-8 5q-3 2 -10.5 6t-9.5 5q-1 0 -5 2
q-8 3 -10 4l-22 7l-4 1l-11 2q-11 3 -23 3q-1 1 -4 1h-11q-22 0 -43 -3q-22 -2 -42 -9q-99 -116 -148 -264q-28 -88 -28 -149q0 -37 10 -70q17 -51 52 -78q32 -25 91 -29h13zM236 381q-9 0 -13 6q-12 18 -13 25v23q0 34 1 51q0 32 2 100l4 95q-17 -31 -24 -58q-1 -2 -4 -2
q-7 0 -7 5v1q9 55 46 102q14 16 36 35q27 21 45 21h2q25 -1 39.5 -24.5t16.5 -51.5v-10q0 -47 -31 -93q-13 -18 -68 -71l62 -31l62 -32h3q16 0 26 -13q4 -4 4 -11q0 -10 -13 -15q-3 -1 -10 -1t-15.5 3t-14 6t-15 8.5t-12.5 7.5q-13 8 -91 52v-42q1 -14 1 -43v-11
q0 -8 -1 -12t-11 -17q-3 -3 -7 -3zM252 568q32 26 53 55q31 43 31 86v6q0 19 -8 38q-7 12 -12 14l-4 1q-6 0 -17 -8q-21 -11 -40 -30q4 -4 4 -7q0 -4 -7 -5q-6 0 -6 -20l3 -50q1 -12 1.5 -25.5t1 -29.5t0.5 -25z" />
    <glyph glyph-name="macron" unicode="&#xaf;" horiz-adv-x="670" 
d="M73 1081q-19 0 -28 2t-9 8q0 4 4 5q10 3 60 6l64 3q148 9 444 21q22 0 28 -16l1 -5q0 -10 -15 -12l-353 -10q-74 0 -111 -1z" />
    <glyph glyph-name="degree" unicode="&#xb0;" horiz-adv-x="234" 
d="M108 929h-5q-39 0 -55 35q-10 23 -10 52q0 46 20 80q18 34 47 34h4q13 -2 23.5 -10t10.5 -19l-1 -5q0 -3 -5 -3q-11 0 -13 6l-4 7l-4 -2q-9 -4 -14 -15q-13 -22 -18 -51q-1 -7 -1 -22q0 -18 2 -27q1 -7 5 -21l4 -6h2q1 1 4 2.5t4 2.5q6 4 15 13q17 21 25 40q10 23 10 45
q0 23 -8 39q-8 18 -21 28q-2 2 -32 18q-7 4 -7 10t6 7l10 2q9 0 25 -6q17 -5 32 -21q25 -24 34 -56q4 -20 4 -29q0 -50 -34 -94q-24 -31 -55 -34z" />
    <glyph glyph-name="plusminus" unicode="&#xb1;" horiz-adv-x="441" 
d="M235 542l-8 1q-19 4 -20 18q-1 8 -1 23v67q1 29 1 88q-50 -4 -77 -8l-40 -7l-20 -5q-3 0 -7 -2q5 -2 5 -6q0 -3 -1 -4q-4 -4 -10 -4q-15 0 -20 12q-2 3 -2 9q0 12 16 17q38 14 103 23q27 4 54 6q0 40 1 61q1 14 1 42q2 16 2 23q0 3 2 10t3 11t6 4q15 0 17 -10
q0 -4 2.5 -11.5t2.5 -12.5q2 -16 2 -24l1 -44q1 -16 1 -47h12q18 0 54 -2l26 -2q5 -1 15 -5t15 -5q11 -4 11 -13q0 -7 -9 -7h-1q-4 0 -11.5 -1.5t-8.5 -1.5l-22 1q-18 3 -37 3q-14 1 -43 1v-10q1 -31 1 -91l1 -51l-2 -38q-1 -8 -15 -8zM390 454h-4q-3 0 -32.5 4t-44.5 5
q-36 3 -72 3l-40 1q-56 0 -113 -6h-2q-9 0 -15 8q-1 2 -1 5q0 6 6 7q96 17 153 18h23l54 -1q64 -5 81 -8q26 -5 27 -22v-1q0 -13 -20 -13z" />
    <glyph glyph-name="twosuperior" unicode="&#xb2;" horiz-adv-x="277" 
d="M119 863q-19 0 -35 3q-21 5 -21 17q0 4 3 7q45 64 57 86q21 46 21 82l-1 13q-2 27 -13 45q-3 6 -8 6h-3q-11 -1 -21 -8q-28 -16 -40 -51l23 2q7 0 7 -6q0 -1 -3 -3q-4 -1 -19 -5q-3 0 -5.5 -1t-6 -2.5t-5.5 -2.5l-4 -1q-13 0 -15 11q0 21 12 41t30 32q22 15 43 15
q20 0 35 -15q24 -25 24 -76v-7q-2 -66 -59 -153q12 0 36 6q14 5 33 15q4 2 15.5 9t18.5 9l6 1q19 0 19 -11l-1 -3q-5 -15 -29 -30q-13 -9 -40 -17q-29 -8 -54 -8z" />
    <glyph glyph-name="threesuperior" unicode="&#xb3;" horiz-adv-x="198" 
d="M73 886h-2q-9 0 -17.5 4t-8.5 12l1 3q6 27 25 38l5 1q15 0 15 -10v-2l-6 -15q25 8 35 20t10 27q0 14 -10 18q-8 4 -25.5 5.5t-20.5 2.5q-35 6 -43 29v3q0 4 4 7q27 11 44 35t19 53q-9 -1 -17 -10t-10 -18q0 -4 -6 -4q-13 0 -13 9q0 22 20 34q12 6 23 6t23 -5q6 -4 6 -9
v-7q0 -31 -16.5 -58t-43.5 -41q4 -2 7 -2q5 -1 16 -2t12 -1q43 -6 57 -29q6 -10 6 -24q0 -23 -16 -39q-23 -23 -73 -31z" />
    <glyph glyph-name="acute" unicode="&#xb4;" horiz-adv-x="177" 
d="M47 928q-16 0 -16 9v1q3 30 37 102q2 4 11.5 22t15.5 27q1 2 5.5 10.5t7.5 13.5q-2 4 -2 5q0 2 2 3l9 3q3 4 7 6q3 3 7 3q5 0 10 -3.5t5 -7.5v-2q0 -8 -9 -24q-8 -14 -11 -22q-9 -16 -25 -48q-17 -40 -22 -49l-9 -19q-10 -19 -16 -28q-1 -2 -7 -2z" />
    <glyph glyph-name="mu" unicode="&#xb5;" horiz-adv-x="418" 
d="M81 65q-16 0 -20 11q-6 18 -8 55q-4 36 -5 54q-2 18 -4 105q-3 111 -3 221q-8 33 -10 73l1 115q2 76 8 130q2 3 4 3q3 0 5 -2l1 24q4 58 8 87q8 37 10 45q4 14 7 21l4 8q-1 0 -1 1q-2 4 -2 5q0 7 11 7h3q10 -2 14 -12l1 -5q0 -2 -3 -17q-9 -41 -11 -108q-4 -120 -4 -271
l1 -159q24 -37 55 -42l8 -1q31 0 59 47q20 37 39 101q17 57 26 110q3 19 6.5 54.5t4.5 46.5q15 125 62 184q3 4 10 4q8 0 15 -4.5t8 -10.5q0 -56 2 -166q1 -44 1.5 -93t1 -108.5t0.5 -92.5q1 -48 1 -145q0 -49 1 -74q0 -46 -2 -69v-2q0 -11 -18 -11h-4q-23 5 -24 20
q-2 14 -2 42v42q0 53 1 80q1 255 6 510q-5 -12 -9 -26.5t-6.5 -25.5t-5 -29t-3.5 -26t-3 -28.5t-3 -26.5q-15 -130 -57 -229q-25 -59 -54 -79q-20 -14 -46 -14t-49 14q-13 8 -21 16l3 -151q3 -99 3 -101v-68q0 -22 -3 -32q-1 -7 -10 -7z" />
    <glyph glyph-name="paragraph" unicode="&#xb6;" horiz-adv-x="517" 
d="M337 102l-8 1q-15 4 -18 16q-6 23 -6 60l1 45l1 105q3 155 13 372q2 24 2 36q-3 -13 -9 -25q-27 -72 -62 -101q-30 -27 -70 -27q-22 0 -43 9q-49 21 -74 68.5t-25 104.5q0 11 2 33q8 60 43 109.5t89 74.5q51 23 109 23q33 0 61 -7q4 48 13 74q1 4 7 4q12 0 14 -10
q3 -18 3 -37q0 -15 -2 -43q15 -7 32 -17q5 -4 5 -8q0 -6 -9 -6l-7 2l-22 9l-6 -110q-9 -155 -14 -372q-2 -126 -2 -189v-93l1 -40q0 -32 -6 -54q-1 -7 -13 -7zM174 615q42 0 77 55q24 37 48 111q21 60 34 129l2 9l5 58q-26 4 -40 4q-71 0 -126 -40q-41 -29 -65.5 -77.5
t-25.5 -99.5q0 -60 24 -99q12 -22 33 -37q16 -13 34 -13zM471 111q-12 0 -21 7q-11 8 -11 20q0 5 1 8q0 1 1 1q-1 7 -2 21.5t-1 15.5l-9 151q-10 205 -10 368q0 122 2 183q3 91 3 92l4 68q1 7 8 18l4 2q5 0 7 -4q8 -16 8 -43v-10q1 -17 1 -51l2 -101q2 -183 9 -366
q2 -64 8 -184l9 -138q2 -24 2 -37v-9q0 -12 -15 -12z" />
    <glyph glyph-name="periodcentered" unicode="&#xb7;" horiz-adv-x="150" 
d="M86 531h-5q-20 0 -34.5 15.5t-16.5 36.5q0 23 8 38q4 10 9 15q-2 3 -2 8q0 6 9 9q4 1 11 1q20 0 36 -16.5t18 -37.5v-8q0 -18 -5 -38q-7 -21 -28 -23zM73 564l2 7q3 12 3 25t-2 18q-4 -8 -6 -21l-1 -13q0 -7 1 -10z" />
    <glyph glyph-name="periodcentered" unicode="&#x2219;" horiz-adv-x="150" 
d="M86 531h-5q-20 0 -34.5 15.5t-16.5 36.5q0 23 8 38q4 10 9 15q-2 3 -2 8q0 6 9 9q4 1 11 1q20 0 36 -16.5t18 -37.5v-8q0 -18 -5 -38q-7 -21 -28 -23zM73 564l2 7q3 12 3 25t-2 18q-4 -8 -6 -21l-1 -13q0 -7 1 -10z" />
    <glyph glyph-name="cedilla" unicode="&#xb8;" horiz-adv-x="196" 
d="M59 -21h-3q-18 0 -18 11v3q2 7 25 27q14 11 24 25q22 25 27 61v8q0 28 -17 41q-8 6 -17 7q-10 0 -19 -9q-5 -3 -10 -3q-6 0 -8 1q-13 5 -13 13q4 38 18 119q0 4 6 4q14 0 14 -9q0 -10 -0.5 -29t-1 -34.5t-1.5 -29.5l15 2q8 0 24 -4q47 -14 56 -63l2 -18q0 -37 -27 -66
q-18 -20 -33 -31q-29 -24 -43 -26z" />
    <glyph glyph-name="onesuperior" unicode="&#xb9;" horiz-adv-x="179" 
d="M92 829q-7 0 -9 5q-5 15 -7 38l-1 37q4 50 8 73q11 65 24 106q-34 -26 -53 -37l-3 -1q-5 0 -10.5 3t-5.5 7l2 3q14 13 43 33.5t42 31.5q3 3 8 3q16 0 16 -12v-2q-25 -110 -30 -143q-6 -48 -8 -72l-4 -36q-2 -21 -7 -34q-1 -3 -5 -3z" />
    <glyph glyph-name="ordmasculine" unicode="&#xba;" horiz-adv-x="286" 
d="M86 860l-12 1q-27 5 -37 18q-4 5 -7 35q0 33 15 71q20 46 65 95q0 3 1 4q4 11 18 16l4 5q2 2 7 2q6 0 14 -4q12 -1 27 -5q39 -13 56 -49q7 -17 7 -37q0 -49 -42 -91q-20 -22 -56 -43q-32 -18 -60 -18zM77 890q17 0 57 26q43 30 58 64q9 18 9 40q0 23 -12 38l-9 8l-10 5
l-6 1q-5 0 -15 -3t-11 -3q-67 -89 -67 -155l2 -21h4z" />
    <glyph glyph-name="guillemotright" unicode="&#xbb;" horiz-adv-x="379" 
d="M49 248q-16 0 -16 10l1 3q12 30 60 98q8 12 28.5 39.5t30.5 42.5q4 5 4 10t-13 20q-14 12 -30 32q-27 33 -46 70q-27 54 -27 79q0 8 8 8q13 0 17 -9q5 -8 12 -24.5t10 -22.5q5 -10 23 -45q28 -42 54 -68q25 -25 29 -33q3 -6 3 -13q0 -12 -10 -27l-61 -86q-39 -56 -68 -81
q-3 -3 -9 -3zM212 274q-12 0 -12 7v1q1 18 17 52q4 8 8.5 16.5t10 18.5t8.5 16q4 7 29 50q23 38 26 47q1 2 1 7q0 8 -16 35l-30 50q-26 44 -55 100l-1 3q0 6 9 8h2q11 0 16 -7q24 -34 70 -104q22 -34 32 -51q19 -27 19 -42l-1 -8q-1 -8 -5 -16t-12 -20t-9 -14
q-14 -25 -32 -53q-2 -4 -9.5 -16.5t-11 -18t-10.5 -16t-12.5 -17t-13 -14t-14.5 -13.5z" />
    <glyph glyph-name="onequarter" unicode="&#xbc;" horiz-adv-x="731" 
d="M158 636q-6 0 -12 4q-28 27 -30 79v16q0 34 18 135q8 50 9 75v37q-2 16 -4 24q-59 -18 -89 -80q-2 -3 -6 -3q-11 0 -11 6l1 2q16 30 45 56q19 15 61 36l5 1q9 0 12 -7q16 -32 16 -82v-7q0 -22 -15 -145q-2 -30 -2 -45l1 -28q2 -22 5 -35q5 -23 5 -29v-3q0 -7 -9 -7z
M204 25q-15 0 -19 11q-13 30 -13 66q0 17 4 47q6 43 28 110q12 38 39 110t31 83q33 92 66 194q7 21 63 197l45 149q2 9 8 25q4 14 8 20q0 5 8 5q17 0 19 -12v-4q0 -9 -4 -25q-3 -18 -7 -28q-4 -19 -14 -55q-2 -8 -30 -112q-53 -182 -125 -389q-4 -11 -29.5 -81.5
t-37.5 -108.5q-16 -49 -23 -97q-3 -18 -4 -51t-2 -45q-1 -9 -11 -9zM635 -40q-16 0 -27 13q-10 11 -10 32l5 91l-20 -7q-33 -11 -58 -11q-34 0 -56 19q-22 18 -22 49q0 19 12 51q16 43 52 127t60 123q1 3 7 3t11 -3.5t5 -7.5v-2q-1 -5 -48 -127q-15 -38 -43 -114
q-11 -33 -12 -47v-9q0 -19 8 -26q3 -3 12 -4q12 0 18 1q10 2 27 7t23 6q9 3 27 11v7q3 36 11 119l7 61q8 54 10 60q1 4 9 4q15 0 17 -11v-11l-1 -29l1 -2v-2q0 -2 -2 -2l-9 -170l22 14q1 1 6 1q6 0 11.5 -3.5t5.5 -7.5l-2 -4l-22 -24q-8 -8 -24 -17q0 -18 -2 -52l-2 -51
q-1 -8 -1 -25v-6l1 -2q10 -4 10 -10l-1 -3q-4 -9 -16 -9z" />
    <glyph glyph-name="onehalf" unicode="&#xbd;" horiz-adv-x="783" 
d="M137 598q-9 0 -15 6q-32 33 -32 98l1 22q2 31 18 113q10 59 13 126q0 7 1 20t1.5 23t0.5 19q0 20 -1 30q0 6 -1 8q0 1 -2 3h-3l-16 -8q-6 -4 -18 -14q-17 -17 -25 -41q-1 -6 -9 -6q-6 0 -11.5 4t-5.5 9v2q10 31 31 51q28 26 53 26q15 -1 24.5 -8.5t13 -22.5t4.5 -25
t1 -28v-13l1 -25q0 -39 -8 -115q-2 -17 -9 -61t-9 -68v-61q0 -11 3.5 -31.5t4.5 -25.5v-2q0 -5 -6 -5zM311 177q-11 0 -15 6q-24 32 -24 86v6q1 26 12 98q26 150 88 357q52 169 127 345q2 6 12 6q7 0 14 -4t7 -10l-1 -3q-43 -106 -70 -189q-61 -179 -100 -347
q-9 -38 -37 -178q-11 -50 -12 -84l-1 -31v-13q1 -7 3.5 -20t3.5 -18v-1q0 -6 -7 -6zM595 -2q-14 0 -25 7q-20 12 -20 38l1 12q4 27 16.5 75t15.5 60q12 60 12 93q0 14 -4 42q-1 16 -8 32l-3 11l-19 -14q-24 -15 -26 -17t-7 -2q-14 0 -14 10q0 8 16 32q17 20 23 23q7 4 15 4
q26 0 40 -33q21 -46 21 -103q0 -50 -26 -167q-11 -55 -11 -63v-5q2 1 23 17q48 38 56 45l54 51q4 2 7 2q15 0 15 -10q0 -3 -1 -4q-17 -25 -53 -61q-35 -37 -56 -53q-20 -18 -30 -21q-4 -1 -12 -1zM552 361q11 5 24 16l-3 5q-9 -5 -21 -21z" />
    <glyph glyph-name="threequarters" unicode="&#xbe;" horiz-adv-x="800" 
d="M191 636h-4q-9 0 -16 5q-5 5 -5 10q0 4 2 5q11 8 44 26l45 27q1 1 8.5 5.5t10.5 7t7 7.5t4 10v2q0 12 -16 20q-11 6 -31 12q-17 4 -34 12q-40 18 -50 45q-3 9 -3 16q0 22 28 56q30 41 45 79q17 45 17 79q0 41 -32 41h-6q-28 -3 -75 -31q-36 -22 -66 -51q36 -28 79 -31
q7 -2 7 -7q0 -3 -5 -3h-4q-58 0 -104 38q-5 3 -5 9l2 4q37 40 85 67q54 29 85 29l11 -1q23 -3 39.5 -18t20.5 -37l2 -18q0 -27 -14 -69q-12 -43 -42 -87q-2 -4 -8.5 -12t-10.5 -14t-7.5 -14t-3.5 -15q0 -10 5 -16q12 -16 58 -28q52 -14 68 -46q5 -10 5 -17q0 -21 -43 -52
q-28 -20 -42 -26q-31 -15 -51 -19zM384 54l-48 3q-10 0 -20 5.5t-10 14.5v4q13 43 38 122t35 110l126 410q9 28 30.5 97.5t33.5 107.5q4 14 13 48t15 52q7 18 14 49l3 13l-27 -19q-10 0 -10 6v2q8 13 21 28q5 5 15 13t12 10q5 3 10 3q15 0 17 -12v-4q0 -15 -9 -55
q-1 -3 -5 -25t-7 -33q-7 -27 -32 -113l-124 -411q-42 -138 -62 -207q-9 -29 -27 -91.5t-28 -95.5l19 -3q18 -2 21 -15v-3q0 -11 -14 -11zM615 1095l1 4l-3 -3zM725 51h-3q-25 4 -42 35q-8 16 -10 47v9q0 13 2 39l2 19q-15 -6 -32 -9q-30 -8 -49 -8q-6 0 -18 2q-35 8 -35 41
l1 8q6 37 38 117q3 7 16 36.5t17 40t13.5 36t13 41t7 37.5t3.5 42v3q0 8 9 8q17 0 19 -12l1 -24q0 -51 -17 -100q-7 -22 -36.5 -96t-38.5 -117q0 -3 -1 -8.5t-1.5 -10t-0.5 -8.5v-3q20 1 52 11q15 4 43 16q5 43 14 115l9 58l6 30q2 17 8 23t16 6q19 0 22 -14l1 -4
q0 -6 -9 -10q0 -9 -1 -14l-3 -26q-3 -19 -7 -57l-9 -85q14 6 21 8h3q17 0 17 -10l-1 -3q-8 -15 -23 -26q-4 -3 -21 -13q-5 -50 -5 -91v-9q0 -17 4 -29q0 -1 2 -7t4 -9q1 -2 5 -6.5t5 -7.5l1 -3q0 -8 -12 -8z" />
    <glyph glyph-name="questiondown" unicode="&#xbf;" horiz-adv-x="298" 
d="M154 63q-36 0 -66 25q-45 36 -50 109l-1 25q0 81 62 207q51 99 57 112q28 61 44 124q16 61 22 132q1 7 2.5 20.5t2.5 24.5t1 21l1 17l-1 48q0 7 8 7q12 0 14 -8q5 -14 8 -39t5 -32q5 -30 5 -73q-1 -65 -21 -140q-13 -52 -42 -117q-6 -12 -54 -103q-70 -134 -75 -213
l-1 -22q0 -56 27 -86q20 -22 47 -22q24 0 42 18q26 27 40 93q15 71 16 135q0 4 5 4q9 0 9 -6l1 -34l-2 -49q-5 -42 -13 -74q-16 -72 -57 -95q-16 -9 -36 -9zM217 996q-6 0 -11 3.5t-5 7.5v2q7 21 7 36v17l2 17q1 5 7 5q13 0 15 -8q5 -10 5 -26q0 -21 -10 -49q-3 -5 -10 -5z
" />
    </font>
</defs>
</svg>
